<svg width="24" height="24" viewBox="0 0 24 24" fill="none" xmlns="http://www.w3.org/2000/svg">
<path d="M18.3864 12C20.6973 8.7553 21.8757 5.40186 20.237 3.76311C18.5982 2.12436 15.2448 3.3028 12.0001 5.61373C8.75542 3.3028 5.40198 2.12436 3.76323 3.76311C2.12448 5.40186 3.30292 8.7553 5.61386 12C3.30292 15.2447 2.12448 18.5981 3.76323 20.2369C4.29104 20.7647 4.99604 21 5.81729 21C7.54979 21 9.79979 19.9528 12.0048 18.3862C14.2004 19.9528 16.4504 21 18.1876 21C19.0089 21 19.7148 20.7637 20.2417 20.2369C21.8757 18.5981 20.6973 15.2447 18.3864 12ZM19.1767 4.82342C19.8929 5.53967 19.4092 7.86092 17.4404 10.7559C16.8176 9.98491 16.1545 9.24732 15.4539 8.54623C14.7527 7.84658 14.0151 7.1844 13.2442 6.56248C16.1392 4.59373 18.4604 4.10623 19.1767 4.82342ZM16.5273 12C15.8639 12.8392 15.1514 13.6384 14.3935 14.3934C13.6385 15.1513 12.8393 15.8638 12.0001 16.5272C11.1609 15.8638 10.3617 15.1513 9.60667 14.3934C8.84881 13.6384 8.13632 12.8392 7.47292 12C8.80389 10.3228 10.3229 8.80377 12.0001 7.4728C12.8393 8.13619 13.6385 8.84869 14.3935 9.60655C15.1514 10.3616 15.8639 11.1608 16.5273 12ZM4.82354 4.82342C5.02979 4.61623 5.37011 4.50936 5.81917 4.50936C6.92729 4.50936 8.69636 5.15623 10.7551 6.56248C9.98489 7.18491 9.24764 7.84706 8.54636 8.54623C7.8467 9.24739 7.18453 9.98498 6.56261 10.7559C4.59386 7.86092 4.10729 5.53967 4.82354 4.82342ZM4.82354 19.1765C4.10729 18.4603 4.59386 16.139 6.56261 13.244C7.18544 14.0151 7.84855 14.7526 8.54917 15.4537C9.24987 16.1528 9.98649 16.815 10.756 17.4375C7.86104 19.4062 5.53979 19.8937 4.82354 19.1765ZM19.1767 19.1765C18.4604 19.8937 16.1392 19.409 13.2442 17.4403C14.0148 16.817 14.7523 16.1539 15.4539 15.4537C16.1535 14.7526 16.8157 14.015 17.4376 13.244C19.4064 16.139 19.8929 18.4603 19.1767 19.1765ZM13.1251 12C13.1251 12.2225 13.0591 12.44 12.9355 12.625C12.8119 12.81 12.6362 12.9542 12.4306 13.0393C12.2251 13.1245 11.9989 13.1468 11.7806 13.1034C11.5624 13.06 11.3619 12.9528 11.2046 12.7955C11.0473 12.6381 10.9401 12.4377 10.8967 12.2195C10.8533 12.0012 10.8756 11.775 10.9607 11.5695C11.0459 11.3639 11.1901 11.1882 11.3751 11.0646C11.5601 10.941 11.7776 10.875 12.0001 10.875C12.2985 10.875 12.5846 10.9935 12.7956 11.2045C13.0066 11.4155 13.1251 11.7016 13.1251 12Z" fill="" fill-opacity="0.4"/>
</svg>
