<svg width="1868" height="1464" viewBox="0 0 1868 1464" fill="none" xmlns="http://www.w3.org/2000/svg">
<g filter="url(#filter0_f_105_84)">
<path d="M1106.39 1234.01C974.235 1270.91 813.727 1002.23 815.009 764.531C816.26 532.811 930.359 635.141 1212.9 477.477C1160.73 556.578 1732.74 417.93 1689.46 507.341C1646.18 596.752 1384.31 859.802 1324.14 941.58C1263.97 1023.36 1238.54 1197.11 1106.39 1234.01Z" fill="#6F00DD"/>
<path d="M781.653 809.983C918.946 683.665 810.222 660.733 536.405 425.562C428.066 403.648 253.355 437.053 192.226 555.548C131.098 674.043 333.992 761.473 377.834 877.557C421.675 993.64 644.359 936.3 781.653 809.983Z" fill="#FF003D"/>
<path d="M416.572 919.27C250.925 839.243 379.71 804.988 457.026 584.421C472.345 607.195 507.698 624.195 526.553 510.009C550.121 367.276 646.036 416.103 760.833 401.515C875.629 386.927 964.173 392.886 1008.27 516.318C1052.37 639.749 991.799 639.484 888.99 740.851C786.181 842.217 828.765 854.902 691.503 946.766C554.242 1038.63 582.219 999.297 416.572 919.27Z" fill="#ED00D5"/>
</g>
<defs>
<filter id="filter0_f_105_84" x="0.842285" y="215.89" width="1870.96" height="1201.54" filterUnits="userSpaceOnUse" color-interpolation-filters="sRGB">
<feFlood flood-opacity="0" result="BackgroundImageFix"/>
<feBlend mode="normal" in="SourceGraphic" in2="BackgroundImageFix" result="shape"/>
<feGaussianBlur stdDeviation="90" result="effect1_foregroundBlur_105_84"/>
</filter>
</defs>
</svg>
