<svg width="955" height="723" viewBox="0 0 955 723" fill="none" xmlns="http://www.w3.org/2000/svg">
<g filter="url(#filter0_f_105_74)">
<path d="M569.594 542.056C522.58 554.195 457.348 436.684 451.649 336.438C446.093 238.714 490.164 284.844 588.636 225.658C571.749 257.675 775.79 214.019 762.399 250.617C749.008 287.215 660.773 391.396 641.053 424.335C621.333 457.275 616.607 529.917 569.594 542.056Z" fill="#6F00DD"/>
<path d="M440.72 354.748C487.28 305.019 447.219 292.524 341.726 186.21C301.831 174.155 239.279 183.717 220.163 232.121C201.047 280.525 276.964 322.672 295.889 372.781C314.814 422.891 394.159 404.476 440.72 354.748Z" fill="#FF003D"/>
<path d="M311.032 391.384C248.828 353.326 294.688 342.215 317.032 251.17C323.184 261.174 336.457 269.263 340.34 221.58C345.193 161.977 381.276 185.063 422.568 181.886C463.86 178.71 496.155 183.52 515.363 236.736C534.572 289.952 512.579 288.27 477.889 328.367C443.2 368.464 458.986 374.92 411.544 410.114C364.102 445.309 373.237 429.441 311.032 391.384Z" fill="#ED00D5"/>
</g>
<g style="mix-blend-mode:color-dodge" filter="url(#filter1_f_105_74)">
<path d="M561.873 473.736C515.357 487.191 462.705 402.988 466.067 326.736C469.345 252.403 507.861 283.823 608.279 229.791C589.123 255.801 790.208 204.318 774.026 233.525C757.844 262.732 663.338 350.31 641.362 377.276C619.386 404.242 608.39 460.281 561.873 473.736Z" fill="#6F00DD"/>
<path d="M404.035 368.603C450.595 318.874 410.535 306.379 305.041 200.065C265.147 188.01 202.594 197.572 183.478 245.976C164.363 294.38 240.279 336.527 259.204 386.636C278.129 436.746 357.475 418.331 404.035 368.603Z" fill="#FF003D"/>
<path d="M550.743 453.103C503.776 424.374 538.404 415.983 555.281 347.246C559.925 354.799 569.947 360.905 572.882 324.906C576.549 279.907 603.794 297.335 634.973 294.934C666.152 292.534 690.537 296.164 705.038 336.339C719.539 376.514 702.933 375.245 676.737 405.518C650.541 435.792 662.461 440.665 626.636 467.238C590.812 493.811 597.71 481.831 550.743 453.103Z" fill="#ED00D5"/>
</g>
<defs>
<filter id="filter0_f_105_74" x="37.1021" y="0.0583496" width="905.929" height="722.865" filterUnits="userSpaceOnUse" color-interpolation-filters="sRGB">
<feFlood flood-opacity="0" result="BackgroundImageFix"/>
<feBlend mode="normal" in="SourceGraphic" in2="BackgroundImageFix" result="shape"/>
<feGaussianBlur stdDeviation="90" result="effect1_foregroundBlur_105_74"/>
</filter>
<filter id="filter1_f_105_74" x="0.417603" y="15.3455" width="954.536" height="646.686" filterUnits="userSpaceOnUse" color-interpolation-filters="sRGB">
<feFlood flood-opacity="0" result="BackgroundImageFix"/>
<feBlend mode="normal" in="SourceGraphic" in2="BackgroundImageFix" result="shape"/>
<feGaussianBlur stdDeviation="90" result="effect1_foregroundBlur_105_74"/>
</filter>
</defs>
</svg>
