<svg width="232" height="80" viewBox="0 0 232 80" fill="none" xmlns="http://www.w3.org/2000/svg">
<g clip-path="url(#clip0_57_881)">
<path d="M83.653 31.623H108.494V36.9498H99.5577V58.9518H92.6074V36.9498H83.653V31.623Z" fill="white"/>
<path d="M112.068 31.623H119.018V48.0056C119.018 50.2632 119.379 51.88 120.102 52.8562C120.836 53.8202 122.027 54.3023 123.676 54.3023C125.337 54.3023 126.528 53.8202 127.251 52.8562C127.985 51.88 128.352 50.2631 128.352 48.0056V31.623H135.302V48.0056C135.302 51.874 134.345 54.7538 132.432 56.6452C130.518 58.5367 127.599 59.4824 123.676 59.4824C119.764 59.4824 116.852 58.5367 114.938 56.6452C113.025 54.7538 112.068 51.8739 112.068 48.0056L112.068 31.623Z" fill="white"/>
<path d="M142.109 31.623H150.955L157.092 46.2483L163.266 31.623H172.094V58.9518H165.523V38.9633L159.313 53.6985H154.908L148.698 38.9633V58.9518H142.108L142.109 31.623Z" fill="white"/>
<path d="M195.291 53.9729H184.423L182.708 58.9518H175.721L185.705 31.623H193.991L203.974 58.9518H196.988L195.291 53.9729ZM186.156 48.9027H193.54L189.857 38.0296L186.156 48.9027Z" fill="white"/>
<path d="M207.533 31.623H215.296L225.099 50.367V31.623H231.688V58.9518H223.925L214.123 40.2079V58.9518H207.533V31.623Z" fill="white"/>
<path d="M17.9717 12.4984C16.1332 13.6813 14.394 15.016 12.7718 16.4888C9.66989 19.3055 7.82004 21.8832 7.4106 22.4627C6.18855 24.2 5.12274 26.045 4.22597 27.9755C3.53488 29.4666 2.94207 31.0026 2.45145 32.5732C2.05101 33.8519 1.8119 34.8532 1.72346 35.2335C1.54699 35.9932 1.1355 37.8801 0.957396 40.0463C0.936514 40.3041 0.918909 40.5632 0.911948 40.6616C0.905807 40.7516 0.8014 42.3222 0.798533 43.5908C0.79403 45.4312 1.00325 47.1254 1.09415 47.8503C1.4389 50.5902 1.98796 52.6066 2.11038 53.0479C2.93836 55.9752 4.1201 58.7874 5.62871 61.4206C6.3743 62.7029 7.19991 63.9357 8.10051 65.1113C9.63059 67.1397 10.9666 68.5072 11.2532 68.8015C13.1342 70.7141 14.7384 71.8985 15.1204 72.1771C15.9417 72.7757 16.6668 73.2386 17.213 73.5687C17.1467 74.2615 17.0652 74.7846 17.0009 75.1462C16.9567 75.3665 16.9314 75.5903 16.9252 75.815C16.9223 75.9367 16.9133 76.363 17.0235 76.7454C17.2847 77.6496 18.156 78.1075 18.2899 78.1756C18.4573 78.2586 19.1562 78.5907 19.9657 78.3985C20.1773 78.346 20.3812 78.2659 20.5725 78.1602C20.995 77.9356 21.2112 77.6865 21.5506 77.3527C21.8833 77.0267 22.2325 76.7185 22.5968 76.4294C23.283 76.7138 24.1825 77.0655 25.2512 77.43C25.5681 77.5379 26.7661 77.9447 27.9428 78.2524C30.3139 78.8751 32.319 79.02 33.5694 79.1059C35.8802 79.2622 38.2004 79.2005 40.5 78.9216C43.9614 78.5035 46.4713 77.7073 46.9864 77.5408C49.6711 76.674 51.5799 75.6668 52.6706 75.0848C55.3164 73.6733 57.1491 72.2908 57.7436 71.8325C59.166 70.7376 60.5021 69.532 61.7398 68.2265C63.1552 66.732 64.0891 65.47 64.6742 64.6745C66.1032 62.7333 66.9429 61.233 67.1235 60.9071C67.4969 60.2341 67.7876 59.65 67.9502 59.3154C68.457 58.273 68.7809 57.4697 69.0798 56.7245C69.3492 56.0536 69.6895 55.2009 70.0657 54.0335C70.2877 53.3456 70.4342 52.8246 70.46 52.7266C70.9313 51.0286 71.1221 49.6167 71.2638 48.5361C71.4703 46.9631 71.5868 45.3793 71.6126 43.7926C71.6278 42.8506 71.6458 41.4944 71.4763 39.7096C71.4382 39.3086 71.2617 37.5301 70.7331 35.2044C70.5141 34.2409 70.1394 32.621 69.3668 30.578C68.8866 29.3304 68.3368 28.1115 67.72 26.9272C66.8462 25.2331 65.8458 23.6093 64.7274 22.07C61.3256 17.4151 56.8813 13.6468 51.7609 11.0756C48.375 9.38858 44.7454 8.25974 41.0089 7.73162C40.7891 7.4871 40.3284 7.04829 39.6213 6.86272C39.1685 6.74399 38.8024 6.77969 38.4385 6.81664C37.7331 6.89289 37.0488 7.10644 36.4232 7.44559L35.7681 7.43687C35.2477 6.68619 34.7816 5.89825 34.3735 5.07924C34.1627 4.65081 33.9723 4.26348 33.7823 3.70926C33.7258 3.5432 33.6054 3.17994 33.4789 2.77102C33.3483 2.34882 33.2701 2.07025 33.0768 1.70991C32.9894 1.53519 32.877 1.37458 32.7431 1.23332C32.6045 1.07896 32.4336 0.958092 32.2428 0.87961C32.1544 0.845568 32.0033 0.799901 31.6516 0.810695C31.2867 0.821489 30.9862 0.883761 30.6202 0.97966C30.047 1.12994 29.6948 1.25656 29.6948 1.25656C27.3008 2.12007 26.154 2.70958 26.154 2.70958C25.2737 3.16209 23.9258 3.86535 22.4383 5.13155C22.0109 5.49439 21.4536 5.97513 20.8235 6.72406C19.96 7.75031 19.4813 8.66405 19.2082 9.19211C18.6675 10.2403 18.2524 11.3502 17.9717 12.4984Z" fill="black" stroke="#DE2386" stroke-width="1.40597" stroke-miterlimit="10"/>
<path d="M68.0156 42.9199C68.2613 60.6982 53.8727 75.7166 36.1611 75.6905C18.4667 75.6635 4.14281 60.6281 4.40403 42.8913C4.65911 25.529 18.8073 11.1122 36.1157 11.0607C53.4956 11.0088 67.7741 25.463 68.0156 42.9199Z" stroke="#525252" stroke-width="2.34328" stroke-miterlimit="10"/>
<path d="M20.3529 14.7968C20.4098 14.8147 20.4385 14.8234 20.4438 14.8354C20.5204 15.0098 19.2376 15.5872 17.6686 16.6729C16.5955 17.4151 15.4814 18.0943 14.3963 18.8179C14.3673 18.8374 14.3329 18.8594 14.3284 18.8528C14.2928 18.8113 15.8056 17.2561 17.7267 15.9908C18.4329 15.525 19.1719 15.1125 19.9377 14.7565C20.0774 14.7421 20.2185 14.7558 20.3529 14.7968Z" fill="black"/>
<path d="M21.4539 15.7006C21.4085 15.7147 21.3757 15.7284 21.0559 15.8965C20.9274 15.9638 20.7153 16.0754 20.635 16.1194C20.0794 16.425 18.3352 17.6347 17.4225 18.4816C17.0889 18.7913 16.7826 19.1305 16.5725 19.3082C16.5639 19.3157 16.5377 19.3372 16.5402 19.341C16.5508 19.3563 17.1024 18.9902 17.5421 18.7008C18.4019 18.1337 19.2732 17.5799 20.1384 17.017C20.7595 16.6139 20.7841 16.5981 20.8889 16.5267C21.2283 16.2967 21.2864 16.2444 21.4805 16.1369C23.0802 15.2489 20.6428 16.633 21.8728 15.904C22.0857 15.7794 22.1258 15.7545 22.1213 15.7271C22.1086 15.6528 21.7667 15.6022 21.4539 15.7006Z" fill="black"/>
<path d="M12.1178 21.0093C11.1873 22.1734 10.3191 23.3873 9.51707 24.646C8.84027 25.7092 8.39889 26.5141 8.25804 26.7715C7.60744 27.9684 7.1935 28.9054 7.08458 29.1495C6.85775 29.6664 6.69152 30.091 6.35946 30.94C6.02741 31.789 5.86117 32.2149 5.64867 32.8339C5.55982 33.0934 5.29655 33.8718 5.01158 34.9097C4.804 35.6669 4.67625 36.229 4.50551 36.9796C4.38268 37.5218 4.27745 37.9834 4.15585 38.6232C4.05308 39.1629 3.95113 39.7158 3.85737 40.454C3.77548 41.0983 3.74395 41.5823 3.70956 42.083C3.66862 42.6688 3.64118 43.0794 3.63832 43.6369C3.63586 44.16 3.65674 44.5257 3.69236 45.1422C3.72716 45.7467 3.76156 46.3296 3.85614 47.0997C3.92943 47.6917 4.00845 48.1496 4.06659 48.4838C4.11736 48.7777 4.18942 49.1924 4.31226 49.7379C4.33232 49.8293 4.41748 50.2104 4.55096 50.721C4.68444 51.2316 4.79663 51.6057 5.01732 52.3272C5.20115 52.9304 5.29287 53.2322 5.38991 53.512C5.46565 53.73 5.59667 54.0932 5.91317 54.8559C6.19978 55.5458 6.46387 56.1794 6.87126 57.0209C7.28071 57.869 7.62873 58.495 7.86375 58.9181C8.31905 59.7368 8.69369 60.3474 8.81939 60.5509C9.60682 61.8188 10.465 63.0401 11.3899 64.2087C11.3899 64.2087 12.3013 65.3633 13.2287 66.3405C13.4813 66.6066 13.7167 66.8341 13.7331 66.8499C13.8309 66.9441 14.1466 67.2459 14.5348 67.5706C14.9094 67.8836 15.1461 68.0459 16.2135 68.7874L17.2825 69.5313L19.6434 69.8539C19.6434 70.1952 19.6434 70.5361 19.6434 70.8768C19.6434 71.2712 19.6434 71.6659 19.6434 72.0608L17.2203 70.9308L16.9095 70.2774L16.9775 70.1238C16.5803 69.8547 16.0268 69.4707 15.3778 68.9896C14.9295 68.6574 14.4128 68.2614 14.0963 68.0036C13.0751 67.1733 12.3844 66.343 11.5786 65.372C10.0387 63.5121 9.06382 61.9262 8.45457 60.9357C7.91206 60.0535 7.52924 59.3486 7.41377 59.1348C7.03586 58.4336 6.77177 57.8869 6.60636 57.5431C6.34595 57.0034 6.0401 56.3649 5.68757 55.4989C5.62206 55.3374 5.33709 54.6338 5.01076 53.6723C4.65168 52.6149 4.4269 51.7904 4.35566 51.5185C4.09796 50.5787 3.88818 49.626 3.72717 48.6643C3.53892 47.5243 3.42119 46.3735 3.37464 45.2186C3.33254 44.1595 3.34867 43.0988 3.42295 42.0415C3.64937 38.8008 4.37163 36.3469 4.80768 34.8652C4.80768 34.8652 5.35019 33.0232 6.14696 30.9903C6.27716 30.6581 6.4086 30.3385 6.4086 30.3385C6.44954 30.2397 6.6952 29.6456 6.94619 29.0901C7.33311 28.237 7.70652 27.542 7.94031 27.1082C8.21587 26.5984 8.70433 25.6967 9.35862 24.675C10.1872 23.3853 11.1095 22.16 12.1178 21.0093Z" fill="black"/>
<path d="M22.4448 66.8324C22.4448 67.086 19.6417 76.6813 19.6417 76.6813L24.3556 75.4591L31.3395 77.4888L34.3652 78.1809L49.9936 75.2283L55.908 72.0915L56.8861 70.0157L57.1023 69.5084L58.1828 67.2479L57.1932 66.5559L57.671 66.1984L59.855 63.8113L58.9902 62.5464L57.5044 64.2111L55.9727 65.6899L55.1685 63.6831L54.4864 65.5051L55.275 65.8742L57.4475 67.4314L52.7348 67.5003L43.7754 70.7908L40.0863 72.7594L33.2286 72.2297L26.4041 70.8228L22.4448 66.8324Z" fill="black"/>
<path d="M39.105 69.7632C38.8828 69.9333 38.6098 70.0212 38.3315 70.0123C38.6233 70.1916 38.8845 70.4176 39.105 70.6815C39.0711 70.3768 39.0711 70.0692 39.105 69.7644V69.7632Z" fill="white"/>
<path d="M33.766 74.9277C33.7545 74.9352 33.3905 75.2237 33.3905 75.2237C34.4321 75.6827 35.5283 76.0018 36.6513 76.1732L36.6775 75.7925C36.1793 75.7182 35.6868 75.609 35.2035 75.4658C34.7126 75.3204 34.2323 75.1406 33.766 74.9277Z" fill="#DE2386"/>
<path d="M24.4135 73.1123V73.1289V73.2991L25.5734 74.0879H25.6266" fill="#DE2386"/>
<path d="M43.7766 11.4756C44.4645 11.6076 45.1462 11.772 45.8238 11.9534C46.1632 12.0418 46.4986 12.146 46.836 12.244L47.3379 12.4055C47.4198 12.4329 47.5054 12.4591 47.5885 12.4885L47.8375 12.5761L48.3353 12.7517L48.8291 12.9398L49.0748 13.034L49.3204 13.1349L49.8093 13.3367C49.9731 13.4056 50.1324 13.4791 50.2933 13.5505L50.5348 13.6588C50.6167 13.6945 50.6962 13.7307 50.7752 13.7701L51.4913 14.1151L51.7267 14.2371C52.987 14.8833 54.2021 15.6164 55.3634 16.4312L55.7999 16.7368L56.2261 17.0564L56.439 17.2171L56.5454 17.2972L56.6499 17.3802L57.0667 17.7123C57.1359 17.768 57.2063 17.8224 57.2742 17.8784L57.479 18.0507L57.8884 18.3957C58.0227 18.5123 58.1545 18.6323 58.2872 18.7511C58.4199 18.8698 58.5542 18.9873 58.6819 19.1114C59.7257 20.0847 60.7025 21.1295 61.6053 22.2383C62.5101 23.3471 63.3407 24.5162 64.0914 25.7376C65.5916 28.1795 66.7905 30.8173 67.6069 33.5814C68.4176 36.3464 68.8634 39.2081 68.9327 42.0919C68.9437 42.4514 68.9417 42.8114 68.9421 43.1713C68.9355 43.5308 68.9314 43.8907 68.9138 44.2507C68.9069 44.4304 68.9003 44.6102 68.8876 44.7904L68.8528 45.3301C68.8209 45.6883 68.7943 46.047 68.7513 46.404L68.7218 46.6718L68.7071 46.8059L68.6891 46.9396L68.6178 47.4739C68.5941 47.652 68.563 47.8292 68.5359 48.0065C68.5089 48.1838 68.4815 48.3619 68.4467 48.5383L68.348 49.068C68.314 49.2441 68.2747 49.4193 68.2383 49.5953C68.1674 49.9473 68.079 50.2952 67.9971 50.6444C67.977 50.732 67.9537 50.8183 67.9304 50.9051L67.8616 51.1654L67.792 51.4253L67.7572 51.5548L67.7191 51.6839C67.6155 52.0272 67.5209 52.373 67.4026 52.7114L67.2331 53.2212L67.1479 53.4761L67.107 53.6031L67.0595 53.7277L66.6795 54.7315L66.2631 55.72L66.2107 55.8445C66.1935 55.886 66.1734 55.9275 66.155 55.9661L66.0416 56.209L65.8148 56.6943C65.5032 57.3365 65.1752 57.9701 64.8227 58.5895C64.1209 59.8272 63.3368 61.0151 62.4758 62.1448L62.1482 62.5637C62.0938 62.6334 62.0397 62.7036 61.9845 62.7712L61.8154 62.9763L61.4772 63.3848L61.1295 63.7854C60.6603 64.3139 60.1805 64.832 59.6768 65.3252C60.5962 64.2594 61.4535 63.1402 62.2445 61.9733C62.3444 61.8284 62.4377 61.679 62.5343 61.5324C62.631 61.3859 62.7284 61.2418 62.8209 61.0903L63.0977 60.6415C63.1894 60.4921 63.2832 60.3435 63.3692 60.1903C63.7242 59.5842 64.0652 58.9701 64.3805 58.3437C65.0161 57.0946 65.5742 55.8066 66.0514 54.487L66.3884 53.4906L66.4294 53.3661L66.467 53.2415L66.542 52.9895L66.6922 52.4868C66.7974 52.1547 66.8793 51.8122 66.9702 51.4742L67.0034 51.3497L67.0333 51.2218L67.0939 50.9665L67.1549 50.7112C67.1754 50.6282 67.1958 50.5414 67.2134 50.4555C68.4237 44.9905 68.1961 39.2303 66.6255 33.8819C66.43 33.2133 66.2117 32.5522 65.9704 31.8988C65.7292 31.2458 65.4655 30.6006 65.1846 29.9634C64.0564 27.4095 62.6184 25.0083 60.9039 22.8153L60.7439 22.6078C60.6902 22.5389 60.6341 22.4728 60.5801 22.4052L60.2501 22.0017L59.9106 21.606L59.7403 21.4084C59.6838 21.3424 59.6244 21.2789 59.5667 21.2137L59.2179 20.8264C59.1008 20.6981 58.9796 20.5735 58.8604 20.4473C58.6242 20.192 58.3748 19.9492 58.13 19.7034C57.1381 18.7266 56.0838 17.8172 54.974 16.9809C53.8633 16.1406 52.7008 15.3729 51.4938 14.6826L51.2682 14.5518L51.0385 14.4273L50.5795 14.1782C50.5033 14.1367 50.4255 14.0952 50.3477 14.0574L50.1148 13.9391C49.9592 13.861 49.8048 13.7797 49.6484 13.7033L49.1763 13.4783L48.9401 13.3658L48.7014 13.2595L48.2211 13.0498L47.7388 12.8472L47.4972 12.7459C47.4153 12.7131 47.3334 12.682 47.2515 12.65L46.7639 12.4591C46.4363 12.3395 46.1088 12.2154 45.778 12.1045C45.1196 11.8721 44.451 11.6661 43.7766 11.4756Z" fill="white"/>
<g opacity="0.99">
<path d="M20.5777 15.5215C19.5013 16.2283 18.4618 16.9914 17.4635 17.8077C16.4719 18.6239 15.5262 19.4958 14.631 20.4194C13.7385 21.3397 12.8999 22.3121 12.1195 23.3317L11.8276 23.7132L11.5467 24.1038L11.2666 24.4937L11.1958 24.5908L11.1286 24.6909L10.9943 24.8901L10.7262 25.2887C10.6377 25.4219 10.5542 25.5589 10.4682 25.6939L10.2115 26.0999L9.96583 26.5125C9.88394 26.6504 9.7996 26.7861 9.72016 26.9277L9.48555 27.347C9.32628 27.6214 9.18298 27.9095 9.03148 28.1922C8.95533 28.3329 8.88613 28.4774 8.81448 28.6206L8.60116 29.0512C8.53196 29.1952 8.46604 29.3418 8.39644 29.4862L8.29572 29.7042C8.26133 29.7764 8.22816 29.8495 8.19704 29.923L8.00788 30.3639C7.97635 30.4373 7.9436 30.5104 7.9133 30.5843L7.82322 30.8072L7.64266 31.2523L7.4711 31.701C7.354 31.9987 7.25164 32.3026 7.14355 32.604C7.08991 32.7547 7.04242 32.9079 6.99165 33.0606C6.94088 33.2134 6.8897 33.3641 6.84466 33.5173L6.70463 33.9769C6.68047 34.0533 6.65959 34.1305 6.63748 34.2077L6.57156 34.4389C6.48107 34.7461 6.4041 35.0571 6.3218 35.3668C6.16758 35.9887 6.02878 36.6142 5.9054 37.2433C5.66189 38.5014 5.49031 39.7728 5.39155 41.051C5.34201 41.6895 5.30966 42.3288 5.29984 42.9686C5.29329 43.2886 5.29984 43.6091 5.29984 43.9292C5.29984 44.0895 5.30598 44.2497 5.31089 44.4095L5.32645 44.8899C5.38208 46.1707 5.51251 47.447 5.71706 48.7121L5.79567 49.1862C5.82351 49.344 5.85463 49.5009 5.88411 49.6587L5.92874 49.8949L5.97787 50.1299L6.07777 50.6002C6.21985 51.2254 6.37544 51.8457 6.54863 52.4651C6.90102 53.6999 7.32178 54.9137 7.80889 56.1005C8.05456 56.6942 8.31128 57.2824 8.58683 57.8624C8.86238 58.4424 9.15636 59.0136 9.46303 59.5782C10.0797 60.7077 10.7598 61.8004 11.5 62.8508C12.9912 64.9626 14.7065 66.9021 16.6152 68.6343C16.1009 68.2432 15.6022 67.8305 15.1121 67.4067C14.622 66.9828 14.1499 66.5369 13.6893 66.0782C13.4571 65.8507 13.2328 65.6157 13.0076 65.3807L12.6755 65.0229C12.5641 64.9042 12.4581 64.7809 12.348 64.66L12.1842 64.4774C12.1301 64.4163 12.0781 64.3528 12.0253 64.2918L11.7088 63.9182C11.5041 63.6649 11.2936 63.415 11.0947 63.1555C10.6901 62.6428 10.3102 62.1106 9.93635 61.5734C9.56253 61.0362 9.21491 60.4807 8.87794 59.9186C8.2046 58.792 7.59956 57.6248 7.06617 56.4235C6.80003 55.8224 6.55041 55.2135 6.3173 54.5969C6.0876 53.9795 5.87715 53.3547 5.68144 52.725C5.48572 52.0952 5.31294 51.4575 5.15981 50.8153L5.04926 50.3325L4.9948 50.0908L4.94485 49.8484C4.9121 49.6865 4.87729 49.525 4.84658 49.3627L4.76142 48.8769C4.73031 48.715 4.70574 48.5515 4.67953 48.3883C4.65333 48.2252 4.62672 48.062 4.60461 47.8984C4.56366 47.5705 4.51371 47.2433 4.48177 46.9141C4.40357 46.2574 4.35894 45.5973 4.318 44.9372L4.29998 44.4411C4.29425 44.275 4.28729 44.109 4.28688 43.9454C4.2836 43.6133 4.27705 43.2841 4.28279 42.9528C4.29057 42.2886 4.32373 41.6285 4.37204 40.9688C4.47724 39.6503 4.65893 38.3392 4.91619 37.0423C5.04803 36.3947 5.19707 35.7512 5.3633 35.1119C5.45133 34.7939 5.53363 34.4742 5.62985 34.1571C5.67734 33.9989 5.72156 33.8399 5.77274 33.683L5.92423 33.2118C6.74456 30.7013 7.87354 28.3055 9.28452 26.0812C12.1023 21.6462 16.0329 17.965 20.5777 15.5215Z" fill="white"/>
</g>
<path d="M34.1097 22.5565C33.5959 22.1786 32.9553 22.0226 32.3282 22.1227C32.3791 21.949 32.4735 21.7917 32.6022 21.666C33.0902 21.7146 33.5705 21.8231 34.0328 21.989C34.0895 22.1729 34.116 22.3651 34.111 22.5578" fill="#262626"/>
<path d="M39.0436 23.0132C38.8828 23.1396 38.7579 23.3069 38.6816 23.4981C39.2987 23.4574 39.9123 23.6185 40.4324 23.9576C40.4463 23.9043 40.4548 23.8496 40.4578 23.7945C40.4641 23.6835 40.4487 23.5723 40.4123 23.4674C39.9833 23.2419 39.5211 23.0885 39.0436 23.0132Z" fill="#262626"/>
<path d="M55.3843 18.6836C57.1789 20.0028 58.8179 21.527 60.2689 23.2261C60.9949 24.0783 61.6733 24.9711 62.301 25.9001L62.5343 26.2501C62.6121 26.3667 62.6908 26.483 62.7632 26.6034C62.9102 26.8421 63.0613 27.0791 63.205 27.3199L63.628 28.0489C63.7635 28.2951 63.8949 28.5434 64.0288 28.7908C64.5526 29.787 65.0219 30.8118 65.4344 31.8604C65.4897 31.9899 65.5351 32.1232 65.5843 32.2556L65.8733 33.0502C65.9204 33.183 65.9601 33.3188 66.004 33.4529L66.2603 34.2595L66.485 35.0757C67.0722 37.2597 67.4081 39.5052 67.4861 41.7675C67.568 44.0329 67.351 46.2971 66.9277 48.5132C66.8185 49.0667 66.6974 49.6176 66.5645 50.1659C66.4277 50.7131 66.2803 51.2573 66.1165 51.7966C65.4658 53.9546 64.5934 56.0373 63.5137 58.0105C62.9738 58.9941 62.3845 59.9489 61.7482 60.8713C61.1108 61.7907 60.4258 62.6753 59.6961 63.5212C59.3333 63.9447 58.9562 64.3557 58.573 64.7592C58.3789 64.9589 58.1853 65.159 57.9863 65.3533C57.7873 65.5476 57.5875 65.7406 57.3864 65.9324C58.1484 65.122 58.8805 64.2851 59.5655 63.4104C59.9102 62.9749 60.2415 62.529 60.5662 62.0794C60.6481 61.9669 60.725 61.8519 60.8049 61.7382C60.8847 61.6244 60.9641 61.5111 61.0415 61.3957L61.2716 61.049C61.3482 60.9332 61.4256 60.8182 61.4985 60.6999C62.0994 59.768 62.6537 58.806 63.1592 57.8175L63.3479 57.4472L63.7099 56.6999L63.8826 56.3213C64.0001 56.0722 64.1066 55.8144 64.2172 55.5599C64.2732 55.4354 64.3236 55.3042 64.376 55.1759L64.5324 54.7907C64.7318 54.273 64.9271 53.7528 65.1011 53.2276C65.192 52.9657 65.2751 52.7012 65.3595 52.4388C65.4029 52.3072 65.4414 52.1736 65.4823 52.0411C65.5233 51.9087 65.5642 51.7759 65.5994 51.6422L65.7112 51.2416C65.7485 51.1083 65.7816 50.9734 65.8172 50.8393C65.8889 50.5715 65.9515 50.2996 66.0179 50.0326C66.1432 49.4921 66.2563 48.9494 66.3573 48.4044C66.5575 47.3141 66.7032 46.2142 66.7938 45.109C66.888 44.0061 66.9153 42.8983 66.8757 41.792C66.8576 41.2382 66.822 40.6856 66.7737 40.1339C66.7254 39.5821 66.6591 39.0321 66.5809 38.4841C66.5027 37.9361 66.4101 37.3893 66.3 36.8471L66.1211 36.0359L66.0318 35.6303L65.9266 35.2289L65.7149 34.4256L65.4717 33.6318C65.4307 33.4998 65.3931 33.3661 65.3488 33.2354L65.0762 32.4507C65.0303 32.3204 64.9877 32.1884 64.9353 32.0605L64.6331 31.2867C64.5848 31.1571 64.5287 31.0305 64.4739 30.9035L64.1463 30.1404L63.7926 29.3932L63.7041 29.2051L63.61 29.0204C63.1153 28.0284 62.5686 27.064 61.9722 26.1313C61.3787 25.1949 60.7349 24.2923 60.0437 23.4275C58.6639 21.6851 57.09 20.1076 55.3843 18.6836Z" fill="black"/>
<path d="M65.735 32.9604C66.0445 34.3184 68.3828 44.9379 66.1219 52.2781C65.4819 54.3538 64.5349 56.4067 64.5349 56.4067C64.5349 56.4067 62.821 60.1211 60.1653 63.4456C59.8329 63.8607 59.9324 63.7021 58.8166 65.0132C58.4891 65.3997 58.132 65.8211 57.5531 66.279C57.3983 66.4035 57.2665 66.4965 57.174 66.5596L58.2356 67.213C57.9911 67.8405 57.6916 68.4445 57.3406 69.0177C57.2333 69.1934 57.1241 69.3607 57.013 69.5196C59.6671 67.3588 61.9788 64.7981 63.8675 61.927C63.6554 62.974 63.4432 64.021 63.2308 65.068L55.8449 71.4339L55.2913 69.4964C55.5157 69.3369 55.7462 69.1609 55.9796 68.967C56.5328 68.5064 57.0424 67.9946 57.5019 67.4381L55.2725 65.875L54.0061 65.3254L54.8479 64.4681L55.8449 65.3333L55.9702 65.6907C56.2679 65.3922 56.7518 64.9148 57.3623 64.3435C59.4914 62.3575 60.4192 61.8111 61.5226 60.3581C61.6897 60.1385 62.0549 59.6399 62.6826 58.5128C64.0006 56.1411 65.33 53.0291 65.9991 50.5303C68.045 42.8904 65.8819 33.572 65.735 32.9604Z" fill="black"/>
<path d="M44.4891 15.2237C44.2063 14.4312 43.7595 13.7093 43.1789 13.1064C42.5164 12.4198 41.6054 11.8498 41.0293 12.0337C40.9323 12.0648 40.9613 12.059 40.6653 12.1358C39.5598 12.4214 39.2454 12.2873 39.1373 12.2317C39.0034 12.1628 38.82 12.0266 38.8417 11.9203C38.8572 11.8431 38.9743 11.8165 39.0652 11.7779C39.297 11.68 39.4075 11.4873 39.6212 11.11C39.9742 10.4872 40.063 9.90978 40.1248 9.47927C40.1793 9.1019 40.1899 8.91135 40.1363 8.80465C39.7903 8.11592 37.9958 8.32806 37.296 8.41068C36.3134 8.5265 36.1709 8.6963 35.7062 8.55017C35.056 8.34591 34.6273 7.79086 34.2698 7.32756C33.9865 6.96057 33.8301 6.65751 33.5676 6.15767C33.2888 5.63373 33.0465 5.09063 32.8425 4.53237C32.3225 3.09305 32.2116 2.90955 32.1579 2.85683C32.1506 2.84956 32.1428 2.84277 32.1346 2.83649C30.9263 1.80734 19.5959 11.247 19.2167 12.986C18.9834 14.0575 19.3953 14.5075 19.3953 14.5075C19.5001 14.6227 19.6208 14.7219 19.7535 14.8023C22.7551 16.6377 23.7177 16.9872 23.7177 16.9872C27.6533 20.0294 31.0467 20.9926 33.4567 21.2956C36.6696 21.6996 38.4953 20.9776 41.2111 22.3268C44.7212 24.0705 45.3583 27.1069 46.3639 26.7785C48.043 26.2317 44.91 16.4737 44.4891 15.2237Z" fill="black"/>
<path d="M38.6914 23.4782C38.5695 23.6808 38.518 23.919 38.5454 24.1547C38.5727 24.3904 38.6771 24.6101 38.842 24.7785C39.1107 24.8915 39.3957 24.9597 39.6859 24.9802C39.8671 24.9031 40.0275 24.7833 40.1539 24.6307C40.3143 24.434 40.4123 24.1928 40.4352 23.9386C39.9236 23.5859 39.3076 23.4233 38.6914 23.4782Z" fill="#525252"/>
<path d="M34.1098 22.5514C34.0933 22.8317 33.9821 23.0976 33.7949 23.3045C33.6774 23.4303 33.5338 23.5282 33.3744 23.591C33.2085 23.5768 33.044 23.5478 32.8831 23.5042C32.7686 23.4734 32.6562 23.4353 32.5465 23.39C32.4229 23.2717 32.3289 23.1251 32.2726 22.9624C32.1342 22.5577 32.2878 22.2019 32.3275 22.1168C32.9542 22.0192 33.5936 22.1753 34.1077 22.5514H34.1098Z" fill="#525252"/>
<path d="M39.0845 23.7194C39.06 23.8053 38.9908 24.0461 39.1341 24.2346C39.1694 24.2815 39.2139 24.3204 39.2648 24.349C39.3156 24.3775 39.3718 24.3951 39.4297 24.4007C39.6463 24.4127 39.7871 24.2155 39.824 24.1644C39.9345 24.0096 39.9878 23.7796 39.8997 23.5778C39.8776 23.5264 39.806 23.3599 39.6365 23.3126C39.467 23.2652 39.3183 23.374 39.2819 23.401C39.182 23.4811 39.1124 23.5935 39.0845 23.7194Z" fill="black"/>
<path d="M33.4629 21.9879C33.6079 22.0892 33.6169 22.2835 33.6222 22.3985C33.6338 22.522 33.6087 22.6462 33.5501 22.7551C33.517 22.8141 33.4326 22.9627 33.2603 23.0009C33.1551 23.021 33.0463 22.999 32.9569 22.9395C32.7644 22.8025 32.7521 22.4986 32.8263 22.2976C32.8373 22.2665 32.9491 21.9738 33.2033 21.9344C33.2934 21.919 33.3859 21.9381 33.4629 21.9879Z" fill="black"/>
<path d="M39.0437 23.0139C38.8917 23.1395 38.7708 23.2995 38.6907 23.4809L38.2547 23.5486L37.9828 23.5901L38.011 23.1978C38.3215 23.0107 38.6888 22.9452 39.0437 23.0139Z" fill="#A9A9A9"/>
<path d="M40.4111 23.4556C40.4535 23.6105 40.4615 23.7729 40.4345 23.9313L40.9311 24.2564C41.0215 24.1363 41.09 24.0007 41.1334 23.8562C41.025 23.779 40.9125 23.708 40.7964 23.6432C40.6716 23.5733 40.543 23.5107 40.4111 23.4556Z" fill="#A9A9A9"/>
<path d="M34.0321 21.9893C34.0889 22.1732 34.1153 22.3654 34.1103 22.558C34.3239 22.6487 34.5137 22.7885 34.6647 22.9665L34.8117 22.558C34.5989 22.3104 34.3327 22.1157 34.0337 21.9893H34.0321Z" fill="#A9A9A9"/>
<path d="M32.6031 21.6665C32.5369 21.7351 32.4792 21.8117 32.4311 21.8944C32.3903 21.9648 32.3569 22.0394 32.3316 22.1169C32.2186 22.125 32.1015 22.1306 31.9803 22.134C31.9006 22.1362 31.8224 22.137 31.7457 22.1365L31.7699 21.6702L32.6031 21.6665Z" fill="#A9A9A9"/>
<path d="M36.0998 34.8041C35.7448 34.8207 35.4037 35.4488 35.5704 35.925C35.667 36.2027 35.952 36.4796 36.2226 36.4398C36.5723 36.3887 36.7958 35.8241 36.6816 35.3944C36.6067 35.1117 36.361 34.7912 36.0998 34.8041Z" fill="#DE2386"/>
<path d="M35.1949 32.2051L35.4876 32.2682C35.5589 32.8754 35.63 33.4829 35.701 34.0907C35.5461 34.1245 35.3951 34.1748 35.2506 34.2405C35.0372 34.3374 34.8397 34.4666 34.6647 34.6237C34.5283 34.6132 34.3932 34.5902 34.2609 34.5548C34.1299 34.5195 34.0023 34.4721 33.8798 34.4132L33.9395 32.5712C34.3859 32.5845 34.8252 32.4565 35.1965 32.2051H35.1949Z" fill="white"/>
<path d="M36.7507 32.6407L36.2917 34.0937C36.4127 34.1424 36.5263 34.2078 36.6295 34.288C36.7489 34.3812 36.8527 34.4933 36.9366 34.6202C37.275 34.6029 37.6064 34.5166 37.9111 34.3665C38.1207 33.9891 38.3615 33.5889 38.6428 33.1746C38.9593 32.7059 39.2774 32.2883 39.5845 31.9196V31.7793L39.2319 31.7947C39.1501 31.8586 39.0555 31.9238 38.9531 31.9889C38.8712 32.0408 38.7893 32.0873 38.714 32.1284L37.6282 33.7554L37.8005 32.2609C37.498 32.4929 37.1316 32.6235 36.7524 32.6345L36.7507 32.6407Z" fill="white"/>
<path d="M38.6915 23.4785L37.9836 23.5881C37.959 23.7827 37.9729 23.9803 38.0246 24.1693C38.0381 24.2186 38.0543 24.2671 38.0729 24.3146C38.1518 24.37 38.2336 24.4253 38.3185 24.4807C38.4987 24.5948 38.6743 24.6941 38.8418 24.7804C38.7153 24.638 38.6263 24.4655 38.583 24.2789C38.5246 24.0075 38.5631 23.7239 38.6915 23.4785Z" fill="white"/>
<path d="M40.4357 23.9312C40.4435 23.939 40.9323 24.2562 40.9323 24.2562L40.5053 24.9732L39.6864 24.9806C39.8878 24.8831 40.062 24.736 40.1929 24.5527C40.3237 24.3693 40.4072 24.1556 40.4357 23.9312Z" fill="white"/>
<path d="M39.7724 24.0148C39.7444 24.0257 39.7202 24.0447 39.7029 24.0694C39.6856 24.0942 39.6758 24.1236 39.6749 24.1539C39.6734 24.1817 39.6795 24.2093 39.6925 24.2338C39.7055 24.2582 39.7249 24.2786 39.7486 24.2926C39.78 24.308 39.8156 24.3122 39.8495 24.3043C39.8835 24.2965 39.9139 24.2771 39.9355 24.2495C39.9572 24.2218 39.9689 24.1874 39.9687 24.1521C39.9685 24.1168 39.9565 24.0825 39.9345 24.0551C39.9146 24.0327 39.8884 24.0169 39.8595 24.0097C39.8306 24.0025 39.8003 24.0043 39.7724 24.0148Z" fill="white"/>
<path d="M39.101 23.3238C39.0562 23.3485 39.0196 23.3861 38.996 23.432C38.9724 23.4778 38.9628 23.5298 38.9685 23.5812C38.9742 23.6326 38.9949 23.6811 39.0279 23.7205C39.0609 23.7599 39.1048 23.7884 39.1539 23.8024C39.203 23.8164 39.2551 23.8152 39.3035 23.799C39.352 23.7828 39.3946 23.7523 39.4258 23.7114C39.4571 23.6706 39.4756 23.6212 39.479 23.5696C39.4824 23.518 39.4705 23.4665 39.4449 23.4218C39.4114 23.3634 39.3567 23.3205 39.2925 23.3022C39.2283 23.2839 39.1596 23.2917 39.101 23.3238Z" fill="white"/>
<path d="M34.1098 22.5571C34.0931 22.7805 34.0152 22.9946 33.885 23.1755C33.7548 23.3565 33.5774 23.497 33.3728 23.5813H34.2326L34.6605 22.9656C34.5095 22.7877 34.3197 22.6478 34.1061 22.5571H34.1098Z" fill="white"/>
<path d="M31.7556 22.1445L32.3288 22.1167C32.2456 22.3287 32.222 22.56 32.2607 22.7847C32.2994 23.0095 32.3988 23.219 32.5479 23.39C32.2772 23.285 32.0239 23.1388 31.7966 22.9565L31.7556 22.1445Z" fill="white"/>
<path d="M32.771 21.9591C32.7224 21.9944 32.6875 22.0459 32.6725 22.1047C32.6576 22.1634 32.6634 22.2256 32.6891 22.2804C32.7075 22.3141 32.7327 22.3433 32.7633 22.3662C32.7938 22.389 32.8288 22.4049 32.8659 22.4128C32.903 22.4207 32.9413 22.4203 32.9783 22.4118C33.0153 22.4033 33.05 22.3868 33.0801 22.3634C33.1304 22.321 33.1626 22.2605 33.1698 22.1945C33.177 22.1286 33.1588 22.0624 33.1189 22.0098C33.079 21.9572 33.0206 21.9224 32.9558 21.9125C32.8911 21.9027 32.8252 21.9186 32.7718 21.957L32.771 21.9591Z" fill="white"/>
<path d="M33.3974 22.6816C33.3793 22.6967 33.3647 22.7157 33.3547 22.7373C33.3447 22.7588 33.3395 22.7823 33.3395 22.8061C33.3395 22.8299 33.3447 22.8534 33.3547 22.875C33.3647 22.8965 33.3793 22.9155 33.3974 22.9307C33.4154 22.9405 33.4353 22.9465 33.4557 22.9485C33.4761 22.9504 33.4967 22.9483 33.5163 22.9421C33.5359 22.9359 33.554 22.9258 33.5698 22.9125C33.5855 22.8991 33.5984 22.8827 33.6078 22.8642C33.6194 22.839 33.6236 22.811 33.6201 22.7834C33.6165 22.7559 33.6053 22.7299 33.5878 22.7086C33.5643 22.6819 33.5323 22.6646 33.4974 22.6597C33.4626 22.6547 33.4271 22.6625 33.3974 22.6816Z" fill="white"/>
<path d="M46.3193 39.6612C46.1948 39.8473 46.0329 40.0047 45.8443 40.1229C45.6556 40.2412 45.4444 40.3177 45.2245 40.3474L42.5971 40.4745C42.4599 40.5697 42.3287 40.6737 42.2045 40.7858C42.0172 40.9547 41.8458 41.1409 41.6927 41.3421L39.209 39.251L40.9872 41.9358C40.5728 42.0564 40.1376 42.0848 39.7114 42.0188C39.5157 41.8677 38.3676 41.0104 36.9317 41.3251C36.448 41.4337 35.9961 41.6555 35.6121 41.9727V39.9987L35.1039 42.0246C34.78 42.0504 34.4547 41.997 34.1553 41.8689C33.7966 41.7108 33.6136 41.4912 33.3503 41.252C32.9532 40.8943 32.5044 40.6003 32.0196 40.3802C31.139 40.3092 30.257 40.4995 29.4811 40.9278L30.996 39.048C31.3494 38.9283 31.7146 38.8481 32.0851 38.8089C32.8401 38.7292 33.4412 38.8404 34.0242 38.9529C34.3952 39.0244 34.7617 39.1177 35.122 39.2323C35.7048 39.3387 36.3055 39.2748 36.8539 39.048C37.22 39.1587 37.6066 39.181 37.9827 39.1132C38.2439 39.0653 38.4955 38.9741 38.7275 38.8433C38.9066 38.7542 39.0747 38.6438 39.2282 38.5146C39.5284 38.2605 39.6205 38.0579 39.9362 37.9176C40.0373 37.8738 40.1433 37.8429 40.2518 37.8254C40.6449 37.7494 40.9544 37.8229 41.3041 37.9005C42.2544 38.111 42.003 38.018 42.4329 38.1339C42.9394 38.2709 43.4189 38.4353 44.7446 38.9874C45.1459 39.1572 45.6839 39.3839 46.3193 39.6612Z" fill="white"/>
<path d="M30.7606 38.3282L27.4032 40.162C27.1384 39.6039 26.7126 39.1406 26.1823 38.8335C27.0601 38.5591 27.7283 38.3382 28.1427 38.1991C28.8555 37.96 29.2281 37.8255 29.7342 37.899C30.1052 37.9568 30.4572 38.104 30.7606 38.3282Z" fill="white"/>
<path d="M34.0402 37.0039C34.0153 37.1464 33.9902 37.2887 33.9648 37.4307C34.4475 37.8109 35.0278 38.0427 35.6366 38.0982C35.4136 37.7384 35.1902 37.3786 34.9663 37.0189L34.0402 37.0039Z" fill="white"/>
<path d="M39.7437 36.892C39.581 36.9469 39.4271 37.0259 39.2872 37.1266C39.0686 37.2847 38.9625 37.4437 38.6292 37.6779C38.5813 37.7119 38.5412 37.7381 38.5154 37.7551C38.3701 37.6563 38.219 37.5475 38.065 37.423C37.8581 37.2601 37.6594 37.0868 37.4697 36.9036L37.1725 36.9613C37.3063 37.2545 37.4188 37.5573 37.509 37.8672C37.5209 37.9087 37.5328 37.9502 37.5438 37.9917C37.3528 37.922 37.1861 37.797 37.0644 37.6322C36.9401 37.6382 36.8171 37.6601 36.6983 37.6974C36.5845 37.7334 36.4753 37.7832 36.3732 37.8456C36.0135 37.6629 35.687 37.4198 35.4073 37.1266C35.5462 37.1697 35.6905 37.1918 35.8356 37.1922C36.0329 37.1959 36.2285 37.1558 36.4088 37.0747C36.7859 36.8987 36.9632 36.5678 37.0201 36.4474C37.3447 36.4302 37.6595 36.3293 37.9348 36.1543C38.2022 36.2863 38.4917 36.4187 38.8033 36.5462C39.132 36.6824 39.4469 36.7957 39.7437 36.892Z" fill="white"/>
<path d="M57.0292 56.3198V58.1465L60.3538 60.7204L61.3529 59.1885L57.0292 56.3198Z" fill="white"/>
<path d="M59.4583 61.9628C59.1934 62.3053 58.908 62.657 58.6014 63.0144C58.2304 63.4462 57.8644 63.8447 57.5057 64.2138L57.1417 63.5869C57.2176 63.2102 57.1779 62.8191 57.0279 62.466C57.0232 62.2011 57.0201 61.9341 57.0185 61.6648C57.0144 61.052 57.0175 60.4491 57.0279 59.856L59.4583 61.9628Z" fill="white"/>
<path d="M16.0535 61.5103L15.1433 64.4761L16.3434 65.6293C16.4142 65.1727 16.4986 64.6973 16.5993 64.2071C16.7401 63.5225 16.8982 62.8786 17.0656 62.2733C16.8925 62.241 16.7268 62.1765 16.5768 62.0832C16.3548 61.9432 16.1741 61.7454 16.0535 61.5103Z" fill="white"/>
<path d="M15.6969 59.8953L13.6836 62.813L12.9213 61.8635C13.4591 60.5855 14.1703 59.39 15.0344 58.3115C15.1114 58.2152 15.1892 58.1214 15.2674 58.0288C15.2762 58.2814 15.3486 58.5275 15.4778 58.7437C15.5405 58.8473 15.616 58.9423 15.7026 59.0264C15.7004 59.3162 15.6985 59.6058 15.6969 59.8953Z" fill="white"/>
<path d="M37.7989 32.2671C37.4898 32.5039 37.1205 32.6464 36.7343 32.6777C36.591 33.1482 36.4478 33.6187 36.3048 34.0892" fill="white"/>
<path d="M36.0874 35.1027C36.1623 35.1567 36.1897 35.3431 36.1897 35.3431C36.2307 35.6312 36.2307 35.637 36.2409 35.6868C36.2662 35.7859 36.3086 35.8797 36.3662 35.9637C36.3957 35.9193 36.5709 35.6432 36.4772 35.3601C36.4563 35.2991 36.401 35.1347 36.2524 35.0778C36.2149 35.0635 36.1749 35.0569 36.1349 35.0583C36.0452 35.0662 36.0247 35.0708 36.0252 35.0737C36.0256 35.0766 36.0333 35.0762 36.0469 35.0807C36.0613 35.0861 36.0749 35.0935 36.0874 35.1027Z" fill="white"/>
<path d="M35.9072 35.2228C35.8323 35.2374 35.7922 35.3673 35.8041 35.4661C35.8147 35.5545 35.872 35.6641 35.9347 35.6621C35.9973 35.66 36.0456 35.5317 36.055 35.4545C36.06 35.4155 36.0702 35.3299 36.0141 35.2689C36.0009 35.2535 35.9844 35.2414 35.9659 35.2334C35.9474 35.2254 35.9273 35.2218 35.9072 35.2228Z" fill="white"/>
<path d="M38.802 24.0768C38.7947 24.0797 38.8045 24.1241 38.8131 24.1598C38.8305 24.2449 38.8551 24.3282 38.8868 24.4089C38.9421 24.538 39.0121 24.702 39.1713 24.7871C39.3593 24.8876 39.5615 24.8199 39.6422 24.7929C39.6422 24.7929 39.9026 24.7057 40.0926 24.3894C40.1024 24.3732 40.1311 24.3259 40.1237 24.3201C40.1163 24.3142 40.1114 24.3242 40.1094 24.3259C39.67 24.6385 39.3974 24.6011 39.3974 24.6011C39.1157 24.5625 38.8426 24.1378 38.8241 24.1029C38.8213 24.0992 38.8078 24.0747 38.802 24.0768Z" fill="#A9A9A9"/>
<path d="M32.4557 22.6309C32.4483 22.6334 32.4557 22.6783 32.4627 22.714C32.4753 22.7998 32.4954 22.8842 32.5228 22.9664C32.5712 23.098 32.6326 23.2653 32.7869 23.3591C32.9691 23.4691 33.1743 23.4127 33.2557 23.3898C33.2557 23.3898 33.5202 23.3168 33.7274 23.0112C33.7377 22.9954 33.7684 22.9498 33.7622 22.9435C33.7561 22.9373 33.7495 22.9473 33.7471 22.9485C33.293 23.2391 33.0236 23.1856 33.0236 23.1856C32.7448 23.132 32.4946 22.6932 32.4762 22.6579C32.4741 22.6542 32.4614 22.6293 32.4557 22.6309Z" fill="#A9A9A9"/>
<path d="M57.448 67.4345C57.195 67.7305 56.9186 68.0361 56.6177 68.3453C56.3909 68.5789 56.1672 68.7981 55.9466 69.0029L53.7422 67.393C54.0558 67.0858 54.3697 66.7764 54.6839 66.4647C54.8821 66.2682 55.0793 66.0721 55.2755 65.8765C55.4467 65.9803 55.6203 66.089 55.7947 66.2032C56.3696 66.5798 56.9217 66.991 57.448 67.4345Z" fill="white"/>
<path d="M38.5604 12.7445C39.2831 12.7784 40.0054 12.67 40.6874 12.4253C41.0633 12.4752 41.4292 12.5841 41.772 12.7483C42.0034 12.8715 42.2206 13.0204 42.4198 13.1921C42.9228 13.6156 43.3434 14.1306 43.66 14.7107C43.9335 15.2051 44.0637 15.6194 44.1718 15.9636C44.2647 16.2588 44.331 16.5274 44.4674 17.236C44.6013 17.9302 44.7065 18.4769 44.824 19.3006C44.9161 19.9453 44.9059 19.988 45.0856 21.4149C45.161 22.0119 45.2154 22.42 45.2298 22.5296C45.3378 23.3599 45.4807 24.9291 45.6449 28.1482C45.186 28.4111 44.6704 28.5556 44.1435 28.5691C44.0087 28.7062 43.8646 28.8335 43.7124 28.9502C43.5037 29.1077 43.2816 29.2459 43.0487 29.3633C42.814 29.4879 42.2064 29.7918 41.2668 30.0803C41.024 30.155 40.8217 30.209 40.6866 30.2439C40.8467 30.1891 41.0719 30.1077 41.3368 29.9977C41.7913 29.8092 42.2785 29.6078 42.8063 29.2363C43.0764 29.0466 43.3295 28.8331 43.5625 28.5982C43.583 28.5447 43.6129 28.4654 43.6477 28.3695C43.7942 27.9691 43.9195 27.5611 44.0231 27.1473C44.2217 26.3062 44.1832 25.287 44.1709 25.0234C44.1468 25.1479 44.1112 25.3248 44.0649 25.5402C43.9388 26.1268 43.8757 26.4203 43.773 26.7587C43.6501 27.1605 43.5273 27.5545 43.2526 28.0104C43.1398 28.1965 43.0133 28.3737 42.8742 28.5405L41.953 28.3678C42.0382 28.2677 42.1401 28.1411 42.2486 27.99C42.3753 27.8131 42.4921 27.6292 42.5987 27.4391C42.7502 27.1666 42.8822 26.8834 42.9938 26.5918C43.2042 26.0241 43.34 25.4307 43.3975 24.827C43.3791 24.937 43.3508 25.0902 43.3095 25.2712C43.2558 25.5041 43.0781 26.2609 42.7121 26.9521C42.2417 27.8406 41.5595 28.4334 41.1153 28.7597C41.1493 28.712 41.1972 28.6439 41.2549 28.5608C41.4836 28.2352 41.6933 27.8963 41.883 27.5458C42.0718 27.1779 42.2334 26.7963 42.3665 26.4041C42.7686 25.1927 42.7547 23.9664 42.7305 23.4375C42.7519 24.4844 42.5643 25.5248 42.179 26.4963C41.6271 27.8509 40.712 28.7576 40.1883 29.2097L39.4149 29.2903C39.4476 29.2616 39.4968 29.2184 39.5541 29.1657C39.6835 29.0503 39.905 28.8523 40.0454 28.719C40.2155 28.5599 40.377 28.3915 40.529 28.2146C40.7562 27.9403 40.9499 27.6392 41.1059 27.3179C41.3146 26.9008 41.475 26.4606 41.5837 26.006C41.8498 24.9553 41.8969 23.9469 41.8879 23.2353C41.9272 23.0709 41.9651 22.9056 42.0017 22.7392C42.5378 20.2975 42.7841 17.7995 42.7354 15.2985C42.7288 16.7174 42.5245 18.1281 42.1286 19.489L41.078 20.3982L40.2211 20.5481C40.6666 19.2822 40.9073 17.9517 40.9339 16.6079C40.8521 17.9932 40.4962 19.3475 39.8874 20.5904C39.731 20.6133 39.5676 20.6319 39.396 20.6502C39.188 20.6705 38.9866 20.6834 38.7983 20.6917C38.8081 20.4149 38.8182 20.1394 38.8286 19.8652L38.6021 20.6888C38.3677 20.6992 38.1329 20.6972 37.8987 20.683C37.6196 20.6662 37.3418 20.6323 37.0667 20.5813C37.1666 19.9107 37.2664 19.2405 37.366 18.5707L36.8202 20.512C36.4009 20.4215 35.9964 20.2714 35.6185 20.0661C35.6857 19.5865 35.7691 19.0917 35.8687 18.5819C36.1265 17.2736 36.4788 15.9862 36.9226 14.7302C37.2444 14.3981 37.5777 14.022 37.913 13.6056C38.1489 13.3104 38.3642 13.0227 38.5604 12.7445Z" fill="#525252"/>
<path d="M36.4231 15.2646L34.5397 16.9713L34.1475 18.5688C34.5377 19.1282 35.0117 19.6223 35.5523 20.0335C35.6332 19.0237 35.7775 18.0202 35.9842 17.029C36.1177 16.4022 36.2663 15.8135 36.4231 15.2646Z" fill="#525252"/>
<path d="M33.6184 17.7188L34.1507 17.292L34.0278 18.3838C33.9396 18.2672 33.8585 18.1452 33.785 18.0185C33.7241 17.9139 33.6685 17.8063 33.6184 17.6959" fill="#525252"/>
<path d="M31.043 20.7097C31.0385 20.7031 30.8207 20.8285 30.0383 21.3096C30.0145 21.3893 29.465 23.2998 29.7578 24.7524C29.8641 25.2552 30.0233 25.745 30.2328 26.2133C30.2847 26.3267 30.3777 26.5168 30.4907 26.7281C30.6324 26.9926 30.7638 27.2109 30.8662 27.3733C30.8023 27.1839 30.7179 26.9207 30.6303 26.604C30.5042 26.1515 30.3273 25.5138 30.2446 24.7848C30.2098 24.4768 30.1742 23.3476 30.3814 22.2283C30.3814 22.2283 30.4825 21.8476 30.9501 20.8426C30.9638 20.8133 30.9802 20.7855 30.9992 20.7595C31.0254 20.7255 31.0443 20.7122 31.043 20.7097Z" fill="#525252"/>
<path d="M38.5001 22.5643L36.1229 22.3281L35.546 23.931" fill="#525252"/>
<path d="M37.766 23.0401C37.8894 22.9282 38.0226 22.8278 38.164 22.7404C38.2779 22.67 38.3968 22.6084 38.5198 22.556L36.1225 22.3281L35.5452 23.931L35.0874 22.5934C34.9493 23.0549 34.692 23.4705 34.3422 23.7973C33.9251 23.885 33.4946 23.8856 33.0772 23.7994C32.6597 23.7131 32.2639 23.5416 31.9138 23.2954C31.8074 23.2626 31.6682 23.2402 31.5454 23.3033C31.1769 23.4922 31.2198 24.3121 31.3369 25.3409C31.4319 26.1765 31.592 27.3016 31.8766 28.6454L34.4372 31.4464C35.9557 31.3205 37.4446 30.9497 38.8477 30.348L39.4394 29.6385C39.2046 29.6282 38.961 29.6109 38.7085 29.5866C38.5349 29.57 38.3662 29.5505 38.2025 29.5293C38.376 29.4818 38.5438 29.415 38.7028 29.33C38.8174 29.2689 38.9269 29.1985 39.0303 29.1195L38.2569 28.941C38.977 28.5607 39.591 28.0026 40.0422 27.3183C40.4934 26.6339 40.7674 25.8454 40.8388 25.0253C40.7596 25.067 40.6775 25.1026 40.5932 25.132C40.1019 25.3056 39.6662 25.2209 39.3505 25.1553C38.8139 25.0395 38.3073 24.8106 37.8634 24.4836C37.7192 24.0165 37.6861 23.5214 37.7668 23.0389L37.766 23.0401Z" fill="#525252"/>
<path d="M44.9231 33.3135C45.317 34.0753 45.923 35.2431 46.6718 36.6762C47.842 38.9151 48.0639 39.3182 48.1868 39.5324C49.2104 41.3673 50.1111 42.6742 50.9791 43.9247C51.9651 45.3465 53.2605 47.0997 54.8897 49.0393C55.2446 48.9968 55.6041 49.0568 55.9268 49.2124C56.6794 49.586 56.9095 50.386 56.9734 50.6135C57.0847 51.0033 57.045 51.2146 57.0245 52.0956C57.0078 52.8092 57.0172 53.3929 57.0282 53.7832C57.8544 54.8414 58.75 55.842 59.7088 56.778C60.3967 57.4498 61.0739 58.0459 61.7221 58.5731L62.4443 57.27C61.8335 56.8269 61.2861 56.3004 60.8176 55.7053C60.5752 55.3973 60.4618 55.2071 60.2604 54.9211C59.7263 54.1677 59.1116 53.4767 58.4273 52.8607C59.7786 54.1748 61.2852 55.314 62.9127 56.2525C63.0435 55.9544 63.1742 55.6565 63.305 55.3587C59.5573 52.0341 56.9291 49.2381 55.2918 47.3837C53.8248 45.7231 52.4965 44.0724 52.0273 43.4854C51.2047 42.4567 50.1689 41.1565 48.8939 39.3626C47.8977 37.9615 47.1423 36.8032 46.5903 35.9546C45.9127 34.9101 45.3477 34.008 44.9231 33.3135Z" fill="#525252"/>
<path d="M52.0105 46.835L53.6786 49.2428L54.2968 49.1274C54.2968 49.1274 53.1745 47.4705 53.1213 47.4286C53.0681 47.3867 52.0105 46.835 52.0105 46.835Z" fill="#525252"/>
<path d="M51.7976 49.6078C51.6213 49.6385 51.4568 49.7183 51.3227 49.8382C50.8087 49.7438 50.2798 49.7775 49.7815 49.9362L49.9662 48.6592C49.8978 48.5737 49.8 48.4467 49.6915 48.2856C49.438 47.9119 49.1702 47.4304 48.7551 46.2327C48.6097 45.8138 48.5184 45.5149 48.3493 44.9602C48.1446 44.2848 47.9833 43.7231 47.8739 43.3316L46.7038 44.0262L40.3681 45.8557L40.6878 48.7439C40.4081 48.2225 40.0802 47.7291 39.7085 47.2705C39.3262 46.803 38.9023 46.3722 38.4421 45.9836C37.8843 45.5052 37.2883 45.0747 36.6602 44.6966C36.0083 44.3012 35.3259 43.9602 34.6195 43.677C34.9664 43.5417 35.3221 43.4307 35.6841 43.3449C35.8814 43.298 36.0714 43.2619 36.2524 43.2316C36.3171 43.2253 36.3822 43.2195 36.4481 43.2145C36.9374 43.1758 37.4285 43.1676 37.9188 43.1901L39.4849 43.1772L39.5046 43.0942C39.7519 43.1342 40.0021 43.1528 40.2526 43.1498C40.5018 43.1546 40.7506 43.1289 40.9937 43.073C41.2972 42.9972 41.585 42.8671 41.8433 42.6886C42.0493 42.2922 42.3331 41.9428 42.6773 41.6619L45.077 41.5236C45.4786 41.3869 45.8354 41.1409 46.1084 40.8125L47.4354 41.5008L51.7976 49.6078Z" fill="#525252"/>
<path d="M45.6027 31.2666L45.2502 31.5435L45.1593 31.7096C46.827 34.4641 49.6198 38.88 52.9547 43.2009C53.828 44.3321 55.1771 46.0239 56.9373 47.9709C58.7347 49.957 60.0011 51.1459 60.7991 51.8646C61.3457 52.3565 61.8162 52.7571 62.1593 53.044C61.4804 52.2287 60.9105 51.5706 60.5146 51.1194C59.2044 49.6278 58.4764 48.888 57.4118 47.5105C57.0773 47.0779 56.8124 46.7151 56.6417 46.4772C56.8587 46.6968 57.1903 47.031 57.5965 47.4354C59.0099 48.8427 60.0888 49.9167 61.3605 51.053C62.0013 51.6254 62.9262 52.4229 64.0976 53.3392L64.3592 52.4802C63.5019 51.8417 62.3292 50.9284 60.9961 49.7565C58.9931 47.9958 57.6092 46.515 56.3571 45.1682C54.4802 43.149 53.1635 41.5332 52.2967 40.4688C51.4819 39.4666 49.9489 37.5424 48.1392 34.9963C47.116 33.559 46.2652 32.2862 45.6027 31.2666Z" fill="#525252"/>
<path d="M40.5831 37.4316V37.1472C40.1249 37.1007 39.8133 37.1979 39.6127 37.2971C39.1971 37.5047 39.0992 37.7928 38.6497 38.0547C38.3825 38.2076 38.0866 38.3018 37.7812 38.3312V38.6633C38.1968 38.6924 38.4773 38.6007 38.6505 38.521C39.2016 38.2656 39.3109 37.8152 39.8854 37.5661C40.1063 37.4731 40.3438 37.4273 40.5831 37.4316Z" fill="#525252"/>
<path d="M36.9267 37.9092L36.8448 38.3073C36.7286 38.3056 36.6131 38.3244 36.5033 38.3629C36.315 38.4302 36.2409 38.5248 35.9972 38.6357C35.9221 38.6703 35.8449 38.6998 35.7659 38.7241L35.7585 38.3169C35.8891 38.32 36.0191 38.2977 36.1414 38.2513C36.3158 38.1844 36.3776 38.101 36.566 38.015C36.6811 37.9628 36.803 37.9271 36.9279 37.9092" fill="#525252"/>
<path d="M33.9623 37.627L33.8804 38.0728C33.3701 38.3121 32.8057 38.4079 32.2463 38.3501L32.3282 37.9009C32.8887 37.9688 33.4567 37.8738 33.966 37.627" fill="#525252"/>
<path d="M33.4259 36.7051L32.9412 37.7376C33.3022 37.7438 33.657 37.6418 33.9611 37.4445C33.9836 37.3012 34.0065 37.158 34.029 37.0148L34.9646 37.0177L35.6242 38.0971C35.759 38.1193 35.8972 38.1083 36.0269 38.0649C36.1566 38.0216 36.2741 37.9471 36.3694 37.848C36.2625 37.7845 36.152 37.7147 36.0394 37.6375C35.8244 37.4898 35.6193 37.328 35.4252 37.153L35.7892 37.1763C35.6799 37.1523 35.5746 37.1124 35.4764 37.058C35.3517 36.9888 35.2406 36.8969 35.1489 36.7869C34.8324 36.8024 34.5153 36.8015 34.199 36.784C33.9226 36.7686 33.6642 36.7424 33.4255 36.708" fill="#525252"/>
<path d="M37.459 36.9043L37.1691 36.962L37.5519 37.9924C37.7174 38.0457 37.894 38.0527 38.0631 38.0127C38.2323 37.9728 38.3876 37.8873 38.5129 37.7653C38.3294 37.6269 38.1424 37.4797 37.9519 37.3236C37.7805 37.1824 37.6162 37.0427 37.459 36.9043Z" fill="#525252"/>
<path d="M36.9759 35.4808C36.8997 34.8651 36.5415 34.4014 36.1161 34.3325C35.8446 34.2872 35.6161 34.413 35.5531 34.4479C35.0327 34.7339 34.977 35.3927 34.9672 35.5061C34.9475 35.7857 35.0025 36.0655 35.1264 36.316C35.1903 36.4439 35.2714 36.6066 35.4507 36.737C35.4843 36.7615 35.8106 36.9919 36.2012 36.8956C36.5726 36.8038 36.8596 36.4522 36.9087 36.0163L36.8915 36.0844C36.8594 36.188 36.8117 36.286 36.7503 36.375C36.7093 36.4343 36.4538 36.7901 36.1046 36.8018C35.6984 36.8155 35.3963 36.3567 35.2886 36.0491C35.2232 35.8584 35.2048 35.6544 35.2351 35.4549C35.2653 35.2554 35.3433 35.0665 35.4622 34.9045C35.5441 34.7953 35.741 34.5309 36.062 34.5122C36.3961 34.4923 36.6303 34.7505 36.7048 34.8323C36.8637 35.0119 36.9591 35.2401 36.9759 35.4808Z" fill="#525252"/>
<path d="M38.7324 32.1221L37.5859 33.8578L37.7993 32.2661C37.9241 32.2885 38.0513 32.2944 38.1776 32.2836C38.3711 32.2669 38.5596 32.2121 38.7324 32.1221Z" fill="#525252"/>
<path d="M36.7343 32.7031L36.3048 34.0901C36.2382 34.0635 36.1684 34.0461 36.0972 34.0382C35.9633 34.0234 35.8279 34.0412 35.7021 34.0901C35.6308 33.4812 35.5597 32.8737 35.4888 32.2676C35.9233 32.348 36.3433 32.4948 36.7343 32.7031Z" fill="#525252"/>
<path d="M33.9419 32.583C33.7544 32.5585 33.5709 32.5091 33.3961 32.436C33.2168 33.1434 33.0376 33.8509 32.8585 34.5583C33.1181 34.6243 33.4043 34.6828 33.7143 34.731C34.0995 34.789 34.4881 34.8208 34.8775 34.826C34.9852 34.6052 35.1455 34.415 35.3438 34.2726C35.454 34.1943 35.5746 34.1322 35.7021 34.0883C35.5016 34.0969 35.3052 34.1489 35.1262 34.2408C34.9471 34.3328 34.7896 34.4625 34.6642 34.6214C34.3948 34.5853 34.131 34.5146 33.8793 34.4109L33.9419 32.583Z" fill="#525252"/>
<path d="M31.1617 31.769C31.4733 32.0559 31.7464 32.1501 31.9438 32.1813C32.1477 32.2047 32.3527 32.2162 32.5579 32.2157L32.4781 34.4791L31.8156 34.2686L31.1617 31.769Z" fill="#525252"/>
<path d="M26.5842 43.1277C26.6235 43.3418 26.6488 43.5582 26.6599 43.7757C26.6755 44.0719 26.6651 44.369 26.6288 44.6633C24.1698 47.359 22.1987 50.4733 20.8062 53.863L19.7981 53.6226C19.6789 53.3757 19.5741 53.1219 19.4845 52.8625C19.3426 52.4538 19.2382 52.0327 19.1725 51.6046L24.365 42.084C25.026 42.5823 25.7809 42.9376 26.583 43.1277" fill="#525252"/>
<path d="M17.0655 55.6652L16.3093 55.084C16.0886 55.3306 15.7647 55.6806 15.3536 56.0803C14.927 56.4955 14.5794 56.8002 14.2961 57.0435C13.1263 58.0477 11.7407 59.1587 11.299 59.5115L11.6457 60.0649L15.7463 56.1725L12.1973 60.8724L12.9212 61.8642C14.0344 59.9416 14.6506 58.9581 15.0142 58.416C15.0777 58.3213 15.1166 58.2059 15.2017 58.1308C15.2339 58.1051 15.2569 58.0695 15.2673 58.0295C15.2707 58.0134 15.2717 57.9969 15.2701 57.9805C15.2636 57.9078 15.3111 57.4262 15.4065 57.124C15.5747 56.598 16.0075 56.2663 16.1435 56.1692C16.3887 55.9958 16.668 55.8784 16.9623 55.825L17.0655 55.6652Z" fill="#525252"/>
<path d="M13.6836 62.8137L15.151 64.4282L16.0518 61.5105C15.9279 61.3355 15.8313 61.1423 15.7652 60.9376C15.6608 60.6059 15.6372 60.2535 15.6964 59.9105L15.6931 59.896C15.3496 60.3178 14.9946 60.7852 14.6392 61.2992C14.2802 61.8244 13.962 62.3325 13.6836 62.8137Z" fill="#525252"/>
<path d="M57.0291 58.1465V59.8527L59.457 61.9285L60.3537 60.7204L57.0291 58.1465Z" fill="#525252"/>
<path d="M25.1307 48.8027C24.7421 50.066 24.3732 51.3982 24.0366 52.7977C23.8895 53.408 23.753 54.0087 23.6272 54.5999L24.1279 54.5035C24.207 53.9746 24.306 53.4242 24.4293 52.8546C24.7048 51.5824 25.0755 50.3334 25.5381 49.1183L25.1286 48.8031" fill="#525252"/>
<path d="M45.9549 40.4624C45.7359 40.8055 45.4094 41.0639 45.0279 41.196C44.6905 41.1885 44.3372 41.1897 43.9699 41.2018C43.47 41.218 42.9971 41.2528 42.5537 41.2998C42.1613 41.6176 41.8331 42.0092 41.587 42.453C40.9813 42.7629 40.295 42.8718 39.6249 42.7644C39.0585 42.3398 38.3772 42.1018 37.673 42.0826C36.9689 42.0634 36.2759 42.2638 35.6877 42.6569V42.113C35.9596 41.9055 36.6553 41.4318 37.5605 41.4729C38.1808 41.5007 38.707 41.7606 38.9424 41.8764C39.1677 41.9875 39.3829 42.1188 39.5852 42.2687C39.8401 42.3281 40.1028 42.3456 40.3632 42.3206C40.5449 42.3028 41.0829 42.2434 41.5505 41.8639C41.7598 41.695 41.7364 41.6389 42.0906 41.2931C42.2758 41.1124 42.4715 40.943 42.6765 40.7858C43.183 40.7354 43.6923 40.72 44.2008 40.7397C44.4739 40.7505 44.7499 40.7729 45.1278 40.7107C45.4127 40.6637 45.6906 40.5802 45.9549 40.4624Z" fill="#525252"/>
<path d="M39.1949 39.2334L40.9695 41.9397C41.2657 41.8158 41.5171 41.6025 41.6897 41.3287L39.1949 39.2334Z" fill="#525252"/>
<path d="M35.6083 40.0015L35.1002 42.0274C35.175 42.031 35.2499 42.0285 35.3242 42.0199C35.421 42.0085 35.5162 41.9865 35.6083 41.9543V40.0015Z" fill="#525252"/>
<path d="M38.7774 38.785C38.5225 38.9114 38.2423 38.977 37.9585 38.9768C37.5402 38.9714 37.1352 38.827 36.8055 38.5658C36.7605 38.5724 36.7146 38.5811 36.6675 38.5919C36.3902 38.6569 36.13 38.7818 35.9048 38.9581C35.5318 38.9902 35.1563 38.9473 34.7998 38.8318C34.4433 38.7163 34.1128 38.5305 33.8273 38.2851C33.3837 38.5589 32.8624 38.6739 32.3467 38.6119C31.4324 38.4956 30.9174 37.853 30.8166 37.7222C30.3895 37.6509 29.955 37.636 29.524 37.6778L29.1731 37.52L25.5656 38.5218L26.1797 38.8448C26.7304 38.6758 27.1734 38.5272 27.4785 38.4217C27.806 38.3084 28.0169 38.2299 28.3837 38.1153C28.9283 37.9443 29.2006 37.8588 29.3951 37.8472C29.6526 37.831 30.1398 37.865 30.7597 38.3275L27.4023 40.1612C27.6701 40.4347 27.9931 40.6461 28.3492 40.7809C28.7054 40.9156 29.086 40.9705 29.4651 40.9417C29.9758 40.3112 30.4866 39.6807 30.9976 39.0503C31.2589 38.9485 31.5299 38.8743 31.8063 38.829C32.2513 38.7563 32.5912 38.7787 32.9527 38.8024C33.3594 38.8307 33.7634 38.8908 34.161 38.9822C34.4353 39.0428 34.6375 39.098 34.6375 39.098C34.8742 39.1623 34.9311 39.1885 35.0797 39.2225C35.2589 39.2607 35.4412 39.2816 35.6243 39.2852C35.9461 39.291 36.2669 39.2459 36.575 39.1515C36.6938 39.1154 36.7896 39.0781 36.8543 39.0515C37.1735 39.1604 37.5133 39.1931 37.847 39.1471C38.1808 39.101 38.4996 38.9776 38.7786 38.7862L38.7774 38.785Z" fill="#525252"/>
<path d="M35.7705 28.4733L36.1021 28.2831L34.7072 27.8447L34.4435 27.8792L34.8816 28.2927L35.7705 28.4733Z" fill="white"/>
<path d="M34.6503 25.6072C34.9491 25.9208 35.293 26.1867 35.6702 26.396C35.8349 26.3855 35.9989 26.3662 36.1616 26.3383C36.3971 26.2977 36.6291 26.2386 36.8556 26.1614C36.5512 25.9091 36.1952 25.7286 35.8136 25.6329C35.4319 25.5371 35.034 25.5287 34.6487 25.608L34.6503 25.6072Z" fill="black"/>
<path d="M33.4916 27.7135C33.8998 27.3755 34.3801 27.1386 34.8943 27.0215C35.0284 27.081 35.1448 27.1752 35.2317 27.2947C35.2831 27.3659 35.3227 27.4451 35.3492 27.5292C35.4558 27.4457 35.5767 27.3831 35.7058 27.3445C35.7849 27.3215 35.8662 27.3076 35.9482 27.303C36.1077 27.4419 36.2548 27.5947 36.388 27.7596C36.5893 28.0094 36.7576 28.2848 36.8887 28.5787L35.9368 28.3018C35.4905 28.0872 35.0081 27.9604 34.5152 27.9282L33.4916 27.7127" fill="black"/>
<path d="M39.1418 14.228C39.1939 15.8937 38.8886 17.5509 38.2472 19.0853C38.3389 18.2745 38.465 17.4101 38.6358 16.5018C38.7877 15.6977 38.9604 14.9383 39.1418 14.228Z" fill="#262626"/>
<path d="M43.7112 17.4668C43.6936 18.2701 43.7112 19.1473 43.7776 20.0864C43.8544 21.1366 43.9911 22.1815 44.187 23.2158C44.2456 21.2873 44.086 19.3584 43.7112 17.4668Z" fill="#262626"/>
<path d="M43.3645 18.5947C43.4158 19.469 43.4473 20.3919 43.4448 21.3588C43.4448 22.4743 43.4034 23.5317 43.3356 24.5247C43.262 23.5516 43.221 22.4967 43.2322 21.3696C43.2421 20.3865 43.2905 19.4591 43.3645 18.5947Z" fill="#262626"/>
<path d="M42.6508 18.3145C42.5666 19.3266 42.2062 20.2951 41.61 21.1113C41.6569 21.3778 41.7005 21.6527 41.7406 21.9358C41.8016 22.3688 41.8479 22.7864 41.8827 23.187C42.0415 22.436 42.1893 21.6452 42.3208 20.8174C42.4588 19.9485 42.5668 19.1111 42.6508 18.3145Z" fill="#262626"/>
<path d="M42.1062 19.4907C41.9368 20.027 41.6418 20.5138 41.2464 20.9093L40.0066 21.0965C40.0746 20.9114 40.1428 20.7259 40.2113 20.5402L41.0527 20.3903C41.1559 20.3073 41.2592 20.2218 41.3627 20.1338C41.6182 19.9193 41.866 19.7049 42.1062 19.4907Z" fill="#262626"/>
<path d="M38.7533 21.1403L39.6434 21.0972L39.8825 20.5981L38.7848 20.6791L38.7533 21.1403Z" fill="#262626"/>
<path d="M37.0742 20.5718L36.9948 21.0102C37.2363 21.0542 37.5016 21.0907 37.7882 21.114C38.0069 21.1314 38.2141 21.1393 38.4081 21.1401C38.4674 20.9909 38.527 20.8419 38.5871 20.693C38.0792 20.71 37.5711 20.6693 37.0721 20.5718H37.0742Z" fill="#262626"/>
<path d="M35.6084 20.0586L35.5458 20.7162C35.7059 20.7706 35.8827 20.8229 36.0748 20.869C36.2828 20.9188 36.4781 20.952 36.6574 20.9786C36.7098 20.825 36.762 20.6716 36.8138 20.5186C36.3925 20.4243 35.9865 20.2694 35.6084 20.0586Z" fill="#262626"/>
<path d="M41.5493 23.2446C41.3888 23.069 40.7648 22.4284 39.7691 22.347C39.3349 22.3134 38.8991 22.388 38.4998 22.5641C38.1039 22.5604 37.6732 22.5384 37.2125 22.4894C36.8232 22.4479 36.4592 22.3919 36.1226 22.3279L35.5453 23.9308C35.4757 23.6933 35.3975 23.4467 35.3095 23.1927C35.2371 22.9845 35.1631 22.7847 35.0875 22.5932C35.002 22.3827 34.534 21.288 33.4498 20.921C32.9326 20.7454 32.4262 20.7881 32.282 20.8018C31.902 20.8375 31.5317 20.9444 31.1901 21.1169L32.452 19.6465C35.0729 21.3339 38.2442 21.9057 41.2783 21.2382C41.4518 21.8927 41.5436 22.5668 41.5514 23.2446H41.5493Z" fill="#262626"/>
<path d="M41.4921 24.5249C41.3017 24.7266 41.0805 24.896 40.837 25.0264C40.7569 25.8417 40.4805 26.6246 40.0323 27.3063C39.584 27.988 38.9776 28.5477 38.2661 28.9363L39.0441 29.1206C39.7929 28.6174 40.4078 27.9348 40.8344 27.1332C41.2609 26.3316 41.486 25.4357 41.4896 24.5249H41.4921Z" fill="#262626"/>
<path d="M31.8907 23.2812C31.8337 23.2478 31.779 23.2107 31.7269 23.1699C31.1271 22.6996 31.0235 21.89 31.0026 21.5015C30.9179 21.7132 30.8445 21.9294 30.7827 22.1491C30.2136 24.1808 30.7975 26.0569 31.0841 26.9411C31.2072 27.3192 31.3509 27.6901 31.5144 28.0521C31.3909 28.0324 31.2696 28.0003 31.1525 27.9562C30.9777 27.89 30.8135 27.7979 30.6652 27.683L31.0898 29.0825C32.4512 30.1133 33.2128 30.6455 33.6283 30.9257C33.9059 31.1125 34.4145 31.4455 34.4227 31.433C34.4227 31.433 34.4157 31.4247 34.3887 31.3965C34.3617 31.3683 34.3314 31.3347 34.283 31.2786C34.2122 31.1956 34.1549 31.125 34.1516 31.1209C34.0869 31.0378 33.5235 30.4242 31.8751 28.6466C31.8256 28.3427 31.7605 27.9408 31.6843 27.4717C31.6254 27.1064 31.4927 26.2802 31.3736 25.3034C31.22 24.0459 31.2225 23.6295 31.487 23.4157C31.6039 23.3283 31.7454 23.2812 31.8907 23.2812Z" fill="#262626"/>
<path d="M36.8858 28.5804L35.9338 28.3035C35.6856 28.3764 35.4226 28.3801 35.1725 28.3144C34.9224 28.2486 34.6943 28.1158 34.5123 27.9299L33.4886 27.6953C33.5641 28.0573 33.7378 28.3907 33.9902 28.6579C34.2426 28.9251 34.5636 29.1154 34.917 29.2073C35.2705 29.2993 35.6422 29.2893 35.9903 29.1783C36.3384 29.0674 36.649 28.86 36.887 28.5796L36.8858 28.5804Z" fill="#262626"/>
<path d="M44.1698 25.0093C44.0551 25.6699 43.8936 26.3213 43.6866 26.9584C43.5302 27.4321 43.3775 27.7945 43.1261 28.1748C43.0458 28.2965 42.9594 28.414 42.8673 28.5268L41.969 28.3537C41.5389 28.8358 41.0113 29.2181 40.4222 29.4746C40.6166 29.4522 40.825 29.419 41.0449 29.3708C41.4598 29.2794 41.8645 29.146 42.2532 28.9727C41.811 29.2803 41.3164 29.5954 40.769 29.903C40.3329 30.148 39.912 30.3597 39.512 30.5469C40.0566 30.554 40.6006 30.5082 41.1366 30.4104C42.1857 30.2169 43.1907 29.8294 44.1014 29.267L44.7897 29.1977C45.1717 28.9891 45.4755 28.6588 45.654 28.2578L45.6372 28.1627C45.1699 28.4068 44.6553 28.5435 44.1301 28.5634C43.8166 28.8625 43.4691 29.1229 43.095 29.3389C42.7048 29.5639 42.3834 29.6838 42.0427 29.8109C41.6318 29.9642 41.2113 30.09 40.7841 30.1874C41.5887 29.9831 42.342 29.6095 42.9951 29.091C43.2143 28.9153 43.4205 28.7236 43.6121 28.5173C44.0984 27.4186 44.2906 26.2093 44.1694 25.0114L44.1698 25.0093Z" fill="#262626"/>
<path d="M32.3861 18.645L32.2915 19.3254C32.0839 19.471 31.8897 19.6354 31.7114 19.8166C31.4499 20.0825 31.2243 20.3824 31.0403 20.7083L30.0355 21.2895C30.1315 20.9785 30.2533 20.6763 30.3995 20.3861C30.5028 20.1807 30.6179 19.9817 30.7443 19.79L32.3861 18.645Z" fill="#262626"/>
<path d="M27.0756 23.2623C27.0269 23.7044 26.9605 24.1723 26.8709 24.6617C26.743 25.3572 26.5778 26.045 26.3759 26.7221C26.5513 26.8043 26.7323 26.8737 26.9175 26.9297C27.0518 26.9712 27.1792 27.0003 27.2971 27.0231C27.4979 27.6521 27.8258 28.2317 28.2597 28.7252C28.0812 28.206 27.9025 27.6866 27.7237 27.1671L28.0763 27.2535C28.0546 26.877 28.0406 26.4855 28.0353 26.0799C28.0284 25.3928 28.0505 24.7427 28.0922 24.1337C28.1569 24.4517 28.2328 24.7795 28.3199 25.1171C28.5271 25.9153 28.787 26.6983 29.0978 27.4611L30.275 27.3976C29.719 26.8464 29.2876 26.1795 29.0107 25.4428C28.7338 24.7061 28.618 23.9172 28.6712 23.1307C28.6947 23.887 28.8729 24.6302 29.1944 25.3131C29.3063 25.5483 29.4353 25.7747 29.5801 25.9906C29.4529 25.6426 29.3496 25.2862 29.271 24.9237C29.0984 24.1233 29.0457 23.301 29.1146 22.4847C29.0883 22.9762 29.1141 23.4692 29.1916 23.9551C29.3118 24.6092 29.5094 25.2462 29.7799 25.8524C29.9179 26.1567 30.0666 26.4083 30.0899 26.4518C30.1766 26.608 30.2746 26.7575 30.3831 26.899C30.5245 27.0785 30.6867 27.2402 30.8662 27.3805C30.4039 26.6851 30.0572 25.9176 29.8397 25.1084C29.5238 23.9143 29.4936 22.661 29.7517 21.4526L27.7508 22.8056C27.6562 23.283 27.5436 23.7833 27.4093 24.303C27.2635 24.8668 27.1067 25.3982 26.9446 25.8964C27.0447 25.4242 27.1415 24.9417 27.2349 24.4488C27.3296 23.9481 27.4168 23.4561 27.4965 22.9729L27.0756 23.2623Z" fill="#262626"/>
<path d="M37.7988 31.1338C37.4009 31.2558 36.964 31.37 36.4911 31.4659C36.2237 31.519 35.9654 31.5622 35.7177 31.5967C35.8844 31.7821 36.0512 31.9678 36.218 32.1538L36.758 32.3925C37.1103 32.3424 37.439 32.184 37.6998 31.9388L37.798 31.9695L37.7988 31.1338Z" fill="#262626"/>
<path d="M64.0973 53.3398C62.9448 52.4303 61.965 51.5929 61.1682 50.8834C60.0717 49.9066 59.5231 49.4184 58.9392 48.8019C58.5072 48.3452 58.0487 47.8885 57.1311 46.9711C57.1311 46.9711 56.8101 46.6502 56.8035 46.6589C56.8128 46.6744 56.8229 46.6894 56.8338 46.7037C56.84 46.7124 56.8457 46.7216 56.8777 46.7722L56.9059 46.8175C56.9059 46.8175 56.9313 46.859 56.9681 46.9113C57.005 46.9636 57.2625 47.3111 57.6232 47.7889C57.7768 47.9844 57.9099 48.1522 58.0184 48.2871C58.0949 48.3855 58.1932 48.5096 58.334 48.6806C58.5768 48.9754 58.7742 49.2054 58.9523 49.4109C59.6172 50.1802 60.1716 50.7937 60.2944 50.9295C61.0011 51.7108 61.2095 51.9175 61.7521 52.5486C61.9383 52.7653 62.0898 52.9455 62.1918 53.0679C60.4677 51.6282 58.839 50.075 57.3162 48.4183C56.2926 47.3048 55.4774 46.3131 54.6659 45.3275C53.1169 43.4465 51.9885 41.9428 51.5541 41.3603C49.4086 38.4759 47.9199 36.1436 47.0388 34.7595C46.2559 33.5282 45.6201 32.4787 45.1619 31.709C45.0681 31.8784 45.0202 31.9444 44.9936 31.9718C44.9732 31.9934 44.9564 32.0187 44.9371 32.0415C44.9179 32.0644 44.9076 32.076 44.906 32.0955C44.9059 32.1136 44.9119 32.1312 44.9232 32.1453C44.942 32.1756 44.9539 32.2101 44.9744 32.2395C44.9863 32.257 44.9953 32.2773 45.0227 32.3305C45.2184 32.7087 45.514 33.1678 45.514 33.1678C45.7187 33.492 46.2989 34.4456 47.1256 35.8148C48.272 37.5912 49.3169 39.0903 50.1833 40.2864C50.4576 40.665 51.4116 41.9773 52.7329 43.659C52.9785 43.97 53.4027 44.5117 53.9481 45.1793C54.7891 46.208 55.9441 47.6162 57.588 49.3656C58.8266 50.6841 59.8961 51.7212 61.0228 52.8139C61.9932 53.7546 62.8158 54.5272 63.4058 55.0743L64.0973 53.3398Z" fill="#262626"/>
<path d="M44.4809 32.541C44.3172 32.6979 44.1378 32.8582 43.945 33.0197C43.8052 33.1368 43.6679 33.2462 43.5331 33.3481C44.2663 35.2497 44.9993 37.1514 45.7322 39.053L46.7181 39.5221C46.6384 39.8451 46.5213 40.1574 46.3693 40.4525L47.7417 41.152L52.2231 49.4865L53.679 49.2403L52.1928 47.0222C52.4616 47.3236 52.7482 47.6298 53.0526 47.9409C53.4751 48.3706 53.8915 48.7646 54.2965 49.1249L54.8877 49.0365C53.6774 47.5557 52.6988 46.2816 51.9762 45.3155C51.2158 44.2992 50.7311 43.6491 50.103 42.7001C49.3042 41.4962 48.758 40.5376 48.1847 39.5284C47.8076 38.8641 47.4445 38.2045 46.4241 36.2686C45.9754 35.4134 45.3035 34.1323 44.4809 32.541Z" fill="#262626"/>
<path d="M43.0561 33.6992C42.9469 33.7601 42.8365 33.8231 42.7249 33.8881C42.6329 33.9415 42.5423 33.9952 42.453 34.0492C42.8234 35.4255 43.1938 36.8018 43.5642 38.1778C43.8099 38.2609 44.0654 38.3505 44.3278 38.4527C44.6554 38.5801 44.9637 38.713 45.2511 38.8466L43.0561 33.6992Z" fill="#262626"/>
<path d="M28.1115 35.1607L27.5919 36.4602C27.5919 36.4602 28.4714 36.5216 28.4714 36.483C28.4714 36.4444 28.8698 35.0532 28.8698 35.0532L28.1115 35.1607Z" fill="#262626"/>
<path d="M37.7825 38.3323V38.6644C37.6248 38.6452 37.4696 38.6085 37.3198 38.5548C37.1512 38.494 36.9909 38.412 36.8424 38.3107C36.8698 38.1779 36.8977 38.0454 36.9243 37.9126C37.0567 38.0418 37.2107 38.146 37.3792 38.2202C37.5079 38.2762 37.6436 38.3139 37.7825 38.3323Z" fill="#262626"/>
<path d="M33.9624 37.6265L33.8805 38.0723C34.1304 38.311 34.4277 38.4928 34.7525 38.6055C35.0774 38.7182 35.4222 38.7592 35.7639 38.7258L35.7566 38.3185C35.1036 38.2766 34.4784 38.0354 33.9632 37.6265H33.9624Z" fill="#262626"/>
<path d="M32.3246 37.9005L32.2427 38.3496C32.0789 38.2932 31.9483 38.2558 31.8587 38.2322C31.7551 38.2043 31.6441 38.1782 31.6101 38.0922C31.6039 38.0746 31.6005 38.0561 31.5999 38.0375C31.5918 37.9087 31.6118 37.7797 31.6584 37.6597C31.769 37.7396 31.8913 37.8014 32.0208 37.8427C32.1195 37.8741 32.2214 37.8934 32.3246 37.9005Z" fill="#262626"/>
<path d="M32.4066 36.4478L33.4302 36.7051L32.9438 37.7376C32.6967 37.7735 32.4449 37.7521 32.2071 37.6752C31.9693 37.5983 31.7518 37.4677 31.5709 37.2934L32.4066 36.4478Z" fill="#262626"/>
<path d="M35.6902 42.1434V42.6565L35.6558 42.691C35.0227 42.8563 34.3508 42.761 33.7867 42.4257L33.8056 41.9067C34.0271 42.0443 34.2701 42.1426 34.5241 42.1973C34.9111 42.28 35.3124 42.2614 35.6902 42.1434Z" fill="#262626"/>
<path d="M31.5262 40.624V41.1355C30.7931 41.1095 30.0716 41.3269 29.4712 41.7545C28.6761 41.7099 27.9108 41.4321 27.2685 40.9549L27.2382 40.4243C27.8655 40.9442 28.6496 41.2305 29.4598 41.2355C30.0732 40.8277 30.7927 40.6147 31.5262 40.624Z" fill="#262626"/>
<path d="M39.5022 43.0939V43.177L36.417 43.2031C36.0803 43.2571 35.7469 43.3313 35.4188 43.4252C35.1367 43.5058 34.8775 43.5954 34.6409 43.6876C32.8861 43.1065 31.008 43.0227 29.2096 43.4451C28.7478 44.1276 28.408 44.7113 28.1803 45.1232C27.5698 46.2295 26.9897 47.5123 26.986 47.5107C26.986 47.4949 26.954 47.48 26.954 47.48L26.8893 47.4181C26.7265 47.2545 26.5745 47.0802 26.4344 46.8963C26.0823 46.4313 25.7409 45.9883 25.7384 45.9883L26.5745 44.7138L26.6257 44.7022L26.5802 43.128C25.7782 42.9379 25.0232 42.5826 24.3623 42.0843L19.1734 51.6053C19.2803 52.306 19.4908 52.9863 19.7978 53.6233C19.0179 53.3887 18.3122 52.9514 17.7506 52.3546L23.8759 40.0247C24.2583 40.0081 24.897 40.043 25.521 40.4191C25.6445 40.4932 25.7618 40.5774 25.8719 40.6707C26.0493 41.1573 26.3893 41.5654 26.8328 41.824L27.7201 41.6579C28.3175 41.9142 28.9508 42.0737 29.597 42.1308C29.9183 41.8552 30.2973 41.6574 30.7052 41.5525C31.1131 41.4477 31.5393 41.4384 31.9513 41.5255C32.2866 41.6506 32.6002 41.8289 32.8803 42.054C33.2115 42.323 33.3507 42.5472 33.7749 42.7884C33.9412 42.883 34.1165 42.9602 34.2982 43.0188C34.9062 43.211 35.477 43.1151 35.8356 43.013C36.2345 42.7046 36.7043 42.5046 37.2007 42.4318C38.4151 42.2586 39.3171 42.9461 39.5022 43.0939Z" fill="#262626"/>
<path d="M46.7042 44.0283C46.4504 44.1313 46.0491 44.3007 45.5647 44.5336C44.9883 44.8117 43.3628 45.6071 42.1426 46.7496C42.1426 46.7496 41.4753 47.3723 41.0457 48.0698C40.936 48.2475 40.8713 48.3728 40.8713 48.3728C40.8304 48.4559 40.7681 48.5804 40.7358 48.6452C40.7247 48.6664 40.719 48.6767 40.71 48.6971C40.6944 48.7332 40.6928 48.7456 40.6883 48.7461C40.6658 48.7461 40.6416 48.5447 40.6416 48.5447C40.6052 48.2433 40.4271 46.449 40.3685 45.8579C40.5872 45.65 40.8246 45.4635 41.0777 45.3007C41.2954 45.1617 41.5236 45.0402 41.7602 44.9375C42.677 44.5327 43.7853 44.3189 43.8701 44.3031C44.8053 44.1292 45.7535 44.0373 46.7042 44.0283Z" fill="#262626"/>
<path d="M33.0248 43.7127C33.0248 43.7156 32.8761 44.3055 32.8761 44.3055C31.7274 44.1335 30.5579 44.1655 29.42 44.4001C29.4873 44.22 29.5169 44.0275 29.5068 43.8351C30.6607 43.5647 31.8551 43.5224 33.0248 43.7106V43.7127Z" fill="#262626"/>
<path d="M32.468 44.7753C31.7436 44.6529 31.0031 44.6685 30.2844 44.8214C29.9813 45.5177 29.7155 46.23 29.488 46.9553C29.2665 47.661 29.0974 48.3307 28.9677 48.948C28.9773 50.5535 29.5065 52.1115 30.474 53.3826L32.8815 52.9845C32.3997 51.932 32.0672 50.8157 31.8939 49.6687C31.8353 48.0179 32.0287 46.3679 32.4671 44.777L32.468 44.7753Z" fill="#262626"/>
<path d="M34.0197 43.9038L33.8756 44.5037C35.2262 44.9261 36.4749 45.6298 37.5417 46.5698C38.6085 47.5098 39.47 48.6654 40.0709 49.9625C38.4871 47.7707 36.3347 46.0673 33.8531 45.0417C33.7176 45.6001 33.5952 46.2112 33.5002 46.8717C33.3686 47.7896 33.3027 48.7161 33.3032 49.6436C33.6267 50.6583 33.9503 51.673 34.274 52.6879C34.8922 52.5467 35.5401 52.6455 36.0899 52.9648C36.2741 52.7257 36.4989 52.5217 36.7536 52.3624C37.2912 52.0303 37.771 52.0303 38.5428 51.9473C39.1722 51.8771 39.7975 51.7731 40.416 51.6359L40.5941 51.0962C40.752 51.1908 40.9345 51.2342 41.1174 51.2208C41.2511 51.2107 41.3807 51.17 41.4965 51.1016C41.4539 50.6559 41.4782 50.2061 41.5686 49.7678C41.6838 49.1991 41.9122 48.6602 42.2397 48.184C42.4087 47.9484 42.6008 47.7307 42.8129 47.5343C43.0561 47.3014 43.2993 47.1283 43.7759 46.7924C44.0899 46.5707 44.3393 46.3951 44.7012 46.1772C45.0632 45.9592 45.3813 45.7931 45.6339 45.6698C45.5425 45.4869 45.4515 45.3037 45.3609 45.1202C44.6 45.4635 43.8811 45.8954 43.2187 46.4072C42.3887 47.0498 41.6697 47.6061 41.232 48.6099C40.9862 49.1819 40.8646 49.8007 40.8754 50.4245C40.2977 48.6336 39.3896 47.4998 38.8327 46.9078C37.9422 45.9605 37.0197 45.4091 36.3675 45.0193C35.6208 44.5744 34.8348 44.2009 34.0197 43.9038Z" fill="#262626"/>
<path d="M46.1965 44.7381C46.4156 44.6426 46.6469 44.5351 46.8828 44.4135C47.1436 44.2798 47.3851 44.1432 47.6079 44.0083C47.9978 45.6945 48.6413 47.3098 49.5159 48.7974L49.3279 49.9968L47.1898 50.495C47.3389 50.238 47.5252 49.8266 47.5141 49.3147C47.511 49.1999 47.4985 49.0854 47.4769 48.9726C47.3184 48.0593 47.2394 47.6027 47.1084 47.1389C46.9333 46.518 46.71 45.912 46.4406 45.3268L47.2095 44.8726L46.4164 45.2463L46.1965 44.7381Z" fill="#262626"/>
<path d="M45.6848 45.8218L43.1937 47.6899C43.1642 48.8458 43.521 49.9778 44.2063 50.9019L46.1986 50.6113C46.2199 50.5698 46.4963 50.021 46.5945 49.6341C46.6283 49.5091 46.6445 49.38 46.6428 49.2505C46.6411 49.175 46.6326 49.0998 46.6175 49.0259C46.4033 47.9631 46.3223 47.6862 46.3223 47.6862C46.0913 46.902 45.8293 46.1971 45.6848 45.8218Z" fill="#262626"/>
<path d="M24.4716 48.188L25.1312 48.8032C24.8582 49.6875 24.5954 50.6126 24.3426 51.5785C24.071 52.6197 23.8334 53.627 23.6298 54.6004L22.8187 54.7465L23.3571 51.4668L22.5227 54.815L21.9011 54.9229L22.978 50.7785L24.4716 48.188Z" fill="#262626"/>
<path d="M62.914 56.2791C62.8305 56.4502 62.7452 56.6222 62.6581 56.7952C62.5779 56.9546 62.4976 57.1119 62.4174 57.2672C61.6296 56.4855 60.8234 55.6382 60.0099 54.7223C59.4498 54.0921 58.9214 53.4707 58.4249 52.8579C59.0072 53.3935 59.6533 53.9477 60.3698 54.5031C61.1876 55.1385 62.0368 55.7313 62.914 56.2791Z" fill="#262626"/>
<path d="M57.0262 53.7798V55.8788L61.5379 58.8545L61.7201 58.5698C61.4654 58.3796 61.1194 58.1102 60.7247 57.7694C60.3636 57.4572 59.8841 57.0175 59.087 56.1636C58.5318 55.567 57.821 54.7703 57.0262 53.7798Z" fill="#262626"/>
<path d="M55.9085 68.9828C55.9085 68.9512 55.8634 68.9284 55.8515 68.9222C55.639 68.8093 55.4773 68.6112 55.2632 68.5012C55.0879 68.4111 54.805 68.2002 54.2396 67.7776C54.0193 67.6116 53.8457 67.475 53.7421 67.3911C53.5387 67.5834 53.2931 67.7238 53.0256 67.8009C52.9099 68.0787 52.7504 68.3357 52.5535 68.5618L53.1849 68.9828L51.8255 69.2767C50.9919 70.0958 50.3556 70.7123 50.0702 70.9838C49.9576 71.0905 49.8356 71.2067 49.6645 71.3624C49.3529 71.646 49.3652 71.619 49.253 71.7315C49.0094 71.9764 48.9807 72.0761 48.688 72.3957C48.5733 72.5203 48.4746 72.6182 48.4095 72.6805C48.2683 72.8516 48.109 73.0288 47.9297 73.2082C47.6093 73.5285 47.2611 73.8188 46.8893 74.0758C46.8799 74.0918 46.8761 74.1105 46.8785 74.129C46.8809 74.1474 46.8893 74.1645 46.9024 74.1775C46.911 74.184 46.9208 74.1885 46.9313 74.1909C46.9417 74.1933 46.9525 74.1934 46.963 74.1912C47.5264 73.8518 48.0678 73.4761 48.584 73.0666C48.7887 72.9055 49.0675 72.6834 49.3431 72.4211C49.7611 72.0229 50.3499 71.3599 50.8703 70.3221C51.5324 70.2614 52.2407 70.1726 52.9887 70.0452C54.3698 69.8098 54.7903 69.7774 55.1412 69.5885C55.4839 69.4058 55.7226 69.1177 55.8548 69.0434C55.8655 69.0372 55.9089 69.0139 55.9085 68.9828Z" fill="#525252"/>
<path d="M57.5053 64.2128L57.1413 63.5859C57.0631 63.8551 56.9496 64.1125 56.8039 64.3511C56.5604 64.7463 56.2342 65.0823 55.8483 65.3354L55.9736 65.6928L57.5053 64.2128Z" fill="#525252"/>
<path d="M34.2531 28.3599C34.4307 28.6268 34.6982 28.8188 35.0056 28.9C35.3129 28.9812 35.6389 28.9459 35.9223 28.8007C35.3415 28.7744 34.7727 28.6242 34.2531 28.3599Z" fill="#525252"/>
<path d="M45.0296 29.5229C44.664 29.7683 44.2717 30.0161 43.852 30.2611C43.5616 30.4305 43.2773 30.5881 42.9992 30.7339L43.2694 31.4949C42.964 31.6427 42.6454 31.7888 42.3138 31.9333C41.7815 32.1633 41.2685 32.3642 40.7755 32.5407L40.9462 32.9479C41.4815 32.811 42.0084 32.6426 42.5242 32.4435C42.7699 32.3484 43.2014 32.1741 43.7214 31.9159C44.1092 31.7232 44.3765 31.5916 44.7041 31.3708C45.0474 31.1401 45.3665 30.8744 45.6565 30.5778L45.0296 29.5229Z" fill="#DE2386"/>
<path d="M42.7438 37.7186L41.7611 34.3281L42.2197 37.6036L42.7438 37.7186Z" fill="#DE2386"/>
<path d="M29.3971 32.0723L28.5402 32.8644C28.9773 33.2368 29.4716 33.5341 30.0035 33.7445C30.2115 33.5856 30.394 33.395 30.5444 33.1795L30.311 32.5796L29.3971 32.0723Z" fill="#DE2386"/>
<path d="M26.9078 28.7759L27.2833 29.1989L26.5668 30.2368L27.7345 32.1049C27.6936 32.0634 27.6203 31.9929 27.5335 31.9053C27.0143 31.3801 26.8133 31.1123 26.3354 30.6212C26.2486 30.532 26.1147 30.3962 25.9448 30.2326C26.1908 29.7001 26.5155 29.2089 26.9078 28.7759Z" fill="#DE2386"/>
<path d="M22.9772 36.2568L22.7725 36.5645C22.8773 37.0272 23.0721 37.4642 23.3455 37.8497C23.6189 38.2352 23.9655 38.5615 24.3648 38.8096C23.8407 37.9988 23.4611 37.3748 23.3031 37.095C23.2166 36.9441 23.143 36.7859 23.0832 36.6222C23.04 36.5029 23.0046 36.3808 22.9772 36.2568Z" fill="#DE2386"/>
<path d="M25.1636 32.0679C24.5564 32.9505 23.604 34.3014 22.3654 35.9142C21.5425 36.9857 21.0069 37.6342 20.2003 38.6397C18.269 41.0475 17.0685 42.6537 16.2877 43.6679C14.8137 45.5851 12.3845 48.5696 8.21556 53.2421L7.68042 51.7949C9.56917 49.6826 11.0907 47.9851 12.0614 46.9048C17.4046 40.9483 20.2982 37.7542 24.3037 33.0771C24.6812 32.635 24.9867 32.2767 25.1636 32.0679Z" fill="#DE2386"/>
<path d="M18.533 42.729C17.2708 44.7117 15.9489 46.7236 14.5672 48.7644C12.8502 51.2963 11.1391 53.7258 9.4336 56.0532L8.79651 54.677C10.4388 52.8769 12.1195 50.9381 13.8163 48.8566C15.5228 46.7634 17.0918 44.7134 18.533 42.729Z" fill="#DE2386"/>
<path opacity="0.96" d="M17.1386 52.124L15.866 53.8182L15.7522 53.6223L16.662 51.9916C16.662 51.9916 16.8896 51.8704 16.9351 51.8762C16.9805 51.882 17.1386 52.124 17.1386 52.124Z" fill="#DE2386"/>
<path d="M17.5152 52.6387L17.263 52.9708C17.9976 53.7884 18.9827 54.3309 20.059 54.5106C19.9183 54.5563 19.7725 54.5842 19.625 54.5936C19.2472 54.6128 18.8723 54.5174 18.5482 54.3196L17.8317 55.1594L16.7397 54.381L16.5424 54.6384C16.9217 55.0525 17.3796 55.3846 17.8886 55.6149L20.2773 55.2151L20.9054 54.3341L20.8104 54.2511C19.5618 54.1136 18.3979 53.5449 17.514 52.6403L17.5152 52.6387Z" fill="#DE2386"/>
<path d="M26.3059 49.4834L26.0668 50.29C26.4238 50.7708 26.7857 51.2835 27.1473 51.8294C27.5952 52.5057 27.9977 53.1637 28.3588 53.796L28.6831 53.7038C28.3347 52.9499 27.9273 52.1486 27.4486 51.3163C27.0691 50.6558 26.6842 50.0451 26.3059 49.4834Z" fill="#DE2386"/>
<path d="M33.7701 43.7959L33.3197 43.7212C32.7055 45.6194 32.4254 47.6123 32.4922 49.6088C32.6538 50.7266 32.9756 51.8144 33.4474 52.8378L33.9195 52.7515C33.4716 51.7579 33.1395 50.7148 32.9299 49.6433C32.9726 47.6667 33.2544 45.7029 33.7688 43.7959H33.7701Z" fill="#DE2386"/>
<path d="M45.9549 44.8214L45.6221 44.9684C46.3034 46.344 46.7538 47.8252 46.9548 49.3511C46.8946 49.5765 46.8197 49.8194 46.7255 50.0747C46.6481 50.2823 46.5666 50.479 46.4848 50.6559L46.7767 50.7327C46.9835 50.286 47.1338 49.8145 47.2238 49.3295C47.1065 47.7544 46.6747 46.22 45.9545 44.8193L45.9549 44.8214Z" fill="#DE2386"/>
<path d="M37.7825 34.6875C37.6683 34.7272 37.5521 34.7609 37.4345 34.7884C37.3191 34.8156 37.2024 34.8369 37.0848 34.8519C37.248 35.2729 37.273 35.736 37.1561 36.1725C37.3781 36.1522 37.5925 36.0801 37.7825 35.962V34.6875Z" fill="#DE2386"/>
<path d="M34.3556 35.0238C33.9789 34.9969 33.6039 34.9488 33.2325 34.8798C32.6265 34.7664 31.9222 34.5763 31.9222 34.5796C31.928 34.5884 32.7952 34.9487 32.7952 34.9487V35.0757C32.9925 35.1276 33.2091 35.1758 33.4437 35.214C33.7381 35.2623 34.0353 35.2911 34.3334 35.3003C34.3404 35.2082 34.3478 35.116 34.3556 35.0238Z" fill="#DE2386"/>
<path d="M31.7637 34.9492C31.8753 35.0561 31.994 35.155 32.1191 35.2452C32.1474 35.2656 32.5408 35.5483 32.6514 35.5657C32.662 35.5656 32.6726 35.5679 32.6822 35.5724C32.6918 35.577 32.7003 35.5838 32.707 35.5922C32.7136 35.6006 32.7183 35.6104 32.7207 35.6209C32.723 35.6315 32.723 35.6424 32.7206 35.6529C32.7144 35.7073 32.687 35.9186 32.6465 36.2063C33.2444 36.424 33.8767 36.5286 34.5119 36.5147C34.4713 36.4206 34.4381 36.3235 34.4124 36.2241C34.3578 36.0116 34.3376 35.7915 34.3526 35.5724C33.4619 35.5063 32.5873 35.296 31.7621 34.9496L31.7637 34.9492Z" fill="#DE2386"/>
<path d="M15.2059 54.9966C15.1003 55.1365 14.9443 55.3349 14.7453 55.5637C14.213 56.1756 13.7459 56.5675 13.3405 56.905C12.6035 57.5178 11.896 58.1019 11.1795 58.6814L10.9236 58.3236C11.767 57.7955 12.4627 57.3098 12.9994 56.9166C13.8818 56.2703 14.3248 55.8788 14.6782 55.5388C14.9009 55.3221 15.0802 55.1328 15.2059 54.9966Z" fill="white"/>
<path d="M30.5558 13.5941C30.2332 13.7681 30.0973 14.1795 30.2033 14.5074C30.2689 14.6969 30.405 14.8527 30.5824 14.9417C30.7205 15.0103 30.8758 15.0351 31.028 15.0129C31.1803 14.9907 31.3223 14.9225 31.4357 14.8171C31.5392 14.7176 31.6123 14.5901 31.6466 14.4497C31.6808 14.3094 31.6747 14.162 31.629 14.025C31.4853 13.6203 30.9591 13.3766 30.5558 13.5941Z" fill="#DE2386"/>
<path d="M26.7153 21.5788V21.6655C27.0156 21.5078 27.3169 21.3449 27.6194 21.1769C30.1272 19.7819 32.4932 18.1395 34.6831 16.2736C35.0146 15.3191 35.2037 14.3197 35.244 13.3086L34.5267 13.7441C34.5889 13.8358 34.8174 14.1933 34.7437 14.6474C34.7159 14.862 34.6214 15.062 34.4738 15.2183C34.3874 15.3069 34.2846 15.3774 34.1713 15.4258L34.3076 15.5504C34.1985 15.8808 34.0424 16.1932 33.8441 16.4778C33.5022 16.9673 33.1239 17.2405 32.6567 17.5709C32.3554 17.7843 32.2919 17.8022 31.2491 18.4128C30.7328 18.7146 30.3401 18.9496 29.9552 19.1796C29.4127 19.5038 29.3292 19.5586 28.4681 20.0734C28.3953 20.117 28.0399 20.3292 27.5674 20.6098C27.1477 20.8589 26.9377 20.9834 26.8791 21.0154C26.4091 21.2765 26.0086 21.499 25.4461 21.6651C24.8286 21.8469 24.4564 21.8312 24.2652 21.8117C24.155 21.8005 24.0456 21.7824 23.9377 21.7573C23.8714 22.1583 23.9635 22.3385 24.0499 22.424C24.5961 22.9774 26.6122 21.6477 26.7153 21.5788Z" fill="#262626"/>
<path d="M35.6697 10.0384L36.451 10.8916C36.1379 11.5483 35.7232 12.15 35.2226 12.6738C35.2226 12.7049 35.2173 12.7788 35.2194 12.8569C35.2194 12.8926 35.2194 12.8822 35.2243 12.9523C35.2243 12.971 35.2284 12.9881 35.228 12.9984C35.2278 13.0002 35.2278 13.002 35.228 13.0038C35.2293 13.0095 35.2325 13.0147 35.237 13.0184C35.258 13.0403 35.2816 13.0594 35.3074 13.0752C35.3521 13.0988 35.3951 13.1258 35.436 13.1558L35.2427 13.3085C35.2252 13.7556 35.1783 14.2009 35.1023 14.6416C35.0069 15.1964 34.8663 15.7423 34.6818 16.2735C34.9475 16.0423 35.2959 15.7289 35.6996 15.3453C36.0468 15.0131 36.4714 14.6063 36.975 14.0479C37.486 13.4808 37.8803 13.0433 38.3156 12.367C38.6378 11.8659 38.804 11.5114 39.0571 10.9725C39.1185 10.8413 39.2167 10.525 39.4133 9.89313C39.4133 9.89313 39.5181 9.55561 39.437 9.29324C39.4151 9.216 39.3759 9.14495 39.3224 9.08566C39.2788 9.03954 39.2273 9.00184 39.1705 8.9744C39.0589 8.92343 38.9356 8.90475 38.8143 8.92044C38.2668 8.97025 38.0445 9.03958 38.0445 9.03958C37.4082 9.23802 37.0209 9.40491 37.0209 9.40491C36.6684 9.55644 36.2078 9.76568 35.6697 10.0384Z" fill="#525252"/>
<path d="M19.358 13.5602L23.9986 16.3936L20.7456 12.7145L19.358 12.3442V13.5602Z" fill="black"/>
<path d="M24.5985 6.07079C25.3256 5.49545 26.1134 5.00368 26.9475 4.60449C27.473 6.5703 28.2727 8.44995 29.3222 10.1866C28.8326 10.2824 28.3806 10.5192 28.0202 10.8687C27.4466 9.97837 27.0065 9.00672 26.7141 7.98546C26.6899 8.27315 26.6731 8.57953 26.6666 8.90252C26.66 9.25581 26.6666 9.59 26.6838 9.90178C25.8383 8.7145 25.1381 7.42754 24.5985 6.06913V6.07079Z" fill="#262626"/>
<path d="M31.3051 2.98779C29.7975 3.36023 28.3357 3.90246 26.947 4.60438C27.0506 4.99047 27.189 5.4654 27.3712 6.00218C27.6803 6.9126 27.9747 7.58721 28.0804 7.82551C28.4363 8.62615 28.8428 9.4027 29.2972 10.1503L29.4655 10.1387L29.6673 10.338C30.2631 9.89212 30.9252 9.43338 31.6548 8.97962C32.3148 8.56946 32.9527 8.21077 33.557 7.89775C32.6123 6.36029 31.8561 4.71175 31.3051 2.98862V2.98779Z" fill="#525252"/>
<path d="M33.1763 11.099C33.292 11.0881 33.4087 11.1008 33.5194 11.1364C33.713 11.2024 33.8792 11.3322 33.9915 11.5051C34.0763 11.6358 34.0468 11.6657 34.1925 12.0356C34.1925 12.0356 34.2576 12.2017 34.3289 12.3544C34.4108 12.5334 34.5745 12.8161 34.9054 13.154L33.9993 13.6314C33.8515 13.6314 33.6987 13.6277 33.5403 13.6198C33.2387 13.6044 32.9381 13.5737 32.6395 13.5277C33.0076 13.4778 33.3497 13.3077 33.614 13.0432C33.5812 12.9905 33.5557 12.9335 33.5382 12.8738C33.4983 12.7266 33.5052 12.5705 33.5579 12.4275C33.4826 12.5105 33.4027 12.6073 33.3229 12.7181C33.2494 12.8183 33.1811 12.9222 33.1182 13.0295C33.0945 13.018 33.0727 13.003 33.0535 12.9851C32.9687 12.902 32.9667 12.7833 32.963 12.6334C32.9601 12.5346 32.9564 12.3985 32.9495 12.1913C32.7504 12.4901 32.5916 12.8146 32.4774 13.1561C32.4364 13.1183 32.391 13.0797 32.3447 13.0411C32.3114 13.0134 32.2787 12.9864 32.2465 12.9601C32.371 12.2612 32.6942 11.6143 33.1763 11.099Z" fill="#525252"/>
<path d="M33.0903 11.0991C32.5003 11.6443 32.0767 12.3495 31.8698 13.1313C31.9824 13.2234 32.0808 13.3322 32.1617 13.4538C32.2357 13.5658 32.2944 13.6874 32.3361 13.8154L33.9968 13.6348C33.7376 13.6348 33.4584 13.6236 33.1619 13.5958C32.9793 13.5788 32.8049 13.5543 32.6391 13.5311C33.0072 13.4812 33.3493 13.3111 33.6136 13.0466C33.5681 12.9731 33.5368 12.8915 33.5214 12.8062C33.4997 12.6807 33.5119 12.5516 33.5566 12.4326L33.1169 13.0325C33.0719 13.0037 33.0333 12.9658 33.0035 12.9212C32.9486 12.8382 32.9445 12.7551 32.9388 12.5135C32.9359 12.384 32.9339 12.2802 32.9331 12.2171C32.7411 12.5097 32.5875 12.8263 32.4761 13.1591L32.2452 12.9631C32.3685 12.2631 32.6913 11.6151 33.1738 11.0991H33.0903Z" fill="#262626"/>
<path d="M29.303 10.6076C29.2877 10.6142 29.2747 10.6253 29.2657 10.6396C29.1507 10.7907 28.8833 10.75 28.6205 10.8617C28.4522 10.9327 28.3437 11.0419 28.2421 11.144C28.1523 11.2349 28.0732 11.336 28.0063 11.4454C27.9277 11.5735 27.8664 11.7117 27.8241 11.8564C28.2312 12.5915 28.9059 13.1358 29.7038 13.3729L30.3921 12.9113C30.3668 12.5351 30.2862 12.1648 30.153 11.8128C30.0154 11.4504 29.8717 11.2428 29.6699 10.951C29.5245 10.7413 29.3869 10.5773 29.303 10.6076Z" fill="#262626"/>
<path d="M30.392 12.9114C30.3619 12.006 29.9999 11.1446 29.3766 10.4956C29.0834 10.5478 28.8053 10.6654 28.5623 10.8399C28.3194 11.0143 28.1177 11.2413 27.9718 11.5044C28.3404 12.1228 28.8751 12.6219 29.5133 12.9433L29.6894 12.8022C29.7066 12.3029 29.5784 11.8095 29.3209 11.3836C29.1715 11.3944 29.0243 11.4264 28.8836 11.4787C28.7866 11.5147 28.6933 11.56 28.6048 11.614C28.6866 11.4589 28.8001 11.3233 28.9377 11.2163C29.0519 11.1275 29.1808 11.0601 29.3185 11.0174C29.5248 11.1905 29.6942 11.4044 29.8163 11.646C29.9661 11.9448 30.0404 12.2766 30.0325 12.6116L30.392 12.9114Z" fill="#525252"/>
<path d="M32.4311 11.3234C32.2363 11.5659 32.0676 11.8288 31.9278 12.1076C31.8494 12.264 31.7819 12.4259 31.726 12.592C31.6876 12.7074 31.6554 12.8248 31.6294 12.9437L31.2879 12.8108L31.2711 11.4703C31.1953 11.6597 31.1316 11.8538 31.0803 12.0515C31.0189 12.2881 30.9752 12.529 30.9497 12.7722L30.7077 12.7751C30.6795 12.2157 30.53 11.6694 30.27 11.1751C30.4105 11.183 30.5615 11.1864 30.7204 11.1822C30.8486 11.1789 30.9702 11.1714 31.0844 11.1606C31.1401 11.1314 31.1972 11.1053 31.2555 11.0822C31.2965 11.0656 31.3374 11.0514 31.3784 11.0406C31.7489 11.0313 32.1143 11.1305 32.4306 11.3263L32.4311 11.3234Z" fill="#DE2386"/>
<path d="M32.9633 14.4425L32.6562 14.8407C32.7599 14.8915 32.8681 14.9324 32.9793 14.9627C33.2139 15.0262 33.3306 15.0067 33.5574 15.0723C33.6718 15.1052 33.7825 15.1503 33.8874 15.2068C33.9423 15.1898 34.278 15.0823 34.3861 14.7917C34.4459 14.6306 34.4271 14.4334 34.4238 14.3819C34.4179 14.3137 34.4058 14.2462 34.3878 14.1802C33.952 14.4175 33.4535 14.5093 32.9633 14.4425Z" fill="#DE2386"/>
<path d="M33.7986 8.26953C33.3274 8.50367 32.8385 8.76771 32.3369 9.05831C31.5089 9.54308 30.7094 10.0763 29.9425 10.6554L30.0563 10.8169C30.1238 10.8332 30.1922 10.8455 30.2611 10.8538C30.3435 10.8636 30.4265 10.868 30.5096 10.8671C30.8228 10.6226 31.1704 10.3723 31.5533 10.1252C32.0798 9.78466 32.6278 9.47956 33.1939 9.21192C32.8987 9.41949 32.5895 9.6528 32.2726 9.91269C31.9451 10.1792 31.6503 10.4437 31.3813 10.7015C31.6026 10.6893 31.8242 10.722 32.0329 10.7977C32.2417 10.8734 32.4334 10.9906 32.5969 11.1424L32.9609 10.7994C33.2128 10.7452 33.4749 10.77 33.7126 10.8704C33.9503 10.9708 34.1522 11.1421 34.2916 11.3616C34.4034 11.5446 34.3804 11.6252 34.4992 11.9237C34.5813 12.1305 34.6852 12.3277 34.8091 12.5119C35.0484 12.2535 35.2733 11.9817 35.4827 11.6978C35.6653 11.4487 35.8233 11.2075 35.9605 10.9796C35.5961 10.5753 35.2235 10.1373 34.846 9.66484C34.4685 9.19241 34.1159 8.71997 33.7986 8.26953Z" fill="#DE2386"/>
<path d="M28.136 13.3467L27.7675 13.9906C27.7301 14.1412 27.7515 14.3006 27.8272 14.4356H29.0146C29.0924 14.4103 29.1673 14.3767 29.2382 14.3356C29.3038 14.2975 29.3656 14.2531 29.4228 14.2031V13.9819C29.1806 13.9275 28.9457 13.8439 28.7231 13.7328C28.5135 13.6272 28.3165 13.4977 28.136 13.3467Z" fill="#DE2386"/>
<path d="M27.0797 13.373L27.0354 14.0016C26.5642 14.4641 26.2039 14.8709 25.9553 15.1661C25.7166 15.4496 25.5377 15.6821 25.1799 16.1466C24.8441 16.583 24.5706 16.9483 24.3802 17.2057C24.4498 17.05 24.5297 16.8864 24.621 16.7175C24.7323 16.5099 24.8466 16.3218 24.9583 16.1525L24.8728 16.0312L24.1562 16.6656C24.6095 16.0392 25.0948 15.4374 25.6102 14.8626C26.113 14.3021 26.6084 13.8073 27.0797 13.373Z" fill="#DE2386"/>
<path d="M28.1278 18.3144C27.4713 18.6746 26.7745 18.9533 26.0524 19.1447L27.0817 18.6025L25.5365 16.8149L24.8732 17.2051L26.4655 15.1294C26.415 15.3448 26.406 15.5681 26.4389 15.787C26.5093 16.2374 26.7484 16.5318 26.9544 16.79C27.2524 17.1678 27.6267 17.6468 28.1278 18.3144Z" fill="#DE2386"/>
<path d="M30.0195 15.9707C30.0494 16.0103 30.0831 16.0467 30.1202 16.0795C30.1559 16.111 30.1945 16.1388 30.2357 16.1625C30.2213 16.287 30.2111 16.4216 30.207 16.5648C30.2012 16.7833 30.2107 17.0019 30.2357 17.2191C30.3618 17.0281 30.4882 16.8373 30.6148 16.6466L31.0279 16.9347L30.994 16.2389L31.2216 16.1637C31.2917 16.5152 31.4282 16.8496 31.6237 17.1485C31.228 17.2952 30.86 17.5093 30.5354 17.7816C30.3969 17.6976 30.2695 17.5962 30.1562 17.4798C29.9915 17.3118 29.862 17.1119 29.7755 16.8919C29.7536 16.841 29.7388 16.7872 29.7316 16.7321C29.7235 16.6549 29.7316 16.5569 29.8545 16.2891C29.8934 16.2053 29.9474 16.0948 30.0195 15.9707Z" fill="#DE2386"/>
<path opacity="0.95" d="M30.736 13.3131C30.1379 13.458 29.8058 14.0944 29.9892 14.6316C30.1596 15.1298 30.734 15.4258 31.2741 15.244C31.2161 15.3081 31.1499 15.364 31.0771 15.41C30.9418 15.4937 30.7883 15.5425 30.63 15.552C30.5592 15.5342 30.0334 15.3897 29.7804 14.8463C29.5159 14.275 29.7755 13.7482 29.8062 13.6888C29.9209 13.5563 30.065 13.4532 30.2267 13.3883C30.3883 13.3233 30.5629 13.2983 30.736 13.3152V13.3131Z" fill="#262626"/>
<path d="M29.8352 13.6672C29.9204 13.5364 30.1628 13.2018 30.5972 13.086C30.6907 13.0608 30.787 13.0479 30.8838 13.0474C31.2691 13.0474 31.8255 13.2595 32.0552 13.7971C32.305 14.3846 31.9733 14.9247 31.9418 14.9774C31.7514 15.2677 31.4582 15.4727 31.1229 15.5499L30.6492 15.5461C30.8276 15.4869 30.9992 15.4082 31.161 15.3116C31.4001 15.1692 31.5794 15.0625 31.7145 14.8466C31.7526 14.786 31.9602 14.456 31.8587 14.047C31.7682 13.6809 31.4902 13.4866 31.3923 13.4281C30.9661 13.1686 30.3445 13.2628 29.8352 13.6672Z" fill="#525252"/>
<path d="M29.4217 14.5893C29.5141 14.9259 29.7 15.2286 29.9572 15.4611C29.911 15.5333 29.8385 15.6512 29.7583 15.8011C29.4549 16.3694 29.5081 16.5342 29.2501 16.8855C29.1167 17.0624 28.9627 17.2224 28.7916 17.3621C28.7199 17.4198 28.6569 17.4646 28.6094 17.4966C28.264 17.2376 27.9536 16.9339 27.6861 16.5932C27.3929 16.2196 27.1604 15.9128 27.1649 15.4897C27.1674 15.3326 27.2002 15.1774 27.2615 15.0331C28.0054 15.0523 28.744 14.9004 29.4217 14.5889V14.5893Z" fill="#262626"/>
<path d="M29.1843 14.9846L29.3149 15.2267C29.2662 15.3684 29.2034 15.5047 29.1274 15.6335C28.9693 15.9013 28.7691 16.2405 28.5161 16.2301C28.2294 16.2185 28.0489 15.7618 28.0382 15.7344C28.0087 15.8955 28.0265 16.0618 28.0894 16.2127C28.1058 16.2513 28.2638 16.6091 28.55 16.6481C28.9431 16.7021 29.2666 16.1138 29.3407 15.9793C29.4313 15.814 29.4946 15.6348 29.5282 15.4488L29.8099 15.6622C29.7002 15.8951 29.6179 16.0856 29.5642 16.2102C29.3886 16.6253 29.3489 16.7743 29.206 16.9711C29.1019 17.1134 28.9761 17.238 28.8334 17.3402C28.5088 17.1163 28.2179 16.8458 27.9699 16.5373C27.7979 16.3231 27.6182 16.0943 27.5092 15.739C27.4603 15.5779 27.4317 15.4112 27.4241 15.2429C28.0216 15.2661 28.6183 15.1781 29.1847 14.9834L29.1843 14.9846Z" fill="#525252"/>
<path d="M32.2304 15.0244C32.065 15.3142 31.8163 15.546 31.5176 15.6887C31.5117 16.0164 31.5762 16.3415 31.7065 16.6415C31.8368 16.9415 32.0298 17.2092 32.2722 17.426C33.0112 17.0417 33.5976 16.4114 33.9329 15.6409C33.8462 15.5642 33.7498 15.4995 33.6463 15.4487C33.3642 15.3113 33.1611 15.3445 32.8683 15.2826C32.6425 15.2347 32.4267 15.1473 32.2304 15.0244Z" fill="#262626"/>
<path d="M33.2254 15.732C32.807 15.6568 32.4057 15.5043 32.0417 15.282L32.2407 15.0254C32.6027 15.2492 32.8913 15.3118 33.0936 15.3251C33.2287 15.3268 33.3629 15.3482 33.492 15.3886C33.6487 15.4427 33.7935 15.5273 33.9182 15.6377C33.8238 15.6822 33.7359 15.7396 33.657 15.8084C33.4932 15.9503 33.4523 16.072 33.3466 16.2347C33.1934 16.4676 32.9916 16.6635 32.7554 16.8085C32.5868 16.9059 32.4014 16.9696 32.2092 16.9961C31.9146 16.5748 31.7572 16.0707 31.7588 15.5543C31.961 15.6638 32.1747 15.7499 32.3959 15.8108C32.5568 15.8554 32.7212 15.8863 32.8872 15.903C32.8381 16.0381 32.7888 16.1727 32.7394 16.307C32.8992 16.2501 33.0354 16.1404 33.1263 15.9956C33.1759 15.9151 33.2096 15.8255 33.2254 15.732Z" fill="#525252"/>
<path d="M30.65 13.5672C30.6975 13.5519 31.0083 13.4564 31.3023 13.6403C31.4258 13.713 31.5256 13.8209 31.5892 13.9505C31.6528 14.0802 31.6774 14.226 31.6599 14.3698C31.6425 14.5135 31.5837 14.6489 31.491 14.7591C31.3983 14.8693 31.2757 14.9494 31.1385 14.9895C30.8052 15.0966 30.5268 14.9235 30.4867 14.8974C30.458 14.8754 30.1653 14.6404 30.1796 14.2518C30.1868 14.1044 30.2347 13.9621 30.3179 13.841C30.4011 13.72 30.5162 13.6251 30.65 13.5672Z" fill="#DE2386"/>
<path d="M30.8302 13.813C30.8453 13.7714 30.9792 13.7689 31.0803 13.7939C31.1323 13.8063 31.3796 13.8769 31.4673 14.1164C31.5029 14.2248 31.5034 14.3418 31.4686 14.4505C31.4338 14.5591 31.3656 14.6536 31.274 14.7201C31.2048 14.6427 31.1507 14.5527 31.1147 14.4548C31.0423 14.2551 31.1 14.1571 31.0083 14.0126C30.928 13.886 30.8154 13.8549 30.8302 13.813Z" fill="white"/>
<path d="M30.65 13.9634C30.5407 13.9738 30.4543 14.1527 30.5059 14.2785C30.5334 14.3453 30.6062 14.4138 30.6881 14.4055C30.788 14.3956 30.8519 14.276 30.847 14.1747C30.8404 14.0601 30.7401 13.9547 30.65 13.9634Z" fill="white"/>
<path d="M19.6398 74.7145L19.3744 75.9765L22.4911 73.1452L22.112 72.6595L22.1042 59.6197L24.2808 59.2461L24.2656 57.0915L24.7054 56.4521L17.2212 57.7931L17.6609 58.2829V60.421L19.6475 60.0515L19.6398 74.7145Z" fill="url(#paint0_linear_57_881)"/>
<path d="M27.5641 68.6952L27.5755 55.9335L25.0542 56.3902L25.0616 71.1321L28.0947 73.4611L31.7195 69.6708V55.2319L29.0503 55.6761V69.787L27.5641 68.6952Z" fill="url(#paint1_linear_57_881)"/>
<path d="M35.02 54.6133L32.0511 55.1488L32.506 55.7259L32.5003 72.2073L32.2276 73.6395L35.1506 70.8456L34.7752 70.364L34.7641 64.3444L36.4359 68.5498L38.0965 62.1399V68.1014L40.4967 65.8057L40.3145 65.7019L40.3374 54.2148L40.4967 53.6211L37.6531 54.1691L36.3904 57.9885L35.02 54.6133Z" fill="url(#paint2_linear_57_881)"/>
<path d="M41.0732 71.02L40.9061 71.7216L43.7714 68.9193L43.4725 68.5498L43.5053 62.1981L45.0407 61.9158L45.053 67.6573L47.8167 64.9588L47.657 64.8509L47.6406 53.2931L46.138 52.6206L40.6158 53.6211L41.0732 54.1027V71.02Z" fill="url(#paint3_linear_57_881)"/>
<path d="M50.912 51.7778L47.9845 52.2926L48.4431 52.7617L48.439 69.0479L48.2261 70.0152L51.1331 67.1798L50.8833 66.856L50.8874 60.7035L52.4556 65.6105L52.4146 65.9053L55.2316 63.1819L55.0514 63.0698V51.0347L52.3778 51.5038L52.386 56.4689L50.8997 52.0767L50.912 51.7612V51.7778Z" fill="url(#paint4_linear_57_881)"/>
<path d="M43.5052 55.7965V59.5079L45.057 59.2505V55.4976L43.5052 55.7965Z" fill="black"/>
<path d="M39.8256 10.6928C39.6831 11.0285 39.5244 11.3731 39.3494 11.7265C39.285 11.8558 39.2203 11.9823 39.1554 12.106C39.6352 12.1252 40.1131 12.0329 40.5524 11.8361C40.7234 11.8214 40.8957 11.8308 41.0642 11.8639C41.1961 11.8932 41.3255 11.933 41.4511 11.9831C41.655 12.0577 41.855 12.1431 42.0501 12.2388C42.3899 12.4128 42.9165 12.8109 43.4627 13.4237L42.5713 13.2833C42.0429 12.8049 41.3814 12.5039 40.6777 12.4215C40.0041 12.6697 39.2891 12.7814 38.5731 12.7503L37.8992 13.6279C37.8585 13.4618 37.8176 13.2958 37.7764 13.1297C38.0024 12.8285 38.2131 12.5157 38.4077 12.1927C38.5584 11.9437 38.637 11.8112 38.7353 11.6115C38.8704 11.3421 38.8913 11.2541 39.0055 11.0926C39.1197 10.9311 39.2725 10.7277 39.5202 10.6775C39.6217 10.6574 39.7265 10.6627 39.8256 10.6928Z" fill="black"/>
</g>
<defs>
<linearGradient id="paint0_linear_57_881" x1="27.5575" y1="61.463" x2="15.138" y2="68.5335" gradientUnits="userSpaceOnUse">
<stop offset="0.36" stop-color="#EAEAEA"/>
<stop offset="1" stop-color="#AFAFAF"/>
</linearGradient>
<linearGradient id="paint1_linear_57_881" x1="22.869" y1="60.2262" x2="33.6136" y2="66.3453" gradientUnits="userSpaceOnUse">
<stop offset="0.36" stop-color="#EAEAEA"/>
<stop offset="1" stop-color="#AFAFAF"/>
</linearGradient>
<linearGradient id="paint2_linear_57_881" x1="30.0252" y1="57.2038" x2="39.6342" y2="66.6815" gradientUnits="userSpaceOnUse">
<stop offset="0.36" stop-color="#EAEAEA"/>
<stop offset="1" stop-color="#AFAFAF"/>
</linearGradient>
<linearGradient id="paint3_linear_57_881" x1="38.0626" y1="56.2116" x2="47.3789" y2="65.4027" gradientUnits="userSpaceOnUse">
<stop offset="0.36" stop-color="#EAEAEA"/>
<stop offset="1" stop-color="#AFAFAF"/>
</linearGradient>
<linearGradient id="paint4_linear_57_881" x1="47.9845" y1="60.5249" x2="55.2316" y2="60.5249" gradientUnits="userSpaceOnUse">
<stop offset="0.36" stop-color="#EAEAEA"/>
<stop offset="1" stop-color="#AFAFAF"/>
</linearGradient>
<clipPath id="clip0_57_881">
<rect width="231.667" height="80" fill="white"/>
</clipPath>
</defs>
</svg>
