<svg width="22" height="21" viewBox="0 0 22 21" fill="none" xmlns="http://www.w3.org/2000/svg">
<path d="M16.25 7.25009C16.1769 7.25009 16.1038 7.25009 16.0316 7.25009C16.2649 6.46655 16.3121 5.63933 16.1693 4.83435C16.0265 4.02936 15.6976 3.26885 15.209 2.61341C14.7203 1.95798 14.0853 1.42572 13.3546 1.05906C12.6238 0.692402 11.8176 0.501465 11 0.501465C10.1825 0.501465 9.37619 0.692402 8.64547 1.05906C7.91474 1.42572 7.27975 1.95798 6.79108 2.61341C6.3024 3.26885 5.97356 4.02936 5.83074 4.83435C5.68792 5.63933 5.73508 6.46655 5.96845 7.25009C5.89533 7.25009 5.82314 7.25009 5.75001 7.25009C4.96046 7.25047 4.18117 7.42894 3.47014 7.77219C2.75911 8.11544 2.13465 8.61465 1.64326 9.23265C1.15187 9.85065 0.806199 10.5715 0.631975 11.3416C0.457751 12.1117 0.459464 12.9112 0.636985 13.6805C0.814507 14.4498 1.16327 15.1692 1.6573 15.7851C2.15133 16.401 2.77792 16.8975 3.49041 17.2377C4.20291 17.5779 4.98296 17.753 5.77251 17.7501C6.56205 17.7471 7.34075 17.566 8.05064 17.2204L7.28189 19.7845C7.24827 19.8964 7.24131 20.0147 7.26154 20.1299C7.28177 20.245 7.32864 20.3538 7.39841 20.4477C7.46817 20.5415 7.55891 20.6177 7.66336 20.6702C7.76782 20.7227 7.8831 20.7501 8.00001 20.7501H14C14.1169 20.7501 14.2322 20.7227 14.3367 20.6702C14.4411 20.6177 14.5319 20.5415 14.6016 20.4477C14.6714 20.3538 14.7183 20.245 14.7385 20.1299C14.7587 20.0147 14.7517 19.8964 14.7181 19.7845L13.9494 17.2204C14.6593 17.566 15.438 17.7471 16.2275 17.7501C17.0171 17.753 17.7971 17.5779 18.5096 17.2377C19.2221 16.8975 19.8487 16.401 20.3427 15.7851C20.8368 15.1692 21.1855 14.4498 21.363 13.6805C21.5406 12.9112 21.5423 12.1117 21.368 11.3416C21.1938 10.5715 20.8482 9.85065 20.3568 9.23265C19.8654 8.61465 19.2409 8.11544 18.5299 7.77219C17.8189 7.42894 17.0396 7.25047 16.25 7.25009ZM16.25 16.2501C15.6292 16.25 15.0181 16.0958 14.4716 15.8012C13.9251 15.5067 13.4602 15.0811 13.1188 14.5626C13.0193 14.413 12.8695 14.3041 12.6965 14.2556C12.5235 14.2072 12.3388 14.2224 12.1762 14.2986C12.0135 14.3748 11.8835 14.5068 11.81 14.6707C11.7364 14.8346 11.7241 15.0195 11.7753 15.1917L12.9941 19.2473H9.0097L10.2284 15.1917C10.2829 15.0183 10.2725 14.831 10.1993 14.6647C10.126 14.4984 9.99486 14.3643 9.8302 14.2874C9.66554 14.2106 9.47856 14.1961 9.30402 14.2467C9.12948 14.2973 8.97925 14.4095 8.88126 14.5626C8.49375 15.1495 7.94901 15.6156 7.30923 15.9077C6.66945 16.1998 5.96042 16.3061 5.26311 16.2144C4.56581 16.1228 3.90834 15.8369 3.36577 15.3894C2.8232 14.9419 2.41741 14.3508 2.19474 13.6837C1.97207 13.0166 1.94149 12.3003 2.10649 11.6166C2.2715 10.9329 2.62544 10.3094 3.12789 9.81732C3.63035 9.32521 4.26106 8.98432 4.94802 8.83356C5.63497 8.68281 6.35048 8.72828 7.01283 8.96478C7.16156 9.01796 7.32329 9.02282 7.47495 8.97867C7.62661 8.93452 7.76046 8.84361 7.85741 8.71891C7.95437 8.59421 8.00948 8.44208 8.01488 8.28422C8.02029 8.12636 7.97571 7.97082 7.88751 7.83978C7.50828 7.27544 7.28961 6.61862 7.2549 5.93958C7.22019 5.26055 7.37076 4.58485 7.69048 3.98479C8.0102 3.38473 8.48705 2.88289 9.07 2.53296C9.65296 2.18302 10.3201 1.99817 11 1.99817C11.6799 1.99817 12.3471 2.18302 12.93 2.53296C13.513 2.88289 13.9898 3.38473 14.3095 3.98479C14.6293 4.58485 14.7798 5.26055 14.7451 5.93958C14.7104 6.61862 14.4917 7.27544 14.1125 7.83978C14.0243 7.97082 13.9797 8.12636 13.9851 8.28422C13.9905 8.44208 14.0457 8.59421 14.1426 8.71891C14.2396 8.84361 14.3734 8.93452 14.5251 8.97867C14.6767 9.02282 14.8385 9.01796 14.9872 8.96478C15.5016 8.78282 16.0495 8.7153 16.5927 8.76695C17.1359 8.81859 17.6613 8.98815 18.1322 9.26379C18.6031 9.53944 19.0081 9.91452 19.3191 10.3629C19.6301 10.8112 19.8395 11.322 19.9327 11.8596C20.0259 12.3973 20.0006 12.9488 19.8587 13.4756C19.7167 14.0025 19.4615 14.492 19.1109 14.91C18.7602 15.3281 18.3226 15.6646 17.8284 15.896C17.3343 16.1275 16.7956 16.2483 16.25 16.2501Z" fill="" fill-opacity="1"/>
</svg>
