<svg width="1320" height="913" viewBox="0 0 1320 913" fill="none" xmlns="http://www.w3.org/2000/svg">
<g filter="url(#filter0_f_105_65)">
<path d="M634.644 180.973C714.261 177.539 769.598 350.686 737.511 484.964C706.232 615.864 655.196 542.93 474.582 594.83C514.53 556.973 172.695 559.925 208.97 515.062C245.246 470.2 428.072 355.964 472.895 317.648C517.718 279.331 555.028 184.408 634.644 180.973Z" fill="#6F00DD"/>
<path d="M762.375 463.657C668.053 516.99 726.524 544.305 850.373 713.45C908.76 740.139 1011.99 744.295 1062.2 685.337C1112.41 626.379 1009.18 550.158 999.699 478.714C990.217 407.271 856.697 410.323 762.375 463.657Z" fill="#FF003D"/>
<path d="M983.291 450.01C1066.43 517.129 989.063 519.513 916.231 634.069C910.57 619.167 892.817 604.887 867.087 666.985C834.925 744.608 787.115 704.335 720.259 697.441C653.403 690.546 604.108 675.493 595.451 599.86C586.794 524.227 621.017 532.368 692.542 488.597C764.067 444.827 741.654 432.034 831.412 398.183C921.17 364.333 900.157 382.89 983.291 450.01Z" fill="#ED00D5"/>
</g>
<g style="mix-blend-mode:color-dodge" filter="url(#filter1_f_105_65)">
<path d="M618.866 273.519C698.234 268.208 747.269 393.866 710.641 493.935C674.936 591.487 626.683 539.524 445.094 584.076C486.179 554.784 145.825 568.896 183.499 534.57C221.173 500.245 407.141 409.681 453.094 379.881C499.047 350.081 539.499 278.83 618.866 273.519Z" fill="#6F00DD"/>
<path d="M826.299 455.173C731.977 508.506 790.447 535.822 914.296 704.966C972.683 731.655 1075.91 735.811 1126.12 676.853C1176.33 617.895 1073.1 541.674 1063.62 470.231C1054.14 398.787 920.621 401.84 826.299 455.173Z" fill="#FF003D"/>
<path d="M628.069 303.834C690.843 354.504 632.426 356.305 577.428 442.79C573.154 431.54 559.749 420.76 540.319 467.641C516.032 526.242 479.932 495.84 429.449 490.636C378.966 485.432 341.744 474.07 335.208 416.971C328.673 359.872 354.515 366.018 408.524 332.972C462.533 299.926 445.61 290.269 513.387 264.712C581.164 239.155 565.296 253.164 628.069 303.834Z" fill="#ED00D5"/>
</g>
<defs>
<filter id="filter0_f_105_65" x="26.2697" y="0.923096" width="1229.63" height="911.231" filterUnits="userSpaceOnUse" color-interpolation-filters="sRGB">
<feFlood flood-opacity="0" result="BackgroundImageFix"/>
<feBlend mode="normal" in="SourceGraphic" in2="BackgroundImageFix" result="shape"/>
<feGaussianBlur stdDeviation="90" result="effect1_foregroundBlur_105_65"/>
</filter>
<filter id="filter1_f_105_65" x="0.581177" y="72.2312" width="1319.24" height="831.439" filterUnits="userSpaceOnUse" color-interpolation-filters="sRGB">
<feFlood flood-opacity="0" result="BackgroundImageFix"/>
<feBlend mode="normal" in="SourceGraphic" in2="BackgroundImageFix" result="shape"/>
<feGaussianBlur stdDeviation="90" result="effect1_foregroundBlur_105_65"/>
</filter>
</defs>
</svg>
