<svg width="24" height="18" viewBox="0 0 24 18" fill="none" xmlns="http://www.w3.org/2000/svg">
<path d="M12 5.24989C11.2583 5.24989 10.5333 5.46982 9.9166 5.88188C9.29992 6.29393 8.81927 6.8796 8.53544 7.56483C8.25161 8.25005 8.17735 9.00405 8.32204 9.73148C8.46674 10.4589 8.82389 11.1271 9.34834 11.6515C9.87279 12.176 10.541 12.5331 11.2684 12.6778C11.9958 12.8225 12.7498 12.7483 13.4351 12.4644C14.1203 12.1806 14.7059 11.7 15.118 11.0833C15.5301 10.4666 15.75 9.74157 15.75 8.99989C15.75 8.00533 15.3549 7.0515 14.6516 6.34824C13.9484 5.64498 12.9946 5.24989 12 5.24989ZM12 11.2499C11.555 11.2499 11.12 11.1179 10.75 10.8707C10.3799 10.6235 10.0916 10.2721 9.92126 9.86093C9.75096 9.44979 9.70641 8.99739 9.79322 8.56094C9.88004 8.12448 10.0943 7.72357 10.409 7.4089C10.7237 7.09423 11.1246 6.87994 11.561 6.79312C11.9975 6.70631 12.4499 6.75086 12.861 6.92116C13.2722 7.09146 13.6236 7.37985 13.8708 7.74986C14.118 8.11987 14.25 8.55488 14.25 8.99989C14.25 9.59663 14.0129 10.1689 13.591 10.5909C13.169 11.0128 12.5967 11.2499 12 11.2499ZM18.9103 11.9193C18.5881 12.6811 18.1421 13.3843 17.5903 14.0005C17.4567 14.1451 17.2716 14.2313 17.075 14.2406C16.8784 14.2499 16.686 14.1816 16.5393 14.0503C16.3926 13.919 16.3034 13.7353 16.291 13.5389C16.2786 13.3424 16.3439 13.1489 16.4728 13.0002C17.4576 11.9006 18.0021 10.4764 18.0021 9.00036C18.0021 7.52427 17.4576 6.10007 16.4728 5.00051C16.4053 4.92744 16.353 4.84167 16.3189 4.74819C16.2848 4.6547 16.2697 4.55537 16.2744 4.45599C16.2791 4.35661 16.3036 4.25915 16.3463 4.16931C16.3891 4.07946 16.4492 3.99901 16.5234 3.93265C16.5975 3.86629 16.6841 3.81535 16.7781 3.78278C16.8721 3.75022 16.9717 3.73669 17.071 3.74297C17.1703 3.74926 17.2673 3.77524 17.3565 3.8194C17.4457 3.86356 17.5251 3.92502 17.5903 4.0002C18.5373 5.05989 19.1641 6.36662 19.3978 7.76847C19.6314 9.17031 19.4624 10.6097 18.9103 11.9193ZM6.46874 6.66458C6.02622 7.71211 5.8905 8.86383 6.0774 9.98554C6.26429 11.1072 6.76611 12.1527 7.52436 13.0002C7.65331 13.1489 7.7186 13.3424 7.70616 13.5389C7.69373 13.7353 7.60455 13.919 7.45788 14.0503C7.31121 14.1816 7.1188 14.2499 6.92218 14.2406C6.72555 14.2313 6.54047 14.1451 6.40686 14.0005C5.17554 12.6261 4.49465 10.8457 4.49465 9.00036C4.49465 7.15505 5.17554 5.37462 6.40686 4.0002C6.53951 3.85164 6.72575 3.76186 6.92459 3.7506C7.12344 3.73935 7.31861 3.80755 7.46718 3.9402C7.61574 4.07285 7.70552 4.25908 7.71677 4.45793C7.72803 4.65678 7.65983 4.85195 7.52718 5.00051C7.08468 5.49278 6.727 6.05512 6.46874 6.66458ZM23.25 8.99989C23.2545 11.9453 22.0998 14.7741 20.0353 16.8749C19.967 16.9479 19.8848 17.0065 19.7935 17.0473C19.7022 17.0881 19.6037 17.1102 19.5037 17.1124C19.4038 17.1146 19.3044 17.0967 19.2114 17.0599C19.1185 17.0231 19.0338 16.968 18.9624 16.898C18.891 16.828 18.8344 16.7444 18.7957 16.6522C18.7571 16.56 18.7373 16.461 18.7376 16.361C18.7378 16.261 18.758 16.1621 18.797 16.07C18.836 15.9779 18.893 15.8946 18.9647 15.8249C20.7522 14.0037 21.7537 11.5537 21.7537 9.00176C21.7537 6.44986 20.7522 3.99986 18.9647 2.17864C18.8249 2.03667 18.7473 1.845 18.7489 1.6458C18.7505 1.4466 18.8311 1.25619 18.9731 1.11645C19.1151 0.976715 19.3068 0.899101 19.506 0.900684C19.7052 0.902266 19.8956 0.982915 20.0353 1.12489C22.0998 3.22567 23.2545 6.05451 23.25 8.99989ZM5.0353 15.823C5.10437 15.8933 5.15891 15.9765 5.19582 16.0679C5.23273 16.1593 5.25128 16.257 5.25041 16.3556C5.24954 16.4541 5.22926 16.5515 5.19075 16.6422C5.15223 16.733 5.09623 16.8152 5.02593 16.8843C4.95563 16.9533 4.87242 17.0079 4.78104 17.0448C4.68966 17.0817 4.59191 17.1002 4.49336 17.0994C4.39481 17.0985 4.2974 17.0782 4.20669 17.0397C4.11598 17.0012 4.03374 16.9452 3.96468 16.8749C1.90047 14.7735 0.743896 11.9456 0.743896 8.99989C0.743896 6.05422 1.90047 3.22632 3.96468 1.12489C4.03298 1.05187 4.11519 0.993236 4.20648 0.952448C4.29777 0.911661 4.39629 0.889538 4.49625 0.887381C4.59622 0.885225 4.6956 0.903078 4.78856 0.939891C4.88153 0.976704 4.96619 1.03173 5.03757 1.10174C5.10896 1.17175 5.16563 1.25533 5.20424 1.34756C5.24285 1.43979 5.26264 1.53881 5.26243 1.6388C5.26221 1.73878 5.24201 1.83772 5.20301 1.92978C5.164 2.02185 5.10698 2.10518 5.0353 2.17489C3.24774 3.99611 2.24628 6.44611 2.24628 8.99801C2.24628 11.5499 3.24774 13.9999 5.0353 15.8211V15.823Z" fill=""/>
</svg>
