<svg width="38" height="40" viewBox="0 0 38 40" fill="none" xmlns="http://www.w3.org/2000/svg">
<path d="M0.992637 27.7862C0.90396 27.5411 1.21194 27.3498 1.38548 27.544C3.51468 29.9321 10.2808 36.4982 19.2334 35.0556C23.3325 34.3955 27.1475 32.3575 29.4798 28.8052C30.7366 26.8918 31.6529 24.7214 31.4212 22.3892C31.2782 20.9514 30.8519 19.5411 30.1683 18.272C28.9268 15.9653 26.6679 13.889 24.2145 12.9848C24.2145 12.9848 21.148 11.8549 20.1125 14.0342C19.077 16.2134 20.9888 17.6247 21.7449 17.8669C22.379 18.0699 23.8541 17.9042 24.6417 16.7273C24.7885 16.5086 25.127 16.5978 25.1461 16.8617C25.251 18.2661 25.0517 20.9553 22.421 22.7893C18.7175 25.3716 15.4126 23.5563 14.4963 22.9914C11.3869 21.074 10.3333 16.4605 12.6961 13.5546C12.7809 13.4496 12.6741 13.2986 12.5492 13.3466C11.5337 13.737 9.108 14.9217 7.48702 17.7816C7.35734 18.0101 7.01503 17.9346 6.98643 17.6718C6.80717 16.0055 6.97594 12.0226 11.7073 8.46545C17.8727 3.83043 26.2236 7.12673 26.2426 7.13359C26.2608 7.13948 32.9773 9.24123 36.2784 16.6155C39.5833 23.9996 34.1673 31.5445 31.7387 33.9248C29.3091 36.305 24.2126 40.7439 15.8894 39.5327C8.23172 38.4205 2.56117 32.1447 0.992637 27.7862Z" fill="white" fill-opacity="0.4"/>
<path d="M29.6581 21.2613C29.7811 21.0661 30.0758 21.1328 30.1044 21.3623C30.3609 23.414 30.4066 29.6457 22.2236 32.5546C14.8987 35.1585 4.90491 31.8112 1.4694 24.4654C0.498718 22.3901 0.0353099 20.0883 0.00193691 17.7983C-0.0485993 14.2666 0.888705 11.2243 2.93971 8.39777C5.0794 5.45061 7.97808 3.1331 11.2324 1.56684C17.2529 -1.33029 25.3444 -0.0700301 30.441 4.19525C32.6159 6.01553 34.4915 8.47917 35.6071 11.1017C35.7139 11.3528 35.404 11.5705 35.2124 11.3783C33.1337 9.29319 27.3554 4.22958 20.2717 4.22958C11.3516 4.22958 7.2496 10.9271 7.2496 10.9271C7.2496 10.9271 2.39144 18.1896 9.0813 24.2016C15.5642 30.0263 26.0071 27.0654 29.6581 21.2613Z" fill="white" fill-opacity="0.4"/>
</svg>
