<svg width="98" height="98" viewBox="0 0 98 98" fill="none" xmlns="http://www.w3.org/2000/svg">
<path d="M93.9167 49.0002C93.9167 73.8268 73.8267 93.9168 49 93.9168C24.1734 93.9168 4.08337 73.8268 4.08337 49.0002C4.08337 24.1735 24.1734 4.0835 49 4.0835C73.8267 4.0835 93.9167 24.1735 93.9167 49.0002ZM53.0834 16.5785C61.7809 17.681 69.7025 22.2543 75.0109 29.2368L82.1159 25.1535C78.7606 20.4226 74.436 16.4608 69.43 13.5319C64.424 10.6029 58.8514 8.77395 53.0834 8.16683V16.5785ZM15.8842 25.1535L22.9892 29.2368C25.6214 25.7775 28.9159 22.8767 32.6805 20.7034C36.4451 18.5302 40.6047 17.128 44.9167 16.5785V8.16683C39.1487 8.77395 33.5761 10.6029 28.5701 13.5319C23.5641 16.4608 19.2395 20.4226 15.8842 25.1535ZM11.8009 65.7418L18.865 61.6585C17.1872 57.6492 16.3231 53.3464 16.3231 49.0002C16.3231 44.654 17.1872 40.3511 18.865 36.3418L11.8009 32.2585C9.39951 37.5131 8.15665 43.2228 8.15665 49.0002C8.15665 54.7775 9.39951 60.4872 11.8009 65.7418ZM44.9167 81.4218C40.6047 80.8724 36.4451 79.4701 32.6805 77.2969C28.9159 75.1236 25.6214 72.2228 22.9892 68.7635L15.8842 72.8468C19.2395 77.5777 23.5641 81.5395 28.5701 84.4685C33.5761 87.3974 39.1487 89.2264 44.9167 89.8335V81.4218ZM82.1159 72.8468L75.0109 68.7635C72.3787 72.2228 69.0842 75.1236 65.3196 77.2969C61.5549 79.4701 57.3954 80.8724 53.0834 81.4218V89.5885C64.7209 88.4043 75.2967 82.3202 82.1159 72.8468ZM86.1992 65.7418C91.0584 55.1252 91.0584 42.8752 86.1992 32.2585L79.135 36.3418C80.8129 40.3511 81.677 44.654 81.677 49.0002C81.677 53.3464 80.8129 57.6492 79.135 61.6585L86.1992 65.7418ZM61.25 49.0002L49 28.5835L36.75 49.0002L49 69.4168L61.25 49.0002Z" fill="url(#paint0_linear_105_25)"/>
<defs>
<linearGradient id="paint0_linear_105_25" x1="78.5" y1="-26.5" x2="61.3079" y2="124.505" gradientUnits="userSpaceOnUse">
<stop stop-color="#FD035F"/>
<stop offset="1" stop-color="#6C2C8C"/>
</linearGradient>
</defs>
</svg>
