<svg width="10" height="18" viewBox="0 0 10 18" fill="none" xmlns="http://www.w3.org/2000/svg">
<path d="M0.469273 15.9694C0.39959 16.039 0.344316 16.1218 0.306603 16.2128C0.268891 16.3039 0.24948 16.4014 0.24948 16.5C0.24948 16.5985 0.268891 16.6961 0.306603 16.7872C0.344316 16.8782 0.39959 16.9609 0.469273 17.0306C0.538956 17.1003 0.621681 17.1556 0.712726 17.1933C0.803771 17.231 0.901352 17.2504 0.999898 17.2504C1.09844 17.2504 1.19603 17.231 1.28707 17.1933C1.37812 17.1556 1.46084 17.1003 1.53052 17.0306L9.03052 9.53061C9.10026 9.46096 9.15557 9.37824 9.19332 9.2872C9.23106 9.19615 9.25049 9.09855 9.25049 8.99999C9.25049 8.90143 9.23106 8.80383 9.19332 8.71278C9.15557 8.62174 9.10026 8.53902 9.03052 8.46936L1.53052 0.969365C1.38979 0.828634 1.19892 0.749573 0.999898 0.749573C0.800876 0.749573 0.610003 0.828634 0.469273 0.969365C0.328543 1.1101 0.24948 1.30097 0.24948 1.49999C0.24948 1.69901 0.328543 1.88988 0.469273 2.03061L7.43959 8.99999L0.469273 15.9694Z" fill="url(#paint0_linear_31_2333)"/>
<defs>
<linearGradient id="paint0_linear_31_2333" x1="8.62384" y1="2.46841" x2="-6.60821" y2="5.60799" gradientUnits="userSpaceOnUse">
<stop stop-color="#FD035F"/>
<stop offset="1" stop-color="#6C2C8C"/>
</linearGradient>
</defs>
</svg>
