<svg width="10" height="18" viewBox="0 0 10 18" fill="none" xmlns="http://www.w3.org/2000/svg">
<path d="M9.53061 15.9694C9.60029 16.039 9.65556 16.1218 9.69327 16.2128C9.73099 16.3039 9.7504 16.4014 9.7504 16.5C9.7504 16.5985 9.73099 16.6961 9.69327 16.7872C9.65556 16.8782 9.60029 16.9609 9.53061 17.0306C9.46092 17.1003 9.3782 17.1556 9.28715 17.1933C9.19611 17.231 9.09853 17.2504 8.99998 17.2504C8.90143 17.2504 8.80385 17.231 8.71281 17.1933C8.62176 17.1556 8.53904 17.1003 8.46935 17.0306L0.969354 9.53061C0.899622 9.46096 0.844303 9.37824 0.80656 9.2872C0.768817 9.19615 0.74939 9.09855 0.74939 8.99999C0.74939 8.90143 0.768817 8.80383 0.80656 8.71278C0.844303 8.62174 0.899622 8.53902 0.969354 8.46936L8.46935 0.969365C8.61009 0.828634 8.80096 0.749573 8.99998 0.749573C9.199 0.749573 9.38987 0.828634 9.53061 0.969365C9.67134 1.1101 9.7504 1.30097 9.7504 1.49999C9.7504 1.69901 9.67134 1.88988 9.53061 2.03061L2.56029 8.99999L9.53061 15.9694Z" fill="url(#paint0_linear_14_2241)"/>
<defs>
<linearGradient id="paint0_linear_14_2241" x1="1.37604" y1="2.46841" x2="16.6081" y2="5.60799" gradientUnits="userSpaceOnUse">
<stop stop-color="#FD035F"/>
<stop offset="1" stop-color="#6C2C8C"/>
</linearGradient>
</defs>
</svg>
