<svg width="235" height="81" viewBox="0 0 235 81" fill="none" xmlns="http://www.w3.org/2000/svg">
<path d="M209.026 64.3844H211.839V80.0081H209.279L199.042 67.6059V80.0304H196.23V64.4067H199.86L209.063 75.4995L209.026 64.3844Z" fill="white"/>
<path d="M137.142 80.3876C134.766 80.4453 132.458 79.5846 130.699 77.9846C129.895 77.2524 129.253 76.3604 128.813 75.3656C128.373 74.3708 128.146 73.2952 128.146 72.2075C128.146 71.1199 128.373 70.0442 128.813 69.0494C129.253 68.0546 129.895 67.1626 130.699 66.4305C132.448 64.814 134.762 63.9508 137.142 64.0274C138.767 63.9863 140.373 64.3737 141.8 65.1508C143.127 65.8612 144.251 66.8982 145.066 68.164L142.462 69.5999C141.893 68.7187 141.102 68.0034 140.167 67.5265C139.233 67.0497 138.19 66.8281 137.142 66.8843C135.556 66.826 134.009 67.3862 132.827 68.4467C132.285 68.9134 131.852 69.4942 131.56 70.1475C131.268 70.8009 131.124 71.5107 131.138 72.2261C131.119 72.9434 131.261 73.6558 131.553 74.3111C131.846 74.9663 132.281 75.5479 132.827 76.013C134.009 77.0546 135.546 77.6032 137.12 77.5456C138.167 77.6026 139.21 77.3822 140.144 76.9066C141.078 76.4311 141.87 75.7173 142.44 74.8375L145.044 76.266C144.229 77.5317 143.105 78.5687 141.777 79.2791C140.357 80.0505 138.758 80.4329 137.142 80.3876Z" fill="white"/>
<path d="M160.154 76.757H151.308L149.924 80.0306H146.606L153.607 64.4069H157.848L164.856 80.0306H161.582L160.154 76.757ZM152.431 74.1456H159.023L155.757 66.4305L152.431 74.1456Z" fill="white"/>
<path d="M174.617 77.7241C175.756 77.7824 176.889 77.525 177.89 76.9802C178.155 76.8229 178.369 76.5931 178.508 76.318C178.653 76.0952 178.74 75.8393 178.761 75.574C178.767 75.327 178.714 75.0821 178.607 74.8595C178.499 74.637 178.341 74.4433 178.143 74.2944C177.681 73.9417 177.135 73.7137 176.559 73.6322C175.899 73.5281 175.185 73.4239 174.416 73.3197C173.672 73.223 172.831 73.1189 172.065 72.9626C171.332 72.8216 170.613 72.6174 169.915 72.3526C169.273 72.0893 168.723 71.6445 168.33 71.0729C167.906 70.4078 167.693 69.6295 167.72 68.8409C167.711 68.0662 167.915 67.3039 168.308 66.6364C168.702 65.9689 169.27 65.4217 169.952 65.0541C171.292 64.3 172.813 63.9293 174.349 63.9827C175.667 63.9164 176.982 64.1429 178.202 64.6459C179.421 65.1489 180.514 65.9159 181.402 66.8917L178.85 68.2755C178.277 67.7182 177.606 67.2717 176.871 66.9587C176.045 66.6912 175.179 66.5704 174.312 66.6016C173.359 66.5626 172.412 66.7566 171.552 67.167C171.286 67.2889 171.059 67.4821 170.896 67.725C170.733 67.9679 170.641 68.2512 170.629 68.5434C170.624 68.7684 170.679 68.9907 170.787 69.188C170.895 69.3852 171.054 69.5504 171.247 69.6668C171.729 69.9644 172.269 70.157 172.831 70.2322C173.493 70.3364 174.208 70.3884 174.974 70.4852C175.764 70.5568 176.549 70.6761 177.325 70.8423C178.065 70.981 178.787 71.2057 179.475 71.5119C180.123 71.8118 180.672 72.289 181.06 72.8882C181.489 73.6148 181.703 74.448 181.677 75.2913C181.684 76.0857 181.45 76.8635 181.008 77.5233C180.553 78.2484 179.921 78.8452 179.17 79.2567C177.771 80.0045 176.202 80.3763 174.617 80.3355C171.299 80.3355 168.665 79.2567 166.798 77.062L169.357 75.6335C169.991 76.2852 170.734 76.8215 171.552 77.2182C172.528 77.5932 173.571 77.7653 174.617 77.7241Z" fill="white"/>
<path d="M190.159 64.3844V80.0081H187.294V64.3844H190.159Z" fill="white"/>
<path d="M232.388 78.0367C230.651 79.6339 228.354 80.4791 225.997 80.3877C223.622 80.4465 221.316 79.5855 219.561 77.9846C218.755 77.2537 218.11 76.3621 217.669 75.3671C217.228 74.3722 217 73.2959 217 72.2075C217 71.1192 217.228 70.0429 217.669 69.048C218.11 68.053 218.755 67.1614 219.561 66.4305C221.306 64.8131 223.619 63.9496 225.997 64.0274C228.374 63.9674 230.682 64.8284 232.44 66.4305C233.261 67.1485 233.915 68.0371 234.357 69.0343C234.799 70.0315 235.018 71.1132 234.999 72.2038C235.009 73.3066 234.78 74.3986 234.33 75.4052C233.879 76.4117 233.217 77.3093 232.388 78.0367ZM221.704 76.0428C222.93 77.0103 224.448 77.5322 226.01 77.5228C227.571 77.5133 229.083 76.973 230.297 75.9907C230.822 75.5125 231.242 74.9298 231.529 74.2799C231.815 73.6301 231.963 72.9274 231.963 72.2171C231.962 71.5067 231.813 70.8044 231.524 70.1551C231.236 69.5058 230.816 68.9239 230.289 68.4467C229.079 67.4509 227.56 66.9065 225.993 66.9065C224.426 66.9065 222.907 67.4509 221.696 68.4467C221.154 68.9134 220.721 69.4942 220.429 70.1475C220.137 70.8009 219.993 71.5107 220.008 72.2261C219.998 72.9471 220.145 73.6615 220.437 74.3204C220.73 74.9792 221.162 75.5669 221.704 76.0428Z" fill="white"/>
<path d="M69.4025 34.2233C69.4025 40.9921 67.3953 47.6088 63.6348 53.2368C59.8743 58.8648 54.5293 63.2513 48.2759 65.8416C42.0224 68.4318 35.1412 69.1096 28.5025 67.7891C21.8638 66.4685 15.7658 63.2091 10.9796 58.4229C6.19339 53.6367 2.93393 47.5386 1.61342 40.9C0.292904 34.2613 0.970637 27.3801 3.56092 21.1266C6.1512 14.8731 10.5377 9.52818 16.1657 5.76767C21.7937 2.00716 28.4104 0 35.1792 0C44.2557 0 52.9606 3.60566 59.3787 10.0238C65.7968 16.4419 69.4025 25.1467 69.4025 34.2233Z" fill="#6CA30F"/>
<path d="M53.8607 22.7659V15.3558H25.0312V53.1354H32.5455V38.5161H50.6913V31.0986H32.5455V22.7659H53.8607Z" fill="white"/>
<path d="M100.59 39.1261C103.24 38.6414 105.672 37.3408 107.547 35.4062C109.453 33.3166 110.476 30.5706 110.403 27.7431C110.423 25.6996 109.951 23.6813 109.027 21.8582C108.13 20.0489 106.727 18.5394 104.987 17.5133C102.636 16.0849 99.3627 15.4227 95.1741 15.4227H76.2843V53.1502H83.7986V40.1007H92.0791L102.324 53.1353H111.676L100.59 39.1261ZM83.8209 22.7584H95.1741C97.778 22.7584 99.638 23.0635 100.642 23.681C101.332 24.0938 101.893 24.6902 102.264 25.4035C102.634 26.1169 102.799 26.9192 102.74 27.7208C102.785 28.5205 102.614 29.3175 102.245 30.0283C101.876 30.739 101.322 31.3374 100.642 31.7606C99.6157 32.3707 97.778 32.6757 95.1741 32.6757H83.8209V22.7584Z" fill="white"/>
<path d="M127.79 45.822V37.3406H146.502V30.0272H127.79V22.6618H149.619V15.3558H120.276V53.1354H150.184V45.822H127.79Z" fill="white"/>
<path d="M189.601 35.7112C188.747 34.197 187.448 32.9817 185.881 32.2293C184.31 31.5038 182.663 30.9572 180.971 30.6C179.235 30.2221 177.479 29.9488 175.711 29.7816C173.97 29.6254 172.385 29.4245 170.957 29.2162C169.773 29.0822 168.636 28.6802 167.631 28.0407C167.265 27.7994 166.968 27.4663 166.771 27.0746C166.574 26.683 166.483 26.2465 166.508 25.8087C166.532 25.2255 166.71 24.659 167.024 24.1665C167.337 23.6741 167.775 23.273 168.293 23.0039C170.118 22.1076 172.139 21.6854 174.171 21.7763C176.031 21.7114 177.887 21.9888 179.646 22.5947C181.253 23.2226 182.701 24.1982 183.887 25.4516L184.14 25.712L190.687 21.9251L190.278 21.4639C188.359 19.3603 186.066 17.6322 183.515 16.3676C180.574 15.0571 177.374 14.4289 174.156 14.5299C170.657 14.441 167.203 15.3355 164.186 17.1115C162.568 18.0453 161.23 19.3972 160.314 21.0256C159.398 22.6539 158.937 24.4987 158.978 26.3667C158.898 28.3076 159.395 30.2287 160.407 31.8871C161.281 33.3219 162.582 34.4481 164.127 35.1086C165.701 35.7851 167.345 36.2842 169.03 36.5965C170.771 36.9536 172.511 37.2066 174.238 37.4075C175.964 37.6083 177.563 37.8167 178.992 38.1515C180.186 38.343 181.312 38.8345 182.265 39.5799C182.649 39.9052 182.954 40.3132 183.157 40.7731C183.361 41.2331 183.458 41.7332 183.441 42.2359C183.429 42.8031 183.25 43.3543 182.927 43.8206C182.602 44.3501 182.187 44.8185 181.7 45.2044C180.115 46.2758 177.764 46.8412 174.699 46.8412C172.479 46.9329 170.264 46.5499 168.204 45.7178C166.387 44.8692 164.768 43.6503 163.45 42.1392L163.197 41.8267L156.598 45.7699L156.962 46.2237C161.151 51.387 167.132 54.0504 174.699 54.0504C178.333 54.15 181.924 53.2465 185.077 51.439C186.846 50.3916 188.323 48.9152 189.37 47.1462C190.369 45.5133 190.916 43.644 190.955 41.73C191.07 39.637 190.601 37.5532 189.601 35.7112Z" fill="white"/>
<path d="M227.276 15.3558V29.618H207.546V15.3558H199.823V53.1354H207.546V37.3406H227.276V53.1354H234.999V15.3558H227.276Z" fill="white"/>
</svg>
