<svg width="175" height="83" viewBox="0 0 175 83" fill="none" xmlns="http://www.w3.org/2000/svg">
<path d="M126.03 54.4953H144.191C145.916 48.0556 147.753 41.5039 149.478 35.0643C151.203 28.6247 153.04 22.0729 154.765 15.6395H170.746C172.129 10.5763 173.505 5.43827 175 0.350098H124.878C123.502 5.40713 122.119 10.5763 120.624 15.6395H136.605C134.737 22.0729 133.043 28.6247 131.199 35.0643C129.356 41.5039 127.755 48.0556 126.03 54.4953Z" fill="white"/>
<path d="M13.2556 49.7808C10.3783 45.8696 10.0358 41.0617 12.01 34.0305H29.5789C28.5451 37.8232 29.8093 40.3517 32.9108 40.3517C35.9002 40.3517 38.6591 37.8232 39.693 34.0305C41.1876 28.4254 42.8069 22.7642 44.2954 17.2463C45.79 11.6412 47.4093 5.9801 48.8915 0.350098H66.479C64.9844 5.868 63.3651 11.498 61.8829 17.0159C60.4006 22.5338 58.7689 28.17 57.2805 33.6879C55.3311 40.8126 52.4539 45.7575 47.3159 49.7808C37.0835 57.7088 19.1472 57.8272 13.2868 49.7808H13.2556Z" fill="white"/>
<path d="M57.7413 54.4951H104.413C105.796 49.5502 107.172 44.6053 108.442 39.6603H79.5825C80.1617 37.711 80.6226 35.7554 81.1955 33.7999H107.633C108.785 29.4404 110.049 25.0809 111.201 20.7213H84.7579C85.2187 18.853 85.7917 17.0407 86.2525 15.2035H114.645C116.028 10.2585 117.409 5.31566 118.787 0.374878H72.5699C70.0414 9.45512 67.6312 18.4357 65.0965 27.5035C62.5617 36.5713 60.1515 45.5643 57.7351 54.52L57.7413 54.4951Z" fill="white"/>
<path d="M7.96843 82.7698C11.5308 82.7698 14.0593 81.5243 16.5878 79.4379C16.0148 78.7466 15.554 78.0616 14.981 77.2519C12.9071 78.7466 11.3003 79.6684 8.88393 79.6684C5.32158 79.6684 3.48436 76.679 4.52441 72.9983C5.55824 69.3239 9.00849 66.3345 12.5708 66.3345C13.4684 66.2998 14.3603 66.4923 15.1637 66.894C15.9671 67.2957 16.6562 67.8937 17.167 68.6326C18.0887 67.8312 19.0084 67.0258 19.926 66.2161C18.5496 64.491 16.812 63.3451 13.3742 63.3451C7.62589 63.3451 2.45676 67.7046 0.962071 73.1166V73.2287C-0.420518 78.5162 2.56886 82.7698 7.97466 82.7698H7.96843ZM26.8202 82.4273H30.1521C31.186 80.9326 32.2198 79.4379 33.3719 77.8311H42.2218C42.4522 79.3258 42.5705 80.8205 42.9131 82.4273H46.3633C45.4416 76.1994 44.4077 69.8968 43.486 63.5755H40.3721C35.9005 69.8968 31.4164 76.2181 26.8202 82.4273ZM35.4396 74.9539C37.1647 72.4253 38.8898 69.8968 40.7271 67.3683C41.0758 69.8968 41.5367 72.4253 41.8792 74.9539H35.4396ZM65.2151 82.7698C69.1262 82.7698 72.4581 80.7022 73.4919 77.1648C74.2953 74.0508 72.6885 72.5686 69.0078 71.6469C65.5576 70.7251 64.8725 70.1522 65.3334 68.6575V68.5454C65.6759 67.2998 67.0523 66.3594 69.0078 66.3594C70.7377 66.3891 72.3881 67.0904 73.6102 68.3149C74.4136 67.5053 75.217 66.7019 76.0204 65.7864C75.2063 64.9743 74.2324 64.3401 73.1603 63.9241C72.0882 63.5082 70.9414 63.3195 69.7926 63.37C66.1181 63.37 62.78 65.556 61.8645 68.7696V68.8879C60.9427 72.3382 62.8983 73.4841 66.579 74.493C69.7926 75.3026 70.3718 75.9877 70.023 77.3703C69.6805 78.7466 68.0737 79.7805 65.9998 79.7805C64.995 79.7951 63.9995 79.5865 63.0851 79.1697C62.1707 78.7529 61.3603 78.1383 60.7123 77.3703C59.7968 78.1737 58.9872 78.9771 58.0717 79.7805C58.9813 80.753 60.0863 81.5221 61.3143 82.0373C62.5422 82.5525 63.8652 82.8022 65.1964 82.7698H65.2151ZM85.3311 82.4273H88.6693C90.3944 76.106 92.1133 69.8968 93.8384 63.5755H90.5065C88.7814 69.8968 87.0562 76.2181 85.3187 82.4273H85.3311ZM102.919 82.4273H106.138C107.384 77.9432 108.555 73.4592 109.819 68.9751C112.117 73.4592 114.303 77.9432 116.489 82.4273H119.248C120.967 76.106 122.692 69.8968 124.417 63.5755H121.197C120.052 67.935 118.787 72.2946 117.635 76.5669C115.449 72.2074 113.276 67.8479 111.083 63.5755H107.969C106.369 69.8968 104.625 76.2181 102.919 82.4273ZM142.354 82.7698C148.102 82.7698 153.501 78.292 154.884 72.9983C156.379 67.7108 153.501 63.3451 147.753 63.3451C142.005 63.3451 136.717 67.8292 135.223 73.1166V73.2287C133.846 78.4041 136.605 82.7698 142.354 82.7698ZM143.269 79.7805C139.476 79.7805 137.664 76.7973 138.673 73.1166C139.707 69.436 143.157 66.4466 146.838 66.4466C150.63 66.4466 152.443 69.436 151.434 73.1166V73.2287C150.4 76.7973 147.074 79.7805 143.269 79.7805Z" fill="white"/>
</svg>
