<svg width="240" height="68" viewBox="0 0 240 68" fill="none" xmlns="http://www.w3.org/2000/svg">
<path d="M150.689 20.4679V15.9422C150.689 11.8124 153.033 8.604 158.149 8.604C161.381 8.604 163.507 10.1072 163.507 11.0285C163.505 11.2732 163.409 11.5078 163.239 11.6838C163.069 11.8598 162.838 11.9637 162.594 11.9741C161.923 11.9741 161.204 10.4224 158.181 10.4224C154.577 10.4224 152.637 12.5317 152.637 15.9341V20.4679C152.637 23.8784 154.536 25.9796 158.238 25.9796C161.47 25.9796 162.125 24.3633 162.876 24.3633C163.112 24.3886 163.33 24.4984 163.49 24.6723C163.651 24.8461 163.743 25.0723 163.749 25.3088C163.749 26.2544 161.6 27.7333 158.149 27.7333C153.065 27.7333 150.689 24.6057 150.689 20.3952V20.4679Z" fill="white"/>
<path d="M177.561 18.8437H175.613C171.726 18.8437 168.113 19.2074 168.113 22.5047C168.113 24.9292 169.77 26.0687 171.92 26.0687C174.7 26.0687 177.577 23.523 177.577 21.7854L177.561 18.8437ZM179.509 16.2252V26.7314C179.505 26.8524 179.476 26.9714 179.425 27.0813C179.374 27.1912 179.302 27.2898 179.212 27.3711C179.123 27.4525 179.018 27.5151 178.903 27.5551C178.789 27.5952 178.668 27.6119 178.547 27.6042C178.307 27.6109 178.073 27.5233 177.896 27.3603C177.72 27.1972 177.614 26.9715 177.601 26.7314V24.8241C176.886 25.7303 175.982 26.4701 174.952 26.992C173.922 27.5139 172.791 27.8055 171.637 27.8467C168.582 27.8467 166.166 26.1819 166.166 22.6017C166.166 18.3507 169.9 17.2758 175.411 17.2758H177.561V16.2414C177.561 13.4694 176.171 10.4145 172.558 10.4145C170.013 10.4145 168.954 11.5217 168.388 11.5217C167.823 11.5217 167.523 10.8428 167.523 10.4468C167.523 9.58208 170.182 8.62036 172.639 8.62036C177.715 8.62036 179.509 12.3137 179.509 16.2414V16.2252Z" fill="white"/>
<path d="M193.716 23.054C193.716 17.2999 183.824 20.4679 183.824 13.8813C183.824 11.4568 185.578 8.64441 189.861 8.64441C192.286 8.64441 194.945 9.54956 194.945 10.4305C194.945 10.7861 194.549 11.4649 194.072 11.4649C193.595 11.4649 192.286 10.3901 189.902 10.3901C186.766 10.3901 185.659 12.3781 185.659 13.849C185.659 18.7708 195.583 15.6755 195.583 22.9409C195.583 25.9958 193.32 27.8626 189.393 27.8626C185.732 27.8626 183.396 26.2463 183.396 25.1634C183.396 24.7674 183.752 24.2582 184.107 24.2582C184.915 24.2582 185.724 26.1251 189.352 26.1251C192.528 26.1251 193.716 24.6946 193.716 23.0702V23.054Z" fill="white"/>
<path d="M201.58 9.63857V26.7152C201.555 26.9587 201.439 27.1838 201.254 27.3445C201.069 27.5052 200.83 27.5894 200.586 27.5799C200.347 27.5866 200.114 27.5002 199.938 27.3388C199.762 27.1775 199.655 26.9538 199.64 26.7152V9.63857C199.638 9.51983 199.663 9.40215 199.712 9.29393C199.761 9.18571 199.833 9.08961 199.923 9.01244C200.013 8.93528 200.12 8.87897 200.234 8.8475C200.349 8.81604 200.469 8.8102 200.586 8.8304C201.143 8.84657 201.58 9.16175 201.58 9.63857ZM202.057 1.46799C202.05 1.85614 201.893 2.22665 201.619 2.50115C201.344 2.77564 200.974 2.93261 200.586 2.93886C200.389 2.94315 200.194 2.90834 200.012 2.83644C199.829 2.76455 199.663 2.65702 199.522 2.52011C199.381 2.38321 199.269 2.21967 199.192 2.03904C199.116 1.8584 199.075 1.66428 199.074 1.46799C199.08 1.27623 199.123 1.08742 199.202 0.912698C199.281 0.737971 199.395 0.580849 199.536 0.450575C199.676 0.320301 199.842 0.219504 200.022 0.154122C200.203 0.0887399 200.394 0.0600911 200.586 0.0698595C200.965 0.0653625 201.331 0.208961 201.605 0.47009C201.88 0.731219 202.042 1.08926 202.057 1.46799Z" fill="white"/>
<path d="M208.756 26.715C208.73 26.9579 208.613 27.1818 208.429 27.3421C208.244 27.5024 208.006 27.5873 207.762 27.5798C207.522 27.5887 207.288 27.5032 207.109 27.3416C206.931 27.18 206.823 26.9551 206.809 26.715V9.63845C206.809 9.16163 207.205 8.83029 207.762 8.83029C207.878 8.81807 207.996 8.82951 208.107 8.86394C208.219 8.89836 208.323 8.95505 208.412 9.03058C208.501 9.1061 208.574 9.19891 208.626 9.30338C208.678 9.40786 208.709 9.52184 208.716 9.63845V11.6185C209.244 10.6794 210.018 9.90241 210.955 9.37117C211.892 8.83993 212.957 8.57467 214.034 8.604C215.935 8.64625 217.743 9.43118 219.073 10.7907C220.402 12.1502 221.146 13.9761 221.145 15.8775V26.707C221.142 26.8317 221.112 26.9543 221.059 27.0671C221.005 27.1799 220.929 27.2805 220.835 27.3624C220.741 27.4444 220.631 27.506 220.512 27.5434C220.393 27.5808 220.267 27.5932 220.143 27.5798C220.023 27.5899 219.901 27.5748 219.787 27.5354C219.673 27.4961 219.568 27.4334 219.479 27.3514C219.39 27.2693 219.319 27.1696 219.27 27.0587C219.222 26.9477 219.197 26.828 219.198 26.707V15.8775C219.163 14.4668 218.595 13.1217 217.608 12.1126C216.622 11.1036 215.29 10.5055 213.88 10.4385C213.184 10.4486 212.496 10.5986 211.859 10.8796C211.222 11.1606 210.647 11.5669 210.17 12.0742C209.693 12.5816 209.322 13.1798 209.081 13.8331C208.839 14.4865 208.732 15.1817 208.764 15.8775V26.7231L208.756 26.715Z" fill="white"/>
<path d="M238.06 15.8696C238.06 14.4528 237.497 13.094 236.496 12.0922C235.494 11.0904 234.135 10.5276 232.718 10.5276C231.302 10.5276 229.943 11.0904 228.941 12.0922C227.939 13.094 227.376 14.4528 227.376 15.8696V20.4681C227.383 21.8945 227.94 23.2632 228.93 24.2897C229.921 25.3163 231.269 25.9216 232.694 25.9798C234.123 25.9182 235.474 25.3133 236.471 24.2888C237.468 23.2644 238.037 21.8977 238.06 20.4681V15.8696ZM240 15.8696V20.4681C240 22.3971 239.234 24.2472 237.87 25.6112C236.505 26.9753 234.655 27.7416 232.726 27.7416C230.797 27.7416 228.947 26.9753 227.583 25.6112C226.219 24.2472 225.453 22.3971 225.453 20.4681V15.8696C225.453 13.9405 226.219 12.0905 227.583 10.7264C228.947 9.36238 230.797 8.59607 232.726 8.59607C234.655 8.59607 236.505 9.36238 237.87 10.7264C239.234 12.0905 240 13.9405 240 15.8696Z" fill="white"/>
<path d="M12.3955 19.2961C12.3955 15.5947 15.5555 13.3722 21.0914 13.3722C23.6968 13.3164 26.2732 13.9285 28.5751 15.1502C28.8288 15.3185 29.0997 15.4594 29.3832 15.5705C30.0764 15.8455 30.8264 15.9462 31.5675 15.8639C32.3086 15.7816 33.0182 15.5187 33.6341 15.0983C34.25 14.6778 34.7533 14.1127 35.0999 13.4525C35.4466 12.7923 35.6259 12.0571 35.6223 11.3114C35.621 10.6102 35.4569 9.91883 35.1427 9.29191C34.8285 8.66498 34.373 8.11964 33.812 7.6989C33.6758 7.59009 33.5327 7.49021 33.3837 7.39988C30.151 5.37138 24.2594 4.84607 21.0995 4.84607C12.2097 4.84607 2.40658 8.77377 2.40658 20.2013C2.40658 38.4335 27.1042 34.8938 27.1042 46.4263C27.1042 51.049 23.0634 53.1179 18.481 53.1179C13.632 53.1179 11.0136 50.8793 8.95275 49.1579C8.72593 48.929 8.47686 48.7232 8.20923 48.5437C7.44836 48.0198 6.54689 47.7381 5.62309 47.7355C4.38775 47.7355 3.20289 48.2257 2.32862 49.0985C1.45434 49.9712 0.962104 51.1553 0.959963 52.3906C0.959213 53.1529 1.14217 53.9041 1.49335 54.5807C3.35214 58.4276 10.1892 62.0967 18.772 62.0967C29.3913 62.0967 37.0932 56.4395 37.0932 45.408C37.0932 25.519 12.3955 28.8325 12.3955 19.2961Z" fill="white"/>
<path d="M144.127 57.0619C144.125 55.8987 143.662 54.7838 142.839 53.9613C142.017 53.1387 140.902 52.6757 139.739 52.6736H122.363V10.1963C122.361 8.87089 121.833 7.60055 120.895 6.66414C119.957 5.72772 118.686 5.20178 117.361 5.20178C116.042 5.21243 114.781 5.74307 113.852 6.67833C112.923 7.6136 112.401 8.87787 112.398 10.1963V56.4316C112.396 57.2857 112.613 58.1261 113.029 58.872C113.445 59.6178 114.046 60.2441 114.774 60.6906C115.348 61.148 116.054 61.4086 116.787 61.4341H139.795C140.959 61.4341 142.075 60.9718 142.898 60.1488C143.721 59.3258 144.184 58.2096 144.184 57.0458L144.127 57.0619Z" fill="white"/>
<path d="M73.2506 15.2876C69.6382 15.286 66.1065 16.3557 63.102 18.3613C60.0975 20.3669 57.7552 23.2184 56.3713 26.5552C54.9874 29.892 54.6241 33.5643 55.3273 37.1075C56.0305 40.6508 57.7686 43.906 60.3218 46.4615C62.875 49.017 66.1287 50.758 69.6714 51.4643C73.214 52.1706 76.8866 51.8105 80.2246 50.4296C83.5626 49.0487 86.4162 46.7089 88.4245 43.7062C90.4328 40.7035 91.5055 37.1727 91.5071 33.5603C91.505 28.7175 89.5814 24.0735 86.1585 20.6476C82.7357 17.2218 78.0934 15.294 73.2506 15.2876ZM73.2506 52.4634C69.5068 52.4602 65.848 51.3468 62.7371 49.264C59.6261 47.1812 57.2027 44.2226 55.7733 40.7624C54.3439 37.3022 53.9728 33.4958 54.7069 29.8247C55.441 26.1536 57.2474 22.7826 59.8975 20.1382C62.5476 17.4937 65.9224 15.6946 69.5951 14.9683C73.2678 14.2421 77.0733 14.6213 80.5305 16.058C83.9876 17.4948 86.941 19.9245 89.0172 23.04C91.0933 26.1554 92.1989 29.8165 92.1941 33.5603C92.1898 38.5824 90.1923 43.3974 86.6404 46.9478C83.0885 50.4981 78.2727 52.4935 73.2506 52.4957V52.4634Z" fill="#FF9D00"/>
<path d="M76.1924 7.15758H76.0874C74.2072 6.95283 72.3104 6.95283 70.4302 7.15758H70.3736C70.2113 7.15394 70.0524 7.10992 69.9113 7.0295C69.7702 6.94907 69.6513 6.83478 69.5655 6.69692C69.4682 6.53896 69.4167 6.3571 69.4167 6.17161C69.4167 5.98612 69.4682 5.80426 69.5655 5.6463L72.491 0.571004C72.5789 0.418233 72.7054 0.291326 72.858 0.203077C73.0105 0.114828 73.1836 0.0683594 73.3598 0.0683594C73.536 0.0683594 73.7091 0.114828 73.8617 0.203077C74.0142 0.291326 74.1408 0.418233 74.2286 0.571004L77.1622 5.6463C77.2517 5.79802 77.2997 5.97066 77.3012 6.14681C77.3027 6.32296 77.2578 6.4964 77.1709 6.64965C77.084 6.80289 76.9583 6.93053 76.8064 7.01971C76.6545 7.10888 76.4817 7.15644 76.3056 7.15758H76.1924Z" fill="#FF9D00"/>
<path d="M73.2507 67.0509C73.0741 67.0509 72.9006 67.0047 72.7475 66.9168C72.5943 66.8289 72.4669 66.7024 72.3779 66.5498L69.4523 61.4745C69.3628 61.3228 69.3149 61.1502 69.3134 60.974C69.3119 60.7979 69.3568 60.6244 69.4437 60.4712C69.5305 60.3179 69.6563 60.1903 69.8082 60.1011C69.9601 60.012 70.1328 59.9644 70.309 59.9633H70.3737C72.2538 60.168 74.1507 60.168 76.0308 59.9633H76.1278C76.2903 59.9662 76.4495 60.0099 76.5907 60.0904C76.732 60.1709 76.8507 60.2856 76.936 60.4239C77.035 60.5812 77.0876 60.7633 77.0876 60.9492C77.0876 61.1351 77.035 61.3172 76.936 61.4745L74.0104 66.5498C73.9214 66.7024 73.794 66.8289 73.6408 66.9168C73.4877 67.0047 73.3142 67.0509 73.1376 67.0509H73.2507Z" fill="#FF9D00"/>
<path d="M100.656 37.4961C100.515 37.4946 100.376 37.4638 100.248 37.4056C100.12 37.3474 100.006 37.2631 99.9121 37.1581C99.8185 37.0531 99.7479 36.9298 99.7047 36.7959C99.6616 36.6621 99.6468 36.5207 99.6615 36.3808C99.8662 34.5007 99.8662 32.6038 99.6615 30.7236C99.6405 30.5403 99.671 30.3548 99.7495 30.1878C99.828 30.0208 99.9514 29.8789 100.106 29.7781C100.272 29.6773 100.461 29.6216 100.656 29.6165C100.832 29.6182 101.004 29.6655 101.157 29.7538L106.232 32.6875C106.385 32.7753 106.512 32.9019 106.6 33.0544C106.688 33.2069 106.735 33.3801 106.735 33.5563C106.735 33.7325 106.688 33.9056 106.6 34.0581C106.512 34.2107 106.385 34.3372 106.232 34.4251L101.157 37.3506C101.004 37.4365 100.831 37.4811 100.656 37.4799V37.4961Z" fill="#FF9D00"/>
<path d="M45.8376 37.4962C45.6622 37.4966 45.4897 37.4521 45.3365 37.3669L40.2612 34.4332C40.1084 34.3454 39.9815 34.2188 39.8933 34.0663C39.805 33.9138 39.7585 33.7407 39.7585 33.5645C39.7585 33.3882 39.805 33.2151 39.8933 33.0626C39.9815 32.9101 40.1084 32.7835 40.2612 32.6957L45.3365 29.7701C45.4886 29.6803 45.661 29.6302 45.8376 29.6246C46.0338 29.6238 46.2255 29.683 46.3871 29.7944C46.5432 29.8942 46.6682 30.0356 46.7482 30.2026C46.8281 30.3697 46.8598 30.5558 46.8397 30.7399C46.6349 32.6201 46.6349 34.5169 46.8397 36.3971C46.8571 36.5809 46.8241 36.766 46.7444 36.9326C46.6647 37.0991 46.5412 37.2409 46.3871 37.3426C46.2216 37.4445 46.0319 37.5003 45.8376 37.5043V37.4962Z" fill="#FF9D00"/>
<path d="M94.7076 17.2434C94.5537 17.2507 94.4004 17.2215 94.2599 17.1583C94.1195 17.0951 93.996 16.9997 93.8994 16.8797C92.6978 15.3948 91.3434 14.0404 89.8586 12.8389C89.7155 12.7227 89.6078 12.5687 89.5478 12.3944C89.4878 12.2201 89.4779 12.0325 89.5191 11.8529C89.5546 11.6733 89.6403 11.5073 89.7661 11.3743C89.892 11.2413 90.0529 11.1467 90.2303 11.1013L95.8875 9.58194C95.9707 9.55345 96.0582 9.53977 96.1461 9.54153C96.4093 9.54401 96.6612 9.64828 96.8492 9.83247C96.9724 9.95633 97.0611 10.1102 97.1064 10.2789C97.1518 10.4476 97.1523 10.6253 97.1078 10.7942L95.5804 16.4514C95.5329 16.6286 95.4378 16.7893 95.3052 16.9162C95.1727 17.043 95.0079 17.131 94.8288 17.1706H94.6267L94.7076 17.2434Z" fill="#FF9D00"/>
<path d="M50.2744 57.5388C50.01 57.535 49.7575 57.4276 49.5713 57.2397C49.4481 57.116 49.36 56.9617 49.316 56.7927C49.272 56.6238 49.2736 56.4461 49.3208 56.278L50.8401 50.6208C50.8904 50.4459 50.9867 50.2877 51.1189 50.1627C51.2511 50.0376 51.4143 49.9502 51.5917 49.9096C51.6616 49.9017 51.7321 49.9017 51.8019 49.9096C51.9556 49.903 52.1088 49.9324 52.2491 49.9956C52.3894 50.0587 52.5131 50.1538 52.61 50.2733C53.8091 51.7604 55.1638 53.1151 56.6509 54.3142C56.7948 54.4289 56.9039 54.5814 56.9663 54.7545C57.0286 54.9277 57.0417 55.1148 57.004 55.2949C56.9663 55.475 56.8793 55.6412 56.7527 55.7748C56.6262 55.9084 56.465 56.0043 56.2872 56.0517L50.63 57.5711C50.5498 57.6002 50.4648 57.6139 50.3795 57.6115L50.2744 57.5388Z" fill="#FF9D00"/>
<path d="M96.235 57.5386C96.152 57.5516 96.0675 57.5516 95.9845 57.5386L90.3273 56.0112C90.1505 55.9629 89.9902 55.8675 89.8635 55.7351C89.7368 55.6027 89.6485 55.4383 89.608 55.2596C89.5696 55.0792 89.5817 54.8917 89.643 54.7177C89.7044 54.5437 89.8125 54.3901 89.9556 54.2736C91.4288 53.0727 92.7699 51.7181 93.956 50.2328C94.0521 50.1118 94.1754 50.0152 94.3158 49.9506C94.4561 49.886 94.6097 49.8553 94.7642 49.861H94.9662C95.1465 49.898 95.3126 49.9852 95.4456 50.1124C95.5785 50.2397 95.6729 50.4018 95.7178 50.5803L97.2452 56.2375C97.2914 56.4063 97.2917 56.5844 97.2463 56.7534C97.2008 56.9224 97.1112 57.0763 96.9866 57.1992C96.7986 57.3834 96.5467 57.4877 96.2835 57.4901L96.235 57.5386Z" fill="#FF9D00"/>
<path d="M51.7856 17.2434C51.7158 17.2513 51.6453 17.2513 51.5755 17.2434C51.3959 17.2079 51.23 17.1223 51.097 16.9964C50.9639 16.8706 50.8693 16.7096 50.8239 16.5322L49.3046 10.875C49.2583 10.7069 49.2571 10.5294 49.301 10.3606C49.345 10.1918 49.4326 10.0375 49.5551 9.91332C49.7413 9.72544 49.9937 9.61809 50.2582 9.6143C50.344 9.60204 50.4311 9.60204 50.5168 9.6143L56.174 11.1417C56.35 11.1916 56.5095 11.2875 56.6359 11.4197C56.7624 11.5518 56.8512 11.7153 56.8933 11.8933C56.9308 12.0737 56.9182 12.261 56.857 12.4348C56.7957 12.6086 56.6881 12.7623 56.5458 12.8793C55.0725 14.0803 53.7314 15.4349 52.5453 16.9201C52.4492 17.0411 52.3259 17.1378 52.1856 17.2023C52.0452 17.2669 51.8916 17.2976 51.7372 17.2919L51.7856 17.2434Z" fill="#FF9D00"/>
<path d="M60.0453 10.3497C59.8453 10.3504 59.6503 10.2882 59.4876 10.1719C59.3354 10.0678 59.2148 9.92363 59.1392 9.75537C59.0637 9.58711 59.036 9.40125 59.0593 9.21827L59.827 3.39946C59.8513 3.22332 59.9206 3.05642 60.0282 2.91486C60.1358 2.7733 60.2781 2.66186 60.4413 2.59129C60.5651 2.54384 60.6965 2.51919 60.8292 2.51855C61.0501 2.51966 61.265 2.59036 61.4434 2.7206L66.0984 6.2927C66.2438 6.40437 66.3554 6.55404 66.421 6.72519C66.4867 6.89634 66.5037 7.08229 66.4702 7.2625C66.4379 7.44856 66.3553 7.62222 66.2314 7.76469C66.1075 7.90715 65.9469 8.01297 65.7671 8.07067C63.9525 8.59497 62.2016 9.31866 60.5463 10.2285C60.4023 10.3076 60.2418 10.3519 60.0776 10.3578L60.0453 10.3497Z" fill="#FF9D00"/>
<path d="M85.7288 64.5697C85.5088 64.5631 85.2955 64.4929 85.1146 64.3677L80.4595 60.7956C80.3142 60.6839 80.2025 60.5342 80.1369 60.3631C80.0713 60.1919 80.0543 60.006 80.0878 59.8258C80.1207 59.6387 80.2045 59.4644 80.3299 59.3219C80.4554 59.1793 80.6176 59.074 80.7989 59.0176C82.6087 58.4868 84.3562 57.7634 86.0116 56.8598C86.1582 56.7797 86.3215 56.7354 86.4884 56.7305C86.688 56.7324 86.8823 56.7944 87.0461 56.9083C87.199 57.0137 87.3199 57.1593 87.3954 57.3289C87.471 57.4986 87.4983 57.6858 87.4744 57.87L86.6662 63.6888C86.6435 63.8655 86.5748 64.0331 86.467 64.1749C86.3592 64.3167 86.2161 64.4277 86.052 64.497C85.9286 64.547 85.7972 64.5744 85.6641 64.5778L85.7288 64.5697Z" fill="#FF9D00"/>
<path d="M99.6939 26.7716H99.5161C99.3291 26.742 99.1541 26.6603 99.0112 26.536C98.8683 26.4117 98.7632 26.2497 98.708 26.0685C98.1809 24.2536 97.4545 22.5027 96.5421 20.8477C96.4573 20.6961 96.4138 20.5248 96.4158 20.3511C96.4179 20.1774 96.4654 20.0072 96.5537 19.8576C96.6421 19.708 96.768 19.5841 96.9191 19.4983C97.0702 19.4126 97.2412 19.3679 97.4149 19.3688H97.5442L103.347 20.177C103.524 20.1981 103.692 20.2662 103.834 20.3742C103.977 20.4821 104.087 20.6261 104.155 20.7912C104.224 20.9519 104.249 21.1284 104.226 21.302C104.204 21.4756 104.134 21.6398 104.026 21.7771L100.462 26.4322C100.366 26.5552 100.243 26.6549 100.103 26.7235C99.9633 26.7921 99.8095 26.8279 99.6535 26.8282L99.6939 26.7716Z" fill="#FF9D00"/>
<path d="M49.0459 47.7517C49.0059 47.7595 48.9647 47.7595 48.9247 47.7517L43.0978 46.9839C42.9206 46.9628 42.7522 46.8947 42.6102 46.7867C42.4681 46.6788 42.3574 46.5348 42.2896 46.3697C42.2217 46.2101 42.1979 46.0351 42.2206 45.8631C42.2434 45.6911 42.3119 45.5284 42.4189 45.3919L45.991 40.7287C46.0864 40.6052 46.2089 40.5053 46.349 40.4366C46.4891 40.3679 46.6431 40.3324 46.7992 40.3327C46.8581 40.324 46.918 40.324 46.977 40.3327C47.1641 40.3624 47.339 40.444 47.4819 40.5683C47.6248 40.6927 47.7299 40.8547 47.7852 41.0358C48.3158 42.8494 49.042 44.6 49.951 46.2566C50.0404 46.4178 50.0832 46.6006 50.0746 46.7847C50.0661 46.9688 50.0065 47.1469 49.9025 47.2991C49.8119 47.4306 49.6914 47.5386 49.5509 47.6145C49.4105 47.6903 49.254 47.7318 49.0944 47.7355L49.0459 47.7517Z" fill="#FF9D00"/>
<path d="M86.448 10.3497C86.2808 10.3549 86.1155 10.3129 85.9711 10.2284C84.319 9.31608 82.5707 8.58968 80.7585 8.06255C80.5772 8.00609 80.4149 7.90082 80.2895 7.75827C80.164 7.61572 80.0802 7.44139 80.0473 7.25438C80.0176 7.07308 80.0363 6.88716 80.1016 6.71544C80.1669 6.54372 80.2764 6.39229 80.419 6.2765L85.0741 2.71248C85.2489 2.57455 85.4656 2.50042 85.6883 2.50236C85.8214 2.50575 85.9528 2.53313 86.0762 2.58317C86.2413 2.65099 86.3852 2.76166 86.4932 2.90374C86.6012 3.04582 86.6693 3.21415 86.6904 3.39134L87.4582 9.21015C87.482 9.39351 87.4555 9.5799 87.3815 9.74933C87.3075 9.91875 87.1887 10.0648 87.0379 10.1719C86.8705 10.2846 86.674 10.3464 86.4722 10.3497H86.448Z" fill="#FF9D00"/>
<path d="M60.813 64.5697C60.682 64.57 60.5526 64.5425 60.4331 64.4889C60.2676 64.4218 60.1232 64.3113 60.0151 64.1691C59.907 64.0269 59.8392 63.8582 59.8189 63.6807L59.0512 57.8619C59.027 57.6797 59.0535 57.4943 59.1276 57.3261C59.2017 57.1579 59.3206 57.0134 59.4714 56.9082C59.6363 56.7895 59.8339 56.7245 60.0371 56.7224C60.2025 56.7202 60.365 56.765 60.5059 56.8517C62.1608 57.7641 63.9118 58.4905 65.7266 59.0176C65.9083 59.0719 66.0708 59.1768 66.1952 59.3198C66.3197 59.4629 66.401 59.6383 66.4297 59.8257C66.4629 60.0071 66.4458 60.1942 66.3803 60.3665C66.3148 60.5389 66.2033 60.6901 66.058 60.8036L61.4029 64.3676C61.2261 64.501 61.0102 64.572 60.7887 64.5697H60.813Z" fill="#FF9D00"/>
<path d="M97.4553 47.7518C97.2953 47.7501 97.1381 47.7095 96.9973 47.6334C96.8565 47.5574 96.7363 47.4482 96.6471 47.3154C96.5425 47.1619 96.4825 46.9825 96.474 46.7969C96.4654 46.6114 96.5086 46.4272 96.5986 46.2648C97.505 44.6107 98.2286 42.8628 98.7564 41.0521C98.8117 40.8709 98.9168 40.7089 99.0597 40.5846C99.2026 40.4603 99.3775 40.3786 99.5646 40.349C99.6236 40.3417 99.6834 40.3417 99.7424 40.349C99.899 40.3454 100.054 40.3796 100.195 40.4485C100.335 40.5174 100.457 40.6191 100.551 40.745L104.123 45.4C104.231 45.5408 104.3 45.7075 104.323 45.8833C104.346 46.0592 104.322 46.2381 104.254 46.4019C104.186 46.5657 104.076 46.7087 103.935 46.8166C103.794 46.9245 103.628 46.9934 103.452 47.0163L97.6331 47.7841H97.5038L97.4553 47.7518Z" fill="#FF9D00"/>
<path d="M46.8074 26.7717C46.6508 26.7753 46.4957 26.7411 46.355 26.6722C46.2144 26.6033 46.0924 26.5016 45.9992 26.3757L42.4352 21.7207C42.3266 21.5833 42.2573 21.4191 42.2346 21.2455C42.2118 21.072 42.2364 20.8954 42.3059 20.7347C42.3741 20.5707 42.4851 20.4279 42.6272 20.3213C42.7694 20.2147 42.9375 20.1482 43.1141 20.1286L48.9329 19.3608H49.0622C49.2222 19.3625 49.3794 19.4032 49.5202 19.4792C49.661 19.5552 49.7812 19.6644 49.8703 19.7973C49.9762 19.9499 50.0376 20.129 50.0476 20.3145C50.0576 20.5001 50.0158 20.6847 49.9269 20.8479C49.0101 22.4942 48.2783 24.237 47.7449 26.0444C47.6896 26.2256 47.5845 26.3876 47.4416 26.5119C47.2987 26.6362 47.1238 26.7178 46.9367 26.7475C46.875 26.7552 46.8125 26.7552 46.7508 26.7475L46.8074 26.7717Z" fill="#FF9D00"/>
</svg>
