<svg width="222" height="59" viewBox="0 0 222 59" fill="none" xmlns="http://www.w3.org/2000/svg">
<path d="M23.2537 36.1459L13.8706 41.0871V52.2017L23.2537 47.287V36.1459Z" fill="#722328"/>
<path d="M32.617 41.0872L23.2539 36.1459V47.2871L32.617 52.2017V41.0872ZM21.5158 21.4686C20.4378 23.59 18.9403 25.4705 17.1139 26.9959C14.63 28.9205 11.0605 29.8062 11.1205 29.5464C11.1804 29.2867 10.8874 28.1147 9.0494 27.1624C7.21141 26.2101 8.29689 25.0047 8.21032 23.7062C8.12375 22.4076 7.27135 21.9481 5.27353 21.2089C3.27571 20.4697 3.03597 19.6306 4.00158 17.7593C4.9672 15.888 4.60759 15.2887 4.25464 14.7759C3.9017 14.2632 3.26239 14.11 3.45551 14.11C3.64864 14.11 8.11709 14.3963 10.5478 15.7748C12.833 16.9878 15.2896 17.8456 17.8331 18.3187C20.2305 18.9447 21.5158 21.4686 21.5158 21.4686Z" fill="#8F2328"/>
<path d="M7.61729 20.9359C8.6495 20.9359 9.74164 20.3232 10.7206 20.9958C10.8604 21.1091 11.0336 21.2489 10.947 21.482C10.8323 21.6833 10.6473 21.835 10.4276 21.9082C9.55562 22.0744 8.70627 22.3426 7.89699 22.7073C7.47745 22.088 6.61173 21.7017 5.23323 21.2089C4.90457 21.0961 4.58782 20.9511 4.2876 20.7761C5.38687 20.9645 6.50502 21.0182 7.61729 20.9359ZM10.0679 26.2634C11.1998 26.0581 12.3133 25.7619 13.3976 25.3777C13.9577 25.1555 14.5668 25.0865 15.1624 25.1779C15.2724 25.2444 15.3521 25.3513 15.3844 25.4757C15.4168 25.6001 15.3992 25.7322 15.3355 25.8439C14.6696 26.683 13.5774 26.7229 12.6052 27.0759C11.886 27.3689 11.22 27.6885 10.4742 27.9149L10.3077 27.9616C9.93001 27.6308 9.50598 27.3571 9.04906 27.1491C8.7292 26.9919 8.44914 26.7642 8.22996 26.4832C8.52497 26.4595 8.81843 26.4195 9.109 26.3633C9.43531 26.37 9.715 26.3433 10.0679 26.2834V26.2634Z" fill="#A9272C"/>
<path d="M27.9152 0.737939C28.1549 0.691324 28.095 1.01764 28.2814 2.02986C28.4805 2.96356 28.7362 3.88426 29.0473 4.78685L26.9429 4.06763C26.8381 2.8751 27.1851 1.68671 27.9152 0.737939Z" fill="#9F5E3C"/>
<path d="M26.1174 2.49612C26.5156 1.74838 27.1277 1.13631 27.8754 0.738037H27.9154C27.183 1.68586 26.8336 2.87433 26.9365 4.06773L25.6712 3.64153C25.6246 3.64153 25.6379 3.47505 26.1174 2.49612ZM16.2881 1.94338C17.6779 2.18069 18.9625 2.83575 19.9707 3.82133C19.4759 4.01003 19.0115 4.2703 18.5923 4.59382L18.4324 4.70037C16.8696 3.25498 14.9764 2.21463 12.9185 1.67035C12.9651 1.51053 13.7908 1.3507 16.2881 1.94338Z" fill="#F1D0AF"/>
<path d="M18.4058 4.707C17.4656 5.56316 16.6676 6.56347 16.0417 7.67042C15.2112 6.75495 14.5018 5.73661 13.9307 4.64041C13.4459 3.71863 13.1046 2.72831 12.9185 1.70361C14.9643 2.2444 16.8476 3.27523 18.4058 4.707Z" fill="#9F5E3C"/>
<path d="M19.7575 33.0026C19.6443 33.0892 16.7341 36.8518 13.9505 38.3768C11.1669 39.9018 6.02584 40.2414 3.96143 37.3978C1.89702 34.5543 3.04243 32.5964 4.09462 32.1902C5.1468 31.784 7.69069 32.1902 7.57748 30.4321C7.46427 28.674 4.30106 28.1413 2.15673 29.8061C0.0124106 31.471 -0.393813 35.9727 1.8171 38.6098C4.02802 41.247 10.2745 41.7131 13.9172 40.0749C16.0049 39.169 17.9286 37.9248 19.611 36.3923L19.7575 33.0026Z" fill="#D39D7B"/>
<path d="M2.13676 29.8062C3.9015 28.3745 6.54527 28.5942 7.29112 29.8062C7.06291 29.9537 6.8104 30.0597 6.54527 30.1192C5.4265 30.3789 4.2944 30.2324 3.29549 30.6919C2.69241 30.9526 2.14669 31.3298 1.6896 31.8017C1.23251 32.2737 0.873018 32.8312 0.631734 33.4423C0.530313 33.7301 0.445818 34.0236 0.378679 34.3213C0.330224 33.4866 0.462173 32.6513 0.76555 31.8721C1.06893 31.093 1.53661 30.3884 2.13676 29.8062ZM16.2347 38.0372C15.6809 38.7101 14.9871 39.2541 14.2016 39.6313C13.416 40.0086 12.5577 40.21 11.6863 40.2215C8.81612 40.2748 4.90706 40.5678 3.38207 37.5578C3.15688 37.197 2.98211 36.8072 2.86263 36.399C2.76276 35.9944 2.76276 35.5716 2.86263 35.167C3.06436 35.9633 3.42448 36.7107 3.92147 37.3646C5.95925 40.2082 11.1336 39.8619 13.9106 38.3369C14.9556 37.7302 15.92 36.9941 16.7808 36.146C16.8525 36.8235 16.6565 37.5022 16.2347 38.0372Z" fill="#F1D0AF"/>
<path d="M28.2282 37.338C28.4618 37.1998 28.6844 37.0439 28.8942 36.8718C27.9552 38.6299 25.0983 46.9275 25.2848 47.0607C25.4712 47.1939 26.4568 46.8676 27.2826 47.0607C28.1084 47.2538 28.6811 48.1861 28.0884 48.6523C27.4957 49.1184 24.4057 48.8987 23.8663 48.8854C23.3269 48.872 23.2004 48.619 23.4601 47.8265C23.7198 47.034 24.7387 38.7165 24.7454 38.6099H23.2537C25.0052 38.7291 26.7488 38.2833 28.2282 37.338Z" fill="#D39D7B"/>
<path d="M28.0551 47.7066C27.802 47.9929 27.509 47.5268 27.256 47.3869C27.0227 47.3062 26.7769 47.2679 26.5301 47.2737C26.8231 47.4136 27.1361 47.7932 26.903 48.0196C26.5382 48.3199 26.0803 48.4842 25.6078 48.4842C25.1352 48.4842 24.6773 48.3199 24.3125 48.0196C24.1327 47.8464 24.3125 47.5334 24.5123 47.4136C24.7644 47.2797 25.0246 47.1618 25.2914 47.0606C25.4846 47.1938 26.4568 46.8675 27.2893 47.0606C27.6233 47.1525 27.918 47.3514 28.1283 47.6267L28.0551 47.7066Z" fill="url(#paint0_radial_37_268)"/>
<path d="M19.6843 31.5576C20.5816 32.075 21.5871 32.376 22.6211 32.4366C25.2849 32.6963 28.1085 32.8961 30.5458 31.3978L30.659 31.3245C30.4944 32.4188 30.245 33.4986 29.9131 34.5543C29.6506 35.3489 29.3163 36.1179 28.9142 36.8518C28.7061 37.026 28.4833 37.182 28.2483 37.3179C26.7782 38.2634 25.0451 38.716 23.3004 38.6099H22.7277C22.6017 37.9846 22.36 37.3883 22.0151 36.8518C21.7548 36.36 21.349 35.9605 20.8532 35.7078C20.3574 35.4552 19.7957 35.3616 19.2448 35.44C19.0853 35.4873 18.9392 35.5717 18.8186 35.6864C18.8785 34.8074 18.9585 33.9283 19.065 33.2224C19.1982 32.3434 19.3181 31.6974 19.4179 31.2246C19.4744 31.358 19.5665 31.4733 19.6843 31.5576Z" fill="#A9272C"/>
<path d="M28.2549 34.015C28.0854 34.3605 27.8493 34.6691 27.5602 34.9232C27.2711 35.1772 26.9347 35.3717 26.5703 35.4955C26.2059 35.6192 25.8206 35.6698 25.4366 35.6443C25.0526 35.6188 24.6774 35.5177 24.3325 35.3468C24.1986 35.278 24.0696 35.2001 23.9463 35.1138C23.7465 34.9406 23.6066 34.7475 23.3802 34.5677C23.3802 34.5677 23.3136 34.4545 23.287 34.4545C22.6242 33.8866 22.1157 33.1604 21.8086 32.3435C22.0816 32.3967 22.3547 32.43 22.6277 32.4567C24.812 32.6698 27.0828 32.8429 29.1805 32.0837C29.0684 32.5214 28.9145 32.9474 28.721 33.3557C28.5515 33.5651 28.3958 33.7853 28.2549 34.015Z" fill="#CD3334"/>
<path d="M19.9239 26.3566V24.8982C20.8744 21.9385 22.6346 19.3041 25.0051 17.2932C27.2892 17.1733 29.347 17.0801 29.347 17.0801C29.347 17.0801 29.347 17.1999 29.4069 17.2066L29.4535 17.3265H29.2471C29.6666 18.2122 29.9929 19.4974 30.3659 20.5163C30.4591 21.1823 30.6522 22.6873 30.6922 23.8926V25.2844C30.9319 28.8073 31.0118 28.2079 30.6922 30.4921C30.6708 30.787 30.633 31.0804 30.579 31.3711L30.4658 31.451C28.0284 32.9494 25.1782 32.743 22.5344 32.4766C21.5024 32.4166 20.4989 32.1156 19.6043 31.5975C19.4812 31.5232 19.3801 31.4175 19.3113 31.2912C19.3912 30.885 19.4644 30.6253 19.5044 30.4122L19.9239 26.3566Z" fill="#F1D0AF"/>
<path d="M11.8263 23.2533C12.8252 19.9236 17.6066 18.0857 19.1516 17.746C19.9374 17.5662 22.5878 17.3931 24.9919 17.2599C22.6211 19.2816 20.8653 21.928 19.9241 24.8982V24.7384C19.8708 23.5597 19.6311 21.3221 19.6311 21.3221C19.6311 21.3221 15.4223 22.2012 14.1504 24.1124C12.8784 26.0236 14.3368 28.1813 15.762 28.8539C16.3133 29.0495 16.9008 29.1216 17.483 29.0652C18.0653 29.0089 18.6281 28.8253 19.1316 28.5276C19.2248 28.3944 19.1316 28.1547 19.1316 27.5486C19.1316 26.9426 19.8775 26.6629 19.8775 26.6629C19.8775 26.6629 20.4035 26.2767 20.7165 26.7096C20.9097 26.7096 21.0562 27.482 21.0562 27.482C21.2971 27.5469 21.5232 27.6577 21.7221 27.8084C22.2282 28.4743 21.4091 28.8139 21.4091 28.8139C21.553 28.799 21.697 28.8418 21.8094 28.933C21.9217 29.0241 21.9933 29.1562 22.0085 29.3001C22.0222 29.4233 21.994 29.5477 21.9285 29.653C21.6355 30.1125 20.9296 30.2191 20.1638 30.259H19.6177C18.5022 30.2844 17.3869 30.1997 16.288 30.006C13.7841 29.5598 10.8606 26.5697 11.8263 23.2533ZM29.8399 26.7495C29.8815 26.5295 29.8815 26.3036 29.8399 26.0836C30.3727 25.5775 30.7256 25.7972 30.7256 25.7972C30.9521 25.8425 31.1641 25.9427 31.3429 26.089C31.5217 26.2353 31.6619 26.4232 31.7511 26.6363C31.9576 27.3022 31.2717 28.3344 31.7511 28.481C32.2306 28.6275 33.6424 28.0015 34.1419 25.8172C34.3774 24.9587 34.3391 24.0481 34.0323 23.2125C33.7255 22.3768 33.1655 21.6577 32.4304 21.1556C31.8223 20.7547 31.1246 20.5099 30.3993 20.4431L30.326 20.0635C29.9664 19.0846 29.78 18.1389 29.447 17.2665C30.2594 17.433 32.7767 18.0324 34.0087 19.7172C34.7662 20.7932 35.2372 22.0445 35.377 23.3529C35.5168 24.6614 35.3209 25.9839 34.8078 27.1957C33.7157 29.38 32.2839 29.673 31.6246 29.7529C31.3521 29.773 31.0822 29.8198 30.8188 29.8927C30.8188 29.8927 30.1129 29.8062 30.1129 29.8927C29.6135 29.6464 29.7001 29.5598 29.447 29.2268C29.3886 29.1521 29.3455 29.0667 29.3202 28.9753C29.295 28.8839 29.288 28.7885 29.2997 28.6944C29.3115 28.6003 29.3418 28.5095 29.3887 28.4272C29.4357 28.3448 29.4985 28.2726 29.5735 28.2146L29.6801 28.148C29.6801 28.148 29.2006 27.4821 29.3338 27.2623C29.4801 27.0706 29.6501 26.8983 29.8399 26.7495Z" fill="#D39D7B"/>
<path d="M30.3261 20.1167L30.3793 20.4763C29.9997 19.4508 29.6668 18.2055 29.2605 17.2865H29.4404C29.8066 18.1655 29.9931 19.1045 30.3194 20.0768L30.3261 20.1167ZM30.7323 28.2079C30.386 27.775 29.4404 27.6352 29.78 27.0025C30.0397 26.5431 30.659 26.8627 31.0519 26.9493C30.7589 26.6563 30.0996 26.2833 30.5059 25.9104C30.5748 25.8437 30.6596 25.7955 30.7523 25.7706C31.1003 25.8516 31.4104 26.049 31.6313 26.33C31.658 26.5689 31.658 26.8102 31.6313 27.0492C31.5111 27.4693 31.4506 27.9041 31.4515 28.3411C31.5714 29.1136 30.6524 29.2934 30.073 29.0936C29.9356 29.0531 29.819 28.9615 29.7471 28.8376C29.6752 28.7137 29.6536 28.567 29.6868 28.4277L29.7267 28.3278C29.7798 28.2514 29.8483 28.187 29.9277 28.1388C30.0072 28.0905 30.0959 28.0594 30.1881 28.0475C30.2803 28.0355 30.374 28.0431 30.4632 28.0696C30.5523 28.096 30.6349 28.1409 30.7056 28.2012L30.7323 28.2079ZM19.1583 27.502C19.1583 26.9027 19.9041 26.623 19.9041 26.623V26.5564C20.0072 26.5478 20.111 26.5612 20.2085 26.5956C20.3061 26.63 20.3953 26.6848 20.4702 26.7562C20.6966 27.0092 20.4102 27.3888 20.2437 27.6352C20.6966 27.522 21.3359 27.3821 21.5756 27.8416C21.8154 28.3011 21.2826 28.5076 20.9696 28.6741C21.3092 28.6741 22.0085 28.9671 21.5756 29.34C21.2768 29.5476 20.9206 29.657 20.5567 29.653C20.4853 29.6202 20.4218 29.5725 20.3703 29.5131C19.919 29.1106 19.5086 28.6645 19.1449 28.1813C19.1355 27.9548 19.14 27.7279 19.1583 27.502Z" fill="#F1D0AF"/>
<path d="M21.9217 29.3267C21.8818 29.1891 21.8163 29.0604 21.7286 28.9471C21.8847 28.8591 22.0032 28.717 22.0616 28.5475C22.0957 28.4216 22.1044 28.2901 22.0873 28.1608C22.0702 28.0314 22.0276 27.9068 21.9619 27.794C21.8962 27.6813 21.8088 27.5827 21.7048 27.504C21.6007 27.4253 21.4821 27.368 21.3557 27.3355C21.3377 27.163 21.2808 26.9967 21.1892 26.8494C21.2621 25.0894 21.9207 23.4043 23.0605 22.0613L23.2403 21.8815C23.3929 22.0146 23.5579 22.1328 23.7331 22.2344C24.712 22.7805 25.9773 23.1867 26.9829 22.4609C27.3522 22.1672 27.6144 21.7599 27.7287 21.3021C28.5718 21.6494 29.2749 22.2681 29.7265 23.0602C30.1769 23.8362 30.4071 24.7203 30.3925 25.6174C30.1894 25.665 30.0071 25.7772 29.8731 25.9371C29.7709 26.0388 29.697 26.1653 29.6585 26.3043C29.62 26.4432 29.6182 26.5897 29.6533 26.7295C29.4788 26.8182 29.3416 26.966 29.2659 27.1465C29.1903 27.327 29.1813 27.5286 29.2404 27.7151C29.3137 27.8616 29.3669 28.0281 29.4469 28.1879C28.8808 28.5542 28.9674 29.5198 29.327 30.0392C29.5048 30.2854 29.7499 30.475 30.0329 30.5853C29.9179 30.976 29.7617 31.3532 29.5667 31.7107L29.3936 32.0304C27.2426 32.9094 24.8918 32.6963 22.6343 32.4766L22.1082 32.4166C21.7164 31.8936 21.4375 31.295 21.2891 30.6586L21.4023 30.592C21.62 30.4717 21.7902 30.2808 21.8846 30.0507C21.9791 29.8206 21.9922 29.5652 21.9217 29.3267Z" fill="url(#paint1_radial_37_268)"/>
<path d="M30.8721 18.352C30.7942 18.3052 30.7314 18.237 30.6913 18.1555C30.6511 18.074 30.6353 17.9827 30.6457 17.8925C30.6591 17.8045 30.686 17.7191 30.7256 17.6394C31.9992 18.0071 33.1379 18.7385 34.002 19.7438C34.4971 20.4255 34.867 21.1899 35.0941 22.0013C34.6857 21.3488 34.241 20.7196 33.7623 20.1167C33.0297 19.1777 31.911 18.9047 30.8721 18.352Z" fill="#F1D0AF"/>
<path opacity="0.34" d="M34.1684 25.8106C34.3675 25.0045 34.3421 24.1593 34.0951 23.3666C34.4133 23.7236 34.64 24.1525 34.756 24.6165C34.872 25.0804 34.8737 25.5656 34.761 26.0303C34.4414 27.2623 33.9819 28.5809 32.7632 29.1269C32.6253 29.2162 32.4592 29.2513 32.2969 29.2255C32.1346 29.1996 31.9877 29.1148 31.8842 28.9871C31.792 28.8245 31.731 28.6461 31.7044 28.461C31.736 28.4873 31.7721 28.5076 31.8109 28.5209C32.2638 28.6342 33.6556 28.0415 34.1684 25.8106ZM15.7485 28.8206C16.2946 29.0071 16.8744 29.0744 17.4487 29.0181C18.023 28.9618 18.5786 28.7832 19.0782 28.4943C19.1996 28.6939 19.2511 28.9282 19.2247 29.1602C18.1664 29.5816 17.0048 29.6699 15.895 29.4133C15.4262 29.3048 14.9973 29.0669 14.6571 28.7266C14.3169 28.3864 14.079 27.9575 13.9704 27.4887C13.8952 27.2223 13.8396 26.9508 13.804 26.6763C14.1613 27.609 14.8551 28.374 15.7485 28.8206Z" fill="#F1D0AF"/>
<path d="M11.8263 23.2534C12.359 21.4886 13.9573 20.1301 15.5755 19.2045C15.8899 19.2836 16.1745 19.4525 16.3946 19.6906C16.621 19.9836 16.7342 20.4431 16.4545 20.6695C14.5233 22.0547 12.5654 23.26 12.046 25.764C12.0354 25.8173 12.0124 25.8674 11.9789 25.9102C11.9453 25.953 11.9022 25.9873 11.8529 26.0104C11.5662 25.1151 11.5569 24.154 11.8263 23.2534ZM21.9219 36.8851C22.2668 37.4217 22.5085 38.0179 22.6344 38.6432C22.5612 38.9562 22.6344 47.114 22.6344 47.114C22.7561 47.2491 22.8422 47.4124 22.8852 47.589C22.9282 47.7657 22.9267 47.9503 22.8808 48.1262C22.7809 48.872 22.8808 49.0052 21.7088 49.0052C20.5367 49.0052 18.5456 49.0918 18.5256 48.8987C18.5056 48.7056 18.6055 47.1406 19.1915 47.0341C19.7776 46.9275 19.8575 47.1806 19.8575 47.1806C19.9124 46.974 20.0371 46.7928 20.2104 46.6678C20.4835 46.5213 20.5567 46.5479 20.5567 46.5479C20.5567 46.5479 18.6455 37.7376 18.792 35.6598C18.9151 35.545 19.0633 35.4607 19.2248 35.4134C19.7713 35.3502 20.324 35.4577 20.8069 35.7212C21.2899 35.9848 21.6793 36.3914 21.9219 36.8851Z" fill="#F1D0AF"/>
<path d="M19.1848 47.0607C19.7575 46.9608 19.8507 47.2072 19.8507 47.2072C19.8986 46.9992 20.0251 46.8178 20.2037 46.7011C20.4767 46.5479 20.5433 46.5745 20.5433 46.5745H20.6699C21.0095 46.6611 21.5023 46.8342 21.4157 47.2405C21.5641 47.0741 21.7669 46.9661 21.9878 46.9356C22.2086 46.9051 22.4331 46.9541 22.6211 47.074C22.7326 47.1898 22.815 47.3306 22.8613 47.4846C22.9076 47.6387 22.9166 47.8015 22.8874 47.9597C22.8139 48.0139 22.7301 48.0525 22.641 48.0729C22.2681 48.1861 21.8952 47.8398 21.5755 47.7799C21.2559 47.7199 20.8563 48.1861 20.3968 48.1262C20.2388 48.1155 20.0886 48.0539 19.9685 47.9507C19.8484 47.8474 19.7651 47.7081 19.7309 47.5535C19.6334 47.6924 19.4983 47.8007 19.3414 47.8656C19.1845 47.9305 19.0124 47.9492 18.8452 47.9197H18.6321C18.7453 47.5002 18.8785 47.1073 19.1848 47.0607Z" fill="url(#paint2_radial_37_268)"/>
<path d="M29.7668 16.9069C29.7709 17.4945 29.6418 18.0754 29.3892 18.606C29.1366 19.1366 28.7671 19.603 28.3083 19.9702C26.83 21.0424 23.8066 21.3887 21.1562 20.4897C18.5057 19.5906 16.8209 18.7316 14.4102 18.4386C11.9995 18.1456 9.42232 15.8947 7.20475 15.2554C4.98717 14.6161 1.38444 14.3164 1.53094 14.2165C3.0283 13.776 4.60558 13.6782 6.1459 13.9302C8.76964 14.4032 11.3258 15.1948 13.7576 16.2876C15.0215 16.8946 16.4207 17.1652 17.8198 17.0734L29.7668 16.9069Z" fill="#CD3334"/>
<path d="M27.5757 18.8048C27.8583 19.283 27.995 19.8334 27.9689 20.3883C27.9429 20.9432 27.7553 21.4784 27.4292 21.9281C26.2771 23.2599 23.4336 22.3343 23.2737 20.8026C23.1139 19.271 23.6733 19.0379 23.7266 19.0379L27.5757 18.8048Z" fill="#D4B53F"/>
<path d="M24.0263 20.1167C25.3336 20.2662 26.6563 20.035 27.8354 19.4508C28.0029 19.9726 28.0213 20.5307 27.8887 21.0624C27.6916 21.494 27.34 21.8361 26.9031 22.0213C26.4574 22.2015 25.9645 22.2287 25.5017 22.0985C25.0389 21.9683 24.6324 21.6882 24.3459 21.3021C24.1253 20.9343 23.9867 20.5231 23.9397 20.0968L24.0263 20.1167Z" fill="#E2DE3A"/>
<path d="M29.7664 4.98654C28.8807 4.16077 25.9506 2.24287 23.0538 2.40936C21.6718 2.51713 20.3313 2.93171 19.1297 3.6229C17.9282 4.3141 16.8959 5.26453 16.108 6.40499C15.2832 7.43115 14.7063 8.6338 14.4221 9.91935C14.138 11.2049 14.1543 12.5387 14.4698 13.8169C15.2024 16.8136 17.9394 19.1444 22.1814 19.6838C24.0915 19.9719 26.0442 19.7 27.8029 18.901C29.5617 18.102 31.051 16.8102 32.0906 15.1821C34.0085 12.0388 32.4169 8.58927 31.7443 7.32398C31.2215 6.4389 30.5528 5.64861 29.7664 4.98654Z" fill="url(#paint3_radial_37_268)"/>
<path d="M27.6822 4.20756C27.5423 4.64042 27.0162 4.81357 26.59 4.8735C24.6209 5.15292 22.6131 4.84723 20.8163 3.99446C20.4645 3.79321 20.1884 3.48206 20.0305 3.10876C20.9849 2.67945 22.0093 2.42675 23.0539 2.36291C24.6919 2.3545 26.302 2.78694 27.7154 3.61488C27.7697 3.81074 27.758 4.01901 27.6822 4.20756Z" fill="#F1D0AF"/>
<path d="M30.7588 12.585C30.7357 12.5949 30.7107 12.5999 30.6856 12.5999C30.6604 12.5999 30.6355 12.5949 30.6123 12.585H30.7588Z" fill="#F3DCA8"/>
<path d="M28.1751 13.7837C28.9426 13.5577 29.7639 13.5976 30.5059 13.8969C30.5369 13.9015 30.5664 13.9136 30.5917 13.9321C30.6171 13.9506 30.6375 13.975 30.6513 14.0032C30.6651 14.0314 30.6717 14.0626 30.6708 14.0939C30.6698 14.1253 30.6612 14.156 30.6457 14.1833V14.2499C29.6734 14.3364 28.6479 14.6694 27.7489 14.2499C27.5158 14.15 27.9487 13.8303 28.1751 13.7837ZM28.6879 10.787C29.2121 10.6649 29.7618 10.7165 30.2542 10.9339C30.7467 11.1513 31.1551 11.5227 31.4182 11.9923C31.5314 12.312 31.2451 12.4518 30.9853 12.5384C30.9083 12.5521 30.8294 12.5521 30.7523 12.5384C30.8322 12.5384 30.8988 12.4385 30.9853 12.4185C30.8988 12.4185 30.8322 12.5118 30.7523 12.5384H30.5791C29.7209 12.2136 28.7736 12.2136 27.9154 12.5384C27.3693 12.7182 26.3637 12.7915 26.2772 12.1921C26.1107 11.1666 27.7489 10.9135 28.6879 10.787Z" fill="#F1D0AF"/>
<path d="M29.7666 4.67363C29.7 4.62036 29.5868 4.4339 29.2938 4.89339C29.0008 5.35289 28.5146 6.07876 25.9042 5.2197C23.2937 4.36064 18.4723 3.93444 16.8607 5.4328C15.6551 6.44838 14.775 7.79629 14.3301 9.30857C13.9705 10.5139 13.7574 12.3386 14.3301 12.585C14.9029 12.8314 18.7986 14.1166 21.8619 13.0378C24.9252 11.959 27.569 10.1676 29.0474 10.1277C30.5258 10.0877 32.6435 11.0067 32.8832 10.4606C33.1229 9.91457 32.417 6.97778 29.7666 4.67363Z" fill="#CD3334"/>
<path d="M30.5791 6.41841C30.4659 6.53162 30.2595 6.50498 30.1196 6.59156V6.63817L29.8666 6.7314C29.723 6.80619 29.6065 6.92422 29.5336 7.06881C29.4607 7.21341 29.4351 7.37725 29.4604 7.53719C29.604 7.92786 29.8313 8.28241 30.1263 8.57605C30.2129 8.68926 30.1862 8.86241 30.073 8.82911C29.2238 8.69661 28.3566 8.7351 27.5225 8.94232C27.5824 8.33632 28.548 8.68926 28.9276 8.27638C28.944 8.23464 28.9442 8.18828 28.9282 8.14639C28.9122 8.1045 28.8811 8.07011 28.841 8.04996C27.8127 7.93773 26.7785 8.20278 25.9309 8.79581C25.0518 9.25531 24.3459 10.181 23.2671 9.97452C23.1679 9.96073 23.0739 9.92176 22.9941 9.86131C23.0883 9.06163 22.8896 8.25488 22.4347 7.59047C21.7688 6.79134 20.6766 6.87125 19.7709 6.92453C19.5179 6.92453 19.5712 6.71808 19.6311 6.5516C19.7165 6.37914 19.841 6.22907 19.9949 6.11343C20.1487 5.99778 20.3274 5.91978 20.5168 5.88566C23.0141 5.27965 25.3116 5.88566 27.7556 6.49167C28.0849 6.57018 28.4288 6.56371 28.755 6.47285C29.0811 6.38199 29.3789 6.20973 29.6202 5.97223C29.7388 5.87599 29.887 5.82346 30.0397 5.82346C30.1925 5.82346 30.3406 5.87599 30.4593 5.97223C30.6191 6.1587 30.7323 6.33184 30.5791 6.41841Z" fill="#A9272C"/>
<path d="M26.9698 10.3274C28.4082 9.44839 30.0198 9.66148 31.5715 10.0744C32.0008 10.221 32.4636 10.2395 32.9033 10.1276C32.9299 10.2393 32.9299 10.3556 32.9033 10.4673C32.6703 11.06 30.5526 10.0877 29.0742 10.1343C27.5958 10.1809 24.9054 11.9656 21.8421 13.0644C18.7788 14.1632 14.883 12.858 14.3103 12.6116C14.245 12.5747 14.1877 12.525 14.1419 12.4655C14.0962 12.406 14.0628 12.3379 14.0439 12.2653C14.8263 12.5924 15.6478 12.8163 16.4879 12.9312C20.1824 13.3692 23.9097 12.4433 26.9698 10.3274Z" fill="#8F2328"/>
<path d="M29.5335 11.9057C30.3193 11.9923 31.245 11.0267 30.4125 10.8269C29.5801 10.6271 28.6545 10.8935 28.5945 11.1732C28.5346 11.4529 28.7077 11.8058 29.5335 11.9057Z" fill="#401B14"/>
<path d="M22.3214 11.2731C22.8064 11.2877 23.2846 11.1572 23.6949 10.8984C24.1053 10.6396 24.429 10.2643 24.6248 9.82038C24.8206 9.37649 24.8794 8.88429 24.7938 8.40677C24.7082 7.92925 24.482 7.48814 24.1442 7.13991C23.8065 6.79167 23.3725 6.55216 22.8978 6.45202C22.4231 6.35189 21.9293 6.39569 21.4797 6.57781C21.03 6.75994 20.645 7.07211 20.3738 7.47436C20.1026 7.87661 19.9576 8.35064 19.9574 8.83577C19.9521 9.15116 20.0091 9.4645 20.1251 9.75782C20.2411 10.0511 20.4139 10.3187 20.6335 10.5451C20.8532 10.7715 21.1153 10.9524 21.4049 11.0773C21.6946 11.2022 22.006 11.2688 22.3214 11.2731Z" fill="url(#paint4_radial_37_268)"/>
<path d="M22.0549 9.42175C22.2161 9.38774 22.3629 9.3047 22.4752 9.18401C22.5874 9.06331 22.6596 8.91088 22.6818 8.74757C22.704 8.58427 22.6752 8.41809 22.5993 8.2718C22.5234 8.12551 22.4041 8.00626 22.2578 7.9304C22.1115 7.85454 21.9453 7.82576 21.782 7.84802C21.6187 7.87028 21.4663 7.94249 21.3456 8.05475C21.225 8.16701 21.142 8.31383 21.108 8.4751C21.074 8.63637 21.0907 8.8042 21.1559 8.95559C21.214 9.13613 21.341 9.28641 21.5094 9.37372C21.6778 9.46102 21.8738 9.47829 22.0549 9.42175Z" fill="#401B14"/>
<path d="M31.205 8.95565C31.4876 8.8483 31.7301 8.65615 31.8992 8.40553C32.0683 8.15492 32.1558 7.85812 32.1495 7.55584C32.1433 7.25357 32.0437 6.96063 31.8644 6.7172C31.6851 6.47376 31.4349 6.29176 31.1481 6.19616C30.8613 6.10055 30.5519 6.09602 30.2624 6.18318C29.9729 6.27035 29.7175 6.44495 29.5311 6.68303C29.3448 6.92111 29.2366 7.21101 29.2216 7.51297C29.2065 7.81493 29.2852 8.11416 29.4469 8.36962C29.6065 8.67645 29.8792 8.90916 30.2073 9.01853C30.5354 9.1279 30.8932 9.10535 31.205 8.95565Z" fill="url(#paint5_radial_37_268)"/>
<path d="M30.579 8.50282C30.7122 8.36297 30.6522 8.07662 30.4325 7.83688C30.2127 7.59714 29.9263 7.55719 29.7665 7.69038C29.6067 7.82357 29.6999 8.11658 29.913 8.35632C30.1261 8.59606 30.4191 8.63601 30.579 8.49616V8.50282ZM24.5855 12.4985C24.5855 12.4385 24.6787 12.4985 24.6921 12.4985C24.7329 12.6214 24.7865 12.7396 24.8519 12.8514C24.9052 12.9313 25.045 12.9113 25.1249 12.9313C25.4418 12.9843 25.7626 13.0111 26.0839 13.0112H30.0262C30.3479 13.0066 30.6686 12.9754 30.9852 12.918C31.1246 12.9041 31.259 12.8586 31.3781 12.7848C31.4913 12.7116 31.3781 12.5384 31.3781 12.4252C31.3781 12.312 31.4513 12.3852 31.458 12.4252C31.4647 12.4652 31.5912 12.645 31.5379 12.7848C31.5178 12.8361 31.4873 12.8827 31.4484 12.9217C31.4094 12.9607 31.3628 12.9911 31.3115 13.0112C30.9864 13.1285 30.6447 13.1937 30.2993 13.2044C29.5534 13.2709 28.8009 13.2576 28.0484 13.2576H25.7176C25.3828 13.2586 25.0492 13.2161 24.7254 13.1311C24.6603 13.112 24.6015 13.076 24.5547 13.0269C24.5079 12.9778 24.4749 12.9173 24.459 12.8514C24.4737 12.7194 24.5169 12.5922 24.5855 12.4785V12.4985Z" fill="#401B14"/>
<path d="M20.2969 26.3499C20.3993 26.3386 20.5029 26.3492 20.6009 26.3809C20.6989 26.4127 20.7889 26.465 20.8652 26.5343C20.9414 26.6036 21.002 26.6883 21.0429 26.7828C21.0839 26.8773 21.1043 26.9795 21.1027 27.0825C21.1286 27.1874 21.1286 27.2972 21.1027 27.4021H21.1693C21.3057 27.3756 21.4467 27.3871 21.5771 27.4352C21.7074 27.4834 21.822 27.5664 21.9085 27.6752C21.9677 27.7941 21.9985 27.9252 21.9985 28.0581C21.9985 28.191 21.9677 28.322 21.9085 28.441C21.8563 28.5471 21.7813 28.6404 21.6887 28.714C21.766 28.7415 21.8371 28.7841 21.8978 28.8393C21.9585 28.8945 22.0076 28.9613 22.0423 29.0356C22.077 29.11 22.0966 29.1905 22.0999 29.2724C22.1032 29.3544 22.0902 29.4362 22.0616 29.5132C22.0299 29.5949 21.9824 29.6696 21.9218 29.7329C21.7357 29.9098 21.5058 30.0339 21.2558 30.0925C20.926 30.1798 20.5839 30.2113 20.2436 30.1858V30.1391C20.7265 30.1325 21.2018 30.0188 21.6354 29.8062C21.7377 29.754 21.8228 29.6735 21.8806 29.5743C21.9385 29.4752 21.9666 29.3615 21.9617 29.2468C21.9523 29.1435 21.9062 29.047 21.8316 28.9749C21.757 28.9028 21.6591 28.8598 21.5555 28.8539C21.5444 28.8508 21.5342 28.8449 21.526 28.8367C21.5179 28.8286 21.512 28.8184 21.5089 28.8073H21.3424C21.4144 28.7482 21.4953 28.7009 21.5822 28.6674C21.6723 28.6027 21.7492 28.5214 21.8086 28.4277C21.9019 28.3445 21.9585 28.2278 21.966 28.103C21.9735 27.9782 21.9313 27.8555 21.8485 27.7617H21.8086C21.7105 27.684 21.5958 27.6297 21.4734 27.6031C21.3511 27.5766 21.2242 27.5784 21.1027 27.6086L20.843 27.6818C20.7697 27.6818 20.7164 27.7418 20.6565 27.7617C20.6501 27.7506 20.6467 27.738 20.6467 27.7251C20.6467 27.7123 20.6501 27.6996 20.6565 27.6885C20.6756 27.6518 20.703 27.62 20.7365 27.5957C20.7701 27.5715 20.8088 27.5553 20.8496 27.5486L21.0694 27.4887C21.1056 27.3473 21.1063 27.1991 21.0715 27.0574C21.0366 26.9157 20.9673 26.7847 20.8696 26.6763C20.7683 26.6047 20.6511 26.5589 20.5281 26.5426C20.4052 26.5264 20.2801 26.5402 20.1637 26.583H20.0971C19.9839 26.3566 20.197 26.3566 20.2969 26.3499ZM29.973 18.0257C30.1199 18.4184 30.2378 18.8212 30.3259 19.2311C30.3792 19.4242 30.4058 19.6306 30.4525 19.8237C30.4991 20.0169 30.539 20.0635 30.4525 20.1301C30.4463 20.1383 30.4382 20.1451 30.429 20.1497C30.4197 20.1543 30.4095 20.1567 30.3992 20.1567C30.3888 20.1567 30.3786 20.1543 30.3694 20.1497C30.3602 20.1451 30.3521 20.1383 30.3459 20.1301C30.3133 20.0377 30.2931 19.9414 30.286 19.8437C30.2698 19.6519 30.2341 19.4622 30.1794 19.2777C30.0729 18.8715 29.9863 18.4586 29.8798 18.0523C29.913 18.0057 29.9663 17.9991 29.973 18.0257ZM19.5777 21.2755C19.6914 21.248 19.8072 21.2302 19.924 21.2222C20.1857 21.2089 20.448 21.2089 20.7098 21.2222V21.2688C20.5019 21.2824 20.295 21.309 20.0905 21.3487L19.7375 21.402H19.6176C19.6065 21.4085 19.5939 21.4118 19.581 21.4118C19.5682 21.4118 19.5555 21.4085 19.5444 21.402C19.4512 21.3621 19.5377 21.2955 19.5777 21.2755ZM26.903 47.66C26.8172 47.5799 26.7432 47.4879 26.6832 47.387C26.8172 47.4988 26.942 47.6213 27.0562 47.7532C27.1485 47.8944 27.2014 48.0576 27.2093 48.226C27.2093 48.4858 27.1494 48.9719 26.8031 48.9919C26.7299 48.9919 26.6832 48.8853 26.8031 48.8587C27.1094 48.7455 27.1494 48.3925 27.1028 48.0995C27.0899 47.9391 27.0296 47.7861 26.9296 47.66H26.903Z" fill="#763421"/>
<path d="M21.9617 6.77132H22.0549C22.1124 6.75478 22.1726 6.74979 22.232 6.75665C22.2915 6.7635 22.349 6.78207 22.4012 6.81128C22.4466 6.84949 22.4828 6.89751 22.507 6.95172C22.5313 7.00593 22.5429 7.06493 22.541 7.12427C22.5377 7.1867 22.5181 7.24717 22.4842 7.29972C22.4504 7.35228 22.4034 7.39509 22.3479 7.42395C22.2599 7.45719 22.1629 7.45719 22.0749 7.42395H21.9883C21.9172 7.41519 21.8505 7.38502 21.797 7.33744C21.7434 7.28987 21.7057 7.22713 21.6886 7.15757C21.6811 7.0713 21.7045 6.98517 21.7544 6.91446C21.8044 6.84376 21.8778 6.79304 21.9617 6.77132Z" fill="white"/>
<path d="M23.2537 57.1629L32.6168 52.2017V41.0872L23.2537 46.0218V57.1629Z" fill="#A9272C"/>
<path d="M13.864 52.2017L23.2538 57.1629V46.0218L13.8707 41.0872L13.864 52.2017Z" fill="#8F2328"/>
<path d="M23.2537 46.0218L32.6234 41.0872L36.3327 46.0218L26.9629 50.963L23.2537 46.0218Z" fill="#CD3334"/>
<path d="M23.2537 46.0218L13.8707 41.0872L10.1614 46.0218L19.5445 50.963L23.2537 46.0218Z" fill="#A9272C"/>
<path d="M58.8948 23.5264C57.6506 23.6115 56.4122 23.7672 55.1855 23.9925C53.9579 24.2113 52.7199 24.3669 51.4763 24.4587C50.2205 24.519 48.9806 24.158 47.9534 23.4331C47.5206 23.1014 47.1627 22.6819 46.9033 22.2022C46.644 21.7225 46.4889 21.1933 46.4484 20.6495C46.1155 17.6794 47.4962 14.272 50.5906 10.4273C53.685 6.58265 56.7549 4.47829 59.8005 4.11424C62.664 3.95441 64.5553 5.80572 65.4943 9.68149C65.7235 10.7237 65.8969 11.7774 66.0137 12.838C65.7407 12.9179 65.2545 13.0978 64.542 13.3641C63.956 13.5905 63.3699 13.8103 62.7772 14.0301L59.5208 15.1755C59.2145 13.9169 58.6684 13.2909 57.8693 13.2909C57.3435 13.3148 56.8281 13.4451 56.3542 13.6741C55.8803 13.903 55.4578 14.2258 55.1123 14.6228C54.7146 14.9415 54.4282 15.3782 54.2941 15.8699C54.1601 16.3617 54.1855 16.8833 54.3664 17.3598C54.5795 17.8526 55.2255 18.099 56.311 18.099C57.2837 18.0577 58.2531 17.9599 59.2145 17.8059C60.1501 17.6648 61.0927 17.5737 62.0381 17.5329C63.3886 17.4454 64.7354 17.7531 65.9138 18.4186C66.8719 19.1166 67.5251 20.1561 67.7385 21.3221C68.1213 23.2103 67.8092 25.1732 66.8594 26.8494C65.36 29.6293 63.0705 31.9026 60.28 33.3823C58.7547 34.3121 57.0052 34.8094 55.2188 34.8207C53.4671 34.7807 51.7431 34.3747 50.1577 33.6286C50.5706 31.9372 51.2365 29.5886 52.1555 26.583C53.21 27.1388 54.38 27.4399 55.5718 27.4621C56.8778 27.4518 58.1652 27.1516 59.341 26.583C60.6396 25.997 61.2056 25.331 61.0325 24.5852C60.8593 23.8393 60.1601 23.513 58.8948 23.5264ZM71.7741 5.79906L79.439 4.46719C78.9675 10.7181 78.8852 16.9922 79.1926 23.2533L83.2482 21.6617L82.6688 5.80572L90.3338 4.47385C89.7076 13.7376 89.8546 23.0375 90.7733 32.2768L83.7277 34.0349L83.6145 29.633L72.8329 34.0349L71.7741 5.79906ZM105.957 3.86784C107.648 3.77273 109.338 4.0761 110.891 4.75354C111.446 5.01998 111.932 5.41104 112.311 5.89621C112.69 6.38137 112.952 6.94752 113.076 7.55048C114.194 12.5717 110.512 17.7837 102.028 23.1867C102.154 26.603 102.374 29.613 102.694 32.2368L95.7079 33.9949C95.6147 32.8229 95.5547 31.0315 95.5148 28.6674L95.2884 19.2643C94.9954 10.5317 94.7578 6.04324 94.5758 5.79906C98.267 4.65319 102.094 4.00375 105.957 3.86784ZM106.676 12.1788C106.563 11.7126 106.11 11.4795 105.311 11.4795C104.18 11.577 103.063 11.8004 101.981 12.1455V16.6073C104.521 15.4263 106.074 14.13 106.643 12.7182C106.714 12.5547 106.731 12.3723 106.689 12.1987L106.676 12.1788ZM122.532 11.7259C122.472 12.4917 122.432 13.2576 122.412 14.0168L122.459 16.1877L129.584 14.8558L130.463 20.3765C126.69 20.9669 124.015 21.4309 122.439 21.7683C122.439 22.1212 122.439 22.654 122.492 23.3665L122.579 24.9248L130.976 23.8593L132.201 31.3112C126.663 31.8094 121.17 32.7311 115.773 34.0682L114.441 5.43279L129.544 3.51489L130.736 10.9201C127.704 11.1377 124.969 11.4063 122.532 11.7259ZM146.506 3.86784C148.201 3.77921 149.894 4.08227 151.454 4.75354C152.015 5.02166 152.506 5.41714 152.887 5.9085C153.269 6.39986 153.531 6.97351 153.651 7.58378C154.486 11.1887 152.723 14.807 148.364 18.4386C148.95 19.3665 151.52 22.5563 156.075 28.0081L153.225 30.6719L150.128 33.642L142.497 22.634H142.457C142.523 26.0969 142.725 29.3267 143.063 32.3234L136.13 34.0815C136.077 33.7285 135.997 31.9705 135.904 28.8006L135.018 5.83236C138.753 4.67321 142.625 4.01484 146.532 3.8745L146.506 3.86784ZM146.932 12.3452C146.779 11.7592 146.266 11.4662 145.367 11.4662C144.341 11.5228 143.329 11.7292 142.364 12.0789L142.304 14.7826V17.4463C143.356 16.9223 144.327 16.2495 145.187 15.4485C145.969 14.7991 146.549 13.9395 146.859 12.9712C146.932 12.7711 146.953 12.5556 146.919 12.3452H146.932Z" fill="#CD3334"/>
<path d="M164.153 23.806C164.408 24.9063 164.999 25.9 165.844 26.6496C166.705 27.4298 167.833 27.8474 168.994 27.815C170.584 27.815 172.022 26.7783 173.31 24.7051L175.973 29.4932C173.62 32.4277 170.834 33.8972 167.616 33.9017C164.397 33.9061 161.687 32.4366 159.485 29.4932C158.181 27.7965 157.252 25.8421 156.761 23.7594C156.365 22.1524 156.191 20.499 156.242 18.8448C156.33 15.3978 157.374 12.0431 159.258 9.15538C161.549 5.63035 164.528 3.86783 168.195 3.86783C171.445 3.86783 174.197 5.36841 176.453 8.36958L172.337 13.3242C171.576 12.7277 170.641 12.3958 169.674 12.3785C168.013 12.3785 166.586 13.595 165.392 16.0279C164.479 17.746 163.973 19.6507 163.913 21.5951C163.886 22.3398 163.967 23.0844 164.153 23.806ZM176.806 34.5343C178.924 25.0209 180.307 15.3584 180.941 5.63257L194.653 3.58813C194.959 11.5794 196.531 21.1245 199.368 32.2235L189.925 34.2213L189.439 29.2268L186.422 29.7529L186.302 33.2823L176.806 34.5343ZM188.873 23.8793L187.354 8.7758H187.314L186.708 24.2322L188.873 23.8793ZM218.067 4.14752L219.612 11.5594C217.002 11.6926 214.951 11.8325 213.499 11.9656C213.217 18.7564 213.468 25.5588 214.251 32.3101L206.786 34.0748L205.954 12.7648C205.541 12.78 205.131 12.8358 204.729 12.9313L203.51 13.131L201.126 13.5373L198.748 6.03213L218.067 4.14752Z" fill="white"/>
<path d="M53.9268 52.0818C54.0602 52.6535 54.3673 53.1699 54.8059 53.5602C55.2503 53.9665 55.8355 54.1838 56.4374 54.1662C56.9188 54.117 57.3789 53.9422 57.7716 53.6594C58.1642 53.3766 58.4758 52.9956 58.675 52.5546L60.0668 55.0385C59.5755 55.7337 58.9264 56.3025 58.1729 56.6983C57.4193 57.0942 56.5827 57.3059 55.7315 57.316C54.8873 57.3194 54.0555 57.1123 53.3114 56.7135C52.5673 56.3147 51.9342 55.7367 51.4695 55.0319C50.7918 54.1518 50.3104 53.1368 50.0577 52.0551C49.7488 50.7699 49.7046 49.4353 49.9278 48.1324C50.151 46.8296 50.6371 45.5858 51.3563 44.4767C51.8191 43.6452 52.4947 42.9517 53.3139 42.4672C54.133 41.9828 55.0662 41.7248 56.0179 41.7198C56.8681 41.7307 57.7027 41.9494 58.4491 42.3568C59.1954 42.7642 59.8308 43.348 60.2999 44.0572L58.2088 46.6277C57.8145 46.3144 57.3273 46.1411 56.8237 46.1349C55.9713 46.1349 55.2321 46.7654 54.6061 48.0262C54.1266 48.9257 53.8621 49.9241 53.8336 50.943C53.8078 51.3251 53.8393 51.7089 53.9268 52.0818ZM81.4168 57.649C82.5093 52.7186 83.2217 47.7115 83.5478 42.6721L90.66 41.6066C90.9587 46.635 91.78 51.6186 93.1107 56.477L88.216 57.5292L87.963 54.9453L86.398 55.2183L86.3314 56.9764L81.4168 57.649ZM87.67 52.1084L86.8975 44.2703L86.5778 52.2616L87.67 52.1084ZM120.88 51.9286C120.214 51.9819 119.588 52.0618 118.956 52.175C118.319 52.2925 117.677 52.3769 117.031 52.4281C116.381 52.4577 115.739 52.2703 115.207 51.8953C114.982 51.7234 114.796 51.5056 114.662 51.2565C114.527 51.0074 114.447 50.7325 114.427 50.4502C114.245 48.9052 114.965 47.1294 116.585 45.1227C118.205 43.116 119.797 42.0328 121.36 41.8729C122.845 41.7864 123.824 42.7453 124.31 44.7631C124.431 45.3037 124.522 45.8506 124.583 46.4013L123.817 46.6743L122.931 47.014L121.24 47.6133C121.089 46.9607 120.796 46.6344 120.361 46.6344C120.088 46.6501 119.821 46.7208 119.576 46.8421C119.332 46.9634 119.114 47.1328 118.936 47.3403C118.727 47.5067 118.577 47.7353 118.508 47.9928C118.438 48.2504 118.453 48.5234 118.55 48.7721C118.656 49.0251 118.996 49.145 119.562 49.145C120.064 49.1259 120.564 49.077 121.06 48.9985C121.55 48.9204 122.043 48.8693 122.539 48.8453C123.236 48.8043 123.931 48.9686 124.536 49.3181C125.021 49.6802 125.35 50.2137 125.455 50.8098C125.65 51.7901 125.482 52.8077 124.983 53.6734C124.206 55.1101 123.022 56.2848 121.58 57.0497C120.777 57.5375 119.855 57.7934 118.916 57.7889C117.994 57.7764 117.085 57.5651 116.252 57.1695C116.472 56.2905 116.818 55.0652 117.304 53.5002C117.846 53.7901 118.448 53.9497 119.062 53.9664C119.742 53.9533 120.41 53.792 121.02 53.4936C121.686 53.1739 121.986 52.8276 121.899 52.4614C121.813 52.0951 121.46 51.9153 120.834 51.9286H120.88ZM148.85 42.732L152.845 42.0661C152.491 46.8683 152.554 51.6922 153.032 56.4836L149.383 57.3627L148.85 42.732ZM180.915 43.8974C181.359 45.7842 181.829 47.4402 182.327 48.8653C182.538 49.5418 182.813 50.1972 183.146 50.8231L182.866 42.752L186.862 42.086C186.502 46.8902 186.562 51.7166 187.041 56.5103L183.452 57.3893L182.959 56.6634L180.961 53.6001C180.741 53.2961 180.541 52.978 180.362 52.6478C180.415 54.0796 180.528 55.6712 180.715 57.4093L177.086 58.3882L176.526 42.7786L180.522 42.0594C180.608 42.6254 180.735 43.2381 180.895 43.8974H180.915ZM216.276 41.1404C217.131 41.156 217.967 41.3907 218.705 41.8222C219.443 42.2536 220.058 42.8672 220.491 43.6044C221.065 44.4417 221.482 45.3757 221.723 46.3614C221.968 47.3968 222.051 48.4638 221.97 49.5246C221.845 51.438 221.223 53.2857 220.165 54.8854C219.674 55.775 218.957 56.519 218.085 57.0418C217.214 57.5646 216.22 57.8476 215.204 57.8621C214.338 57.8625 213.488 57.6373 212.736 57.2087C211.984 56.7801 211.356 56.163 210.915 55.4181C210.37 54.5907 209.975 53.673 209.75 52.7078C209.426 51.2507 209.393 49.7439 209.654 48.2741C209.914 46.8044 210.463 45.4007 211.268 44.1438C212.6 42.1371 214.269 41.136 216.276 41.1404ZM213.612 52.4014C213.736 52.9622 214.046 53.4647 214.491 53.8265C214.948 54.197 215.522 54.3929 216.11 54.3793C216.517 54.396 216.921 54.3043 217.282 54.1136C217.642 53.9229 217.945 53.64 218.161 53.2938C218.641 52.5688 218.913 51.7256 218.946 50.8564C218.992 49.8104 218.808 48.7671 218.407 47.7998C217.974 46.8075 217.388 46.3147 216.649 46.3147C216.334 46.3286 216.026 46.4151 215.75 46.5676C215.474 46.7201 215.237 46.9344 215.057 47.1938C214.575 47.769 214.202 48.4282 213.959 49.1383C213.737 49.7551 213.594 50.3972 213.532 51.0496C213.488 51.4949 213.515 51.9446 213.612 52.3814V52.4014Z" fill="#818385"/>
<defs>
<radialGradient id="paint0_radial_37_268" cx="0" cy="0" r="1" gradientUnits="userSpaceOnUse" gradientTransform="translate(28.8111 47.7707) rotate(180) scale(1.4612 1.46121)">
<stop offset="0.66" stop-color="white"/>
<stop offset="1" stop-color="#F1D0AF"/>
</radialGradient>
<radialGradient id="paint1_radial_37_268" cx="0" cy="0" r="1" gradientUnits="userSpaceOnUse" gradientTransform="translate(-358.27 436.662) rotate(180) scale(54.0829 81.3495)">
<stop offset="0.66" stop-color="white"/>
<stop offset="1" stop-color="#F1D0AF"/>
</radialGradient>
<radialGradient id="paint2_radial_37_268" cx="0" cy="0" r="1" gradientUnits="userSpaceOnUse" gradientTransform="translate(214.968 123.051) scale(7.74713 2.87646)">
<stop offset="0.66" stop-color="white"/>
<stop offset="1" stop-color="#F1D0AF"/>
</radialGradient>
<radialGradient id="paint3_radial_37_268" cx="0" cy="0" r="1" gradientUnits="userSpaceOnUse" gradientTransform="translate(28.9727 9.70918) rotate(180) scale(11.6437 11.6437)">
<stop offset="0.49" stop-color="white"/>
<stop offset="0.79" stop-color="#F1D0AF"/>
<stop offset="1" stop-color="#D49D7B"/>
</radialGradient>
<radialGradient id="paint4_radial_37_268" cx="0" cy="0" r="1" gradientUnits="userSpaceOnUse" gradientTransform="translate(239.414 55.4599) scale(12.8292 13.2152)">
<stop offset="0.66" stop-color="white"/>
<stop offset="1" stop-color="#F1D0AF"/>
</radialGradient>
<radialGradient id="paint5_radial_37_268" cx="0" cy="0" r="1" gradientUnits="userSpaceOnUse" gradientTransform="translate(-59.6322 43.5523) rotate(179.698) scale(3.49223 4.2826)">
<stop offset="0.66" stop-color="white"/>
<stop offset="1" stop-color="#F1D0AF"/>
</radialGradient>
</defs>
</svg>
