<svg width="233" height="33" viewBox="0 0 233 33" fill="none" xmlns="http://www.w3.org/2000/svg">
<path d="M227.392 10.7754C225.282 10.7754 223.48 9.59682 222.699 7.6909C221.924 5.80519 222.365 3.7107 223.847 2.21559C224.721 1.33335 226.07 0.67335 226.991 0.67335C228.941 0.67335 232.332 3.79825 232.332 5.58968C232.332 7.62355 229.328 10.7754 227.392 10.7754ZM227.379 2.75437C226.938 2.75437 226.357 3.03049 225.509 3.65009C224.534 4.33029 224.167 5.40784 224.521 6.55274C224.835 7.56968 225.763 8.59335 227.138 8.59335C227.365 8.59335 227.599 8.56641 227.833 8.5058C228.841 8.24988 229.555 7.45519 229.742 6.3709C229.956 5.11151 229.415 3.83866 228.353 3.12478C227.966 2.86212 227.672 2.75437 227.379 2.75437Z" fill="white"/>
<path d="M228.654 7.71094C228.427 7.71094 228.12 7.60992 227.919 7.13175C227.853 6.95665 227.532 6.73441 227.332 6.73441C227.132 6.73441 226.811 6.96339 226.764 7.08461C226.537 7.63012 226.184 7.7042 225.997 7.7042C225.175 7.7042 225.062 6.65359 225.062 5.52216C225.022 4.31665 225.075 3.61624 225.509 3.16502C225.763 2.90237 226.11 2.76767 226.564 2.76767C226.751 2.76767 226.965 2.78788 227.238 2.83502C229.041 3.05053 229.348 4.33686 229.401 5.69053C229.482 6.92298 229.388 7.25298 229.174 7.48196L228.974 7.69747L228.654 7.71094Z" fill="white"/>
<path d="M39.9839 29.6191C35.9114 29.6191 32.7135 25.2753 32.7135 19.7326C32.7135 15.7861 34.7431 11.8732 37.3401 10.8226C38.415 10.3983 39.3697 10.1963 40.2643 10.1963C41.5862 10.1963 42.8146 10.6542 44.0097 11.5904L44.8642 12.2773L44.951 11.9002C45.2848 10.5936 45.8924 10.3242 46.3463 10.3242C47.3611 10.3242 48.0688 11.7587 48.0688 13.8061C48.0688 16.5942 47.1275 17.1734 46.333 17.1734C45.5652 17.1734 44.7173 16.5606 43.7359 15.2944C42.7679 14.0553 41.6263 13.402 40.4446 13.402C38.3148 13.402 36.0516 15.6649 36.0516 19.8606C36.0516 22.5679 37.467 25.4436 38.6286 25.9016C39.2629 26.144 39.8771 26.272 40.4646 26.272C41.6463 26.272 42.6878 25.7467 43.4689 24.7634C44.8776 22.9653 44.684 22.5073 44.6773 22.4871C44.6773 22.4871 44.5371 22.2244 43.3954 22.2244C42.4007 22.2244 40.725 21.9416 40.725 20.8775C40.725 20.5408 40.725 19.5306 44.3969 19.5306H48.0688V24.2449C48.0688 26.8781 48.0688 28.9591 46.3997 28.9591C45.5852 28.9591 44.911 28.3463 44.7574 27.5381C44.5972 27.6526 44.3769 27.8277 44.0764 28.0702C42.8013 29.0871 41.3859 29.6191 39.9839 29.6191Z" fill="white"/>
<path d="M87.859 29.6323C86.3568 29.6323 85.1952 28.9993 85.0349 28.0968C84.9949 27.8544 84.9482 27.0193 86.1566 26.5748C86.7374 26.3525 86.7841 23.0795 86.7841 19.4629C86.7841 15.4827 86.5705 13.368 86.3969 12.7282C85.8695 12.5464 85.4489 12.0144 85.4489 11.4487C85.4489 10.6203 86.3435 10.1017 87.7856 10.1017C90.0154 10.1017 90.1222 11.1052 90.1222 14.2772C90.1222 14.8631 90.1222 15.6444 90.1489 16.1831C90.1756 16.1629 90.1957 16.1427 90.209 16.1293C91.0569 15.2874 92.7994 14.816 94.0011 14.816C96.1308 14.816 97.9668 16.1966 98.9148 18.5066C99.9496 21.0254 99.8962 24.9046 97.3392 27.4772C96.0641 28.7299 94.9491 29.5582 93.6473 29.5582C92.7994 29.5582 91.9382 29.2215 90.7565 28.4403C90.6096 28.3393 90.3492 28.1709 90.1156 28.0295C90.0488 28.804 89.4279 29.6323 87.859 29.6323ZM93.1065 17.5503C91.384 17.5503 90.1289 19.5438 90.1289 22.2915C90.1289 24.7766 91.4508 26.265 93.6673 26.265C94.8156 26.265 96.1375 25.7464 96.1375 21.6854C96.1375 20.2644 95.7636 19.0387 95.1561 18.4797C94.4885 17.8735 93.7808 17.5503 93.1065 17.5503Z" fill="white"/>
<path d="M102.814 29.6323C101.645 29.6323 99.4756 29.6323 99.4756 27.9487C99.4756 27.0529 100.21 26.2987 101.091 26.265C101.478 25.6184 101.478 21.5238 101.478 19.5303C101.478 17.5368 101.478 13.4421 101.091 12.7956C100.21 12.7687 99.4756 12.1625 99.4756 11.4487C99.4756 10.6068 100.477 10.1017 102.146 10.1017H104.817V18.8568C104.817 23.598 105.057 25.7127 105.217 26.3391C105.771 26.5411 106.152 27.1674 106.152 27.9487C106.152 29.6323 103.982 29.6323 102.814 29.6323Z" fill="white"/>
<path d="M7.27706 28.959C1.80924 28.959 0.667603 28.959 0.667603 26.9386C0.667603 26.0025 1.06818 25.228 1.63565 24.9923C1.79588 24.4804 2.00285 22.8237 2.00285 19.8671C2.00285 16.9106 1.79588 15.2539 1.63565 14.742C1.06818 14.5063 0.667603 13.7318 0.667603 12.7957C0.667603 10.7753 2.13637 10.7753 7.01001 10.7753C11.7635 10.7753 13.1388 10.9571 14.494 12.3176C15.4821 13.3143 16.0363 14.7016 15.9895 16.0418C15.9495 17.1194 15.5222 18.0623 14.7945 18.6953C14.494 18.9512 14.4406 19.0455 14.434 19.0657C14.4473 19.2476 14.9881 19.9614 15.2218 20.2645C17.0844 22.7496 17.0711 24.5006 15.1483 26.952C13.6795 28.8916 13.0053 28.959 7.27706 28.959ZM8.27849 21.5508C7.85121 21.5508 6.9566 21.5508 6.82307 21.6923C6.6762 21.8404 6.6762 22.7496 6.6762 23.2345C6.6762 23.7665 6.6762 24.6555 6.80305 24.7767C6.9566 24.9182 7.87124 24.9182 8.54554 24.9182C10.6152 24.9182 11.9504 24.1235 12.0172 23.5443C11.9504 23.3557 11.6233 22.8506 11.176 22.4533L11.1493 22.4263L11.1226 22.3994C10.7687 22.0088 9.4535 21.5508 8.27849 21.5508ZM8.27849 14.8161C6.6762 14.8161 6.6762 14.8161 6.6762 16.1631C6.6762 16.4931 6.6762 17.2541 6.79637 17.3484C7.00333 17.51 8.01144 17.51 8.6123 17.51C10.1812 17.51 10.9557 17.0453 11.1359 16.648C11.3162 16.2641 10.9824 15.7725 10.7687 15.5165C10.5484 15.2202 9.42012 14.8161 8.27849 14.8161Z" fill="white"/>
<path d="M135.127 29.6323C133.524 29.6323 132.69 28.9319 132.149 27.1338C131.615 25.6791 131.582 25.5915 129.118 25.5915C126.594 25.5915 126.568 25.6791 126.08 27.154C125.373 29.0599 124.598 29.6323 122.776 29.6323C121.046 29.6323 120.172 29.2754 120.172 27.3425C120.172 26.3929 120.592 25.2076 121.367 24.8035C121.734 24.3927 122.809 22.0086 123.871 18.5874C124.792 15.3682 125.853 12.0009 126.047 11.617L126.074 11.5631L126.107 11.516C126.541 10.9301 127.796 10.8695 128.317 10.8695C128.584 10.8695 128.858 10.8829 129.125 10.9166C131.515 11.1658 131.829 11.8797 133.952 18.3113C135.113 21.8942 136.222 24.386 136.562 24.8911C137.263 25.2413 137.523 26.4131 137.523 27.3493C137.53 29.0127 136.876 29.6323 135.127 29.6323ZM127.616 21.4766C127.763 21.517 128.083 21.5507 128.784 21.5507C129.832 21.5507 130.013 21.4497 130.046 21.4093C130.26 21.1197 129.665 19.1531 129.412 18.3113C129.158 17.4089 128.958 16.8903 128.818 16.594C128.744 16.7825 128.657 17.0654 128.564 17.4695C128.377 18.4931 128.036 20.0286 127.749 20.8907C127.656 21.214 127.623 21.3823 127.616 21.4766Z" fill="white"/>
<path d="M24.3015 29.6323C21.0902 29.6323 18.4865 27.3829 17.672 23.8944C16.9643 20.8705 17.7988 17.0384 21.2638 15.2874C22.2519 14.7958 23.28 14.5533 24.3215 14.5533C27.6129 14.5533 30.3968 17.0182 31.0978 20.5405L31.7321 23.5711H26.104C24.1479 23.5711 22.7459 23.6789 22.0916 23.7731C22.2252 24.2715 22.5456 24.6284 22.8193 24.8574C23.3134 25.2615 23.9877 25.504 24.6286 25.504C25.0826 25.504 25.7235 25.3827 26.1908 24.817C26.8184 24.0627 27.8532 23.5778 28.8279 23.5778C29.9562 23.5778 30.7106 24.2244 30.7106 25.1807C30.7106 27.2887 26.8918 29.6323 24.3015 29.6323ZM22.6791 19.5168C23.1131 19.5303 23.7139 19.5303 24.3682 19.5303C25.0225 19.5303 25.63 19.5303 26.0573 19.5168C25.9905 19.4427 25.9305 19.3687 25.877 19.308C25.2361 18.5942 24.5685 18.2035 24.3682 18.1833C24.1679 18.2035 23.5003 18.5942 22.8594 19.308C22.806 19.3687 22.7459 19.4427 22.6791 19.5168Z" fill="white"/>
<path d="M66.0278 29.5381C64.6191 29.5381 63.1036 29.0936 62.91 28.0901C62.8433 27.7265 62.89 27.053 64.0383 26.5816C64.2252 26.4469 64.6792 25.376 64.8261 22.965C64.993 20.1971 64.6392 17.9611 64.3054 17.5032C63.4575 17.4493 62.7565 16.8567 62.7565 16.163C62.7565 15.3211 63.7579 14.816 65.427 14.816C66.0345 14.816 67.7903 14.816 68.0641 16.2438C68.1108 16.2034 68.1575 16.163 68.1909 16.1293C69.0655 15.3211 70.3206 14.8565 71.6358 14.8565C72.8843 14.8565 73.9725 15.2942 74.6201 16.062C74.8738 16.365 74.9673 16.4189 74.9873 16.4256C75.1676 16.4122 75.8686 15.8667 76.1757 15.6309C77.3841 14.6814 78.0917 14.2301 78.8595 14.2301C79.7408 14.2301 80.4418 14.8632 81.2563 15.6916C82.5581 17.0048 82.7851 18.473 82.7851 21.9616C82.7851 25.5107 83.0856 26.3526 83.7064 26.8038C84.2739 27.2618 84.7813 27.6726 84.5877 28.2652C84.3807 28.8983 83.6998 28.9185 82.3445 28.9656H79.5405L79.3135 22.7967C79.1332 18.4999 78.9396 17.7389 78.4456 17.6379C78.2787 17.6042 78.1185 17.5907 77.9649 17.5907C75.6883 17.5907 75.4413 21.4026 75.4413 23.0391C75.4413 24.9922 75.5414 26.0832 75.7484 26.2785C75.7551 26.2785 75.7617 26.2785 75.7684 26.2785C76.7365 26.2785 77.4441 26.8577 77.4441 27.6187C77.4441 28.5481 76.1022 28.9656 74.7737 28.9656H72.1966L71.9697 22.7967C71.7894 18.4999 71.5958 17.7389 71.1017 17.6379C70.9348 17.6042 70.7746 17.5907 70.6211 17.5907C68.3445 17.5907 68.0974 21.4026 68.0974 23.0391C68.0974 25.0056 68.1976 26.0899 68.4045 26.265C68.4045 26.265 68.4313 26.2718 68.498 26.2718C69.8933 26.2718 70.0803 27.0126 70.0936 27.3291C70.1404 28.4269 68.4112 29.3562 66.8223 29.5044C66.5552 29.5246 66.2882 29.5381 66.0278 29.5381Z" fill="white"/>
<path d="M187.802 29.6323C184.204 29.6323 180.926 26.2919 180.926 22.6282C180.926 18.9915 182.414 16.2572 185.005 15.1393C185.886 14.7419 186.821 14.5399 187.769 14.5399C191.107 14.5399 193.944 17.0048 194.665 20.5405L195.306 23.5711H189.671C186.747 23.5711 185.873 23.7799 185.606 23.9078C185.659 24.4466 185.999 24.8103 186.293 25.0258C186.754 25.3693 187.381 25.5646 188.009 25.5646C188.436 25.5646 189.231 25.4703 189.751 24.8305C190.379 24.0762 191.414 23.5913 192.389 23.5913C193.517 23.5913 194.271 24.2378 194.271 25.1942C194.278 27.3358 190.479 29.6323 187.802 29.6323ZM186.18 19.2946C186.527 19.335 186.954 19.3754 187.261 19.3956C187.835 19.4495 188.289 19.4697 188.67 19.4697C189.064 19.4697 189.304 19.4427 189.444 19.4091C189.384 19.308 189.284 19.1599 189.104 18.9511C188.71 18.4527 188.329 18.217 187.936 18.217C187.482 18.217 186.934 18.5335 186.347 19.1262C186.3 19.1733 186.24 19.2272 186.18 19.2946Z" fill="white"/>
<path d="M60.106 29.5181C59.0712 29.5181 58.1832 29.114 57.8494 28.4944C57.776 28.3664 57.7293 28.225 57.7092 28.0836C57.2619 28.3058 56.7211 28.5752 56.2405 28.8177C55.3993 29.2554 54.4913 29.4844 53.6234 29.4844C51.8075 29.4844 50.2986 28.5079 49.5909 26.8646C48.9367 25.4638 48.9834 24.036 49.7178 22.8642C50.786 21.167 53.1293 20.1972 56.1403 20.1972C56.8213 20.1972 57.2152 20.1568 57.3153 20.0828C57.3354 20.0289 57.3621 19.7932 57.2753 19.0591C57.1685 17.9479 56.9481 17.7324 55.8065 17.6313C55.6663 17.6179 55.5395 17.6044 55.4126 17.6044C54.5781 17.6044 53.6367 17.9142 53.1761 18.3317C52.3616 19.0726 51.5471 19.4766 50.8995 19.4766C50.3988 19.4766 49.9982 19.2275 49.8313 18.8166C49.651 18.3789 49.6711 17.6111 50.7927 16.4797C51.9276 15.3348 53.3697 14.8028 55.3392 14.8028C59.8456 14.8028 60.7469 17.7391 60.7469 22.4803C60.7469 25.5513 61.054 26.3393 61.6682 26.7838C62.3425 27.2956 62.8232 27.6593 62.7431 28.2385C62.663 28.8042 62.1289 29.0062 61.5147 29.2419C61.0874 29.4238 60.6 29.5181 60.106 29.5181ZM56.8881 22.743C56.6077 22.743 56.1804 22.817 55.8065 22.8844C52.889 23.5175 52.7421 24.0428 52.7421 24.8509C52.7421 26.2113 53.7369 26.6895 54.5914 26.6895C55.4393 26.6895 56.2805 26.2517 56.9014 25.4975C57.1351 25.2213 57.4088 24.3054 57.2886 23.5377C57.2018 22.9315 57.1284 22.7968 57.095 22.7632C57.095 22.7632 57.0416 22.743 56.8881 22.743Z" fill="white"/>
<path d="M112.895 29.6323C111.887 29.6323 110.238 28.6423 109.129 27.7264C107.187 26.1303 106.819 25.2413 106.819 22.1568C106.819 19.2744 107.22 18.0958 108.695 16.6815C109.87 15.476 111.393 14.7958 112.968 14.7958C115.892 14.7958 118.376 16.9576 119.15 20.1768L119.825 22.8976H114.23C110.158 22.8976 110.158 23.0525 110.158 23.5711C110.158 24.7699 112.094 26.9384 113.162 26.9384C113.416 26.9384 114.317 26.5007 115.025 25.7868C115.979 24.8238 116.981 24.2513 117.715 24.2513C118.376 24.2513 118.837 24.716 118.837 25.3895C118.75 27.5513 115.358 29.6323 112.895 29.6323ZM113.128 17.5368C112.374 17.5368 111.66 17.8735 111.126 18.4931C110.184 19.5101 110.171 19.8266 110.178 19.8603C110.218 19.8872 110.605 20.2038 113.162 20.2038C113.829 20.2038 115.532 20.2038 115.999 20.0152C115.946 19.8401 115.752 19.4764 115.218 18.7086C114.724 17.9611 113.97 17.5368 113.128 17.5368Z" fill="white"/>
<path d="M142.804 28.959C140.661 28.959 140.181 28.2316 139.553 25.5445C138.418 21.1535 137.61 18.7627 137.156 18.4394L137.096 18.4057L137.049 18.3653C136.549 17.9612 136.195 17.1598 136.195 16.4257C136.195 14.8094 138.451 14.8094 139.533 14.8094C141.249 14.8094 142.871 14.8094 142.871 16.7625C142.871 17.5167 142.631 18.4596 141.976 18.8435C141.956 19.0859 141.963 19.8267 142.45 21.7125C142.577 22.1704 142.684 22.5543 142.784 22.8641C143.058 21.8067 143.372 20.1433 143.552 19.1937C144.153 16.1496 144.407 14.8902 146.069 14.8902C146.316 14.8902 146.576 14.9171 146.83 14.9508C148.946 15.2202 149.22 16.1361 150.008 19.9951C150.202 20.9986 150.395 21.8876 150.569 22.5947C150.635 22.3051 150.702 21.9751 150.769 21.6249C151.23 19.6247 151.136 18.5741 151.023 18.3788C150.028 17.3349 150.061 16.5537 150.255 16.0822C150.615 15.2404 151.724 14.8094 153.56 14.8094C155.275 14.8094 156.898 14.8094 156.898 16.7625C156.898 17.5908 156.544 18.5471 155.863 18.8839C155.603 19.2678 154.908 20.9649 154.274 23.3961C153.226 27.7939 152.952 28.6222 150.549 28.6222C148.172 28.6222 147.885 27.7737 147.157 24.5276C146.964 23.6857 146.763 22.9247 146.59 22.3118C146.449 22.8304 146.289 23.4971 146.122 24.3188C145.428 27.9757 145.241 28.959 142.804 28.959Z" fill="white"/>
<path d="M167.974 29.6323C166.979 29.6323 165.717 29.2821 165.33 28.6289C165.31 28.6221 165.283 28.6221 165.256 28.6221C165.13 28.6221 164.916 28.676 164.555 28.878C163.661 29.3629 162.733 29.6054 161.812 29.6054C160.41 29.6054 159.081 29.0397 157.973 27.9621C156.557 26.6219 156.017 25.0864 156.471 23.6384C157.071 21.7258 159.315 20.3182 162.479 19.867C164.849 19.4562 164.809 19.1935 164.782 19.0184C164.709 18.6144 164.028 18.2844 163.234 18.2844C162.566 18.2844 161.985 18.5201 161.711 18.904C161.157 19.6178 160.162 20.0893 159.221 20.0893C159.074 20.0893 158.927 20.0758 158.787 20.0556L156.183 19.6987L158.373 16.8903C159.648 15.3009 160.723 14.816 162.973 14.816C168.528 14.816 168.975 15.9676 169.91 24.9854C170.143 27.6187 170.197 28.5548 169.649 29.1542C169.215 29.6323 168.581 29.6323 167.974 29.6323ZM164.816 23.0256C162.018 23.5576 161.117 24.3187 161.037 24.6621C160.99 24.8507 161.211 25.147 161.625 25.4501C162.065 25.7868 162.332 25.9282 162.506 25.9282C162.693 25.9282 162.973 25.7868 163.447 25.4433C164.135 25.0325 164.676 24.1301 164.776 23.524C164.816 23.3219 164.823 23.1535 164.816 23.0256Z" fill="white"/>
<path d="M174.583 28.959C173.121 28.959 170.911 28.959 170.911 27.2753C170.911 26.5008 171.352 25.8341 171.919 25.6455C172.053 25.2684 172.246 24.1639 172.246 22.2243C172.246 20.2712 172.053 19.1667 171.919 18.7963C171.332 18.5808 170.911 17.7929 170.911 16.8365C170.911 14.971 172.3 14.8161 173.982 14.8161C175.898 14.8161 176.352 15.2606 176.533 15.5974C176.579 15.6916 176.613 15.7859 176.626 15.8802C176.646 15.8533 176.666 15.8331 176.679 15.8129C177.04 15.0855 178.328 14.8094 179.323 14.8094C179.884 14.8094 181.593 14.8094 181.593 16.8298C181.593 17.7525 181.213 18.8502 179.39 18.8502C178.609 18.8502 177.814 19.1667 177.527 19.4631C176.966 20.0759 176.733 24.5882 177.18 25.6186C177.808 25.76 178.255 26.4267 178.255 27.2753C178.255 28.959 176.045 28.959 174.583 28.959Z" fill="white"/>
<path d="M203.291 29.5181C202.316 29.5181 201.375 28.9928 200.146 27.7536C197.863 25.5244 197.71 22.2177 199.786 19.8875C200.794 18.7964 201.962 18.2307 203.177 18.2307C204.499 18.2307 205.768 18.9311 206.749 20.1905C208.806 22.7834 208.692 25.4638 206.429 27.7468C205.207 28.986 204.266 29.5181 203.291 29.5181ZM203.211 20.8842C202.47 20.8842 201.849 21.2277 201.542 21.8001C200.821 23.1605 200.767 24.723 201.388 25.7736C201.769 26.4134 202.363 26.7703 203.051 26.7703C203.244 26.7703 203.451 26.7434 203.658 26.6895C204.286 26.5413 204.826 26.0228 205.154 25.2617C205.614 24.1977 205.574 22.8979 205.04 21.9415C204.64 21.1603 203.832 20.8842 203.211 20.8842Z" fill="white"/>
<path d="M210.635 28.8916C208.605 28.8916 208.151 28.5885 208.044 28.0767C208.024 27.9824 207.958 27.5043 208.498 27.2281C209.052 26.4334 209.166 21.8269 208.672 20.8571C208.385 20.7965 208.144 20.6214 208.004 20.3722C207.811 20.022 207.831 19.5775 208.058 19.1869C208.438 18.574 209.086 18.2104 209.787 18.2104C210.822 18.2104 211.643 18.9647 211.696 19.9681C211.763 20.6416 211.763 22.4936 211.696 24.0763C211.556 26.2785 211.93 26.6759 212.431 26.9655C212.878 27.2349 213.465 27.5918 213.299 28.2181C213.112 28.8916 212.437 28.8916 210.635 28.8916Z" fill="white"/>
<path d="M211.749 21.5776C211.449 21.5776 211.195 21.4227 211.069 21.1601C210.842 20.6819 211.135 20.3115 211.716 19.5774C212.377 18.7356 213.365 18.1834 214.233 18.1834C215.074 18.1834 215.642 18.7221 215.642 19.5236C215.642 20.2509 215.061 20.8705 214.373 20.8705C214.173 20.8705 213.405 21.0321 212.751 21.2948C212.23 21.4968 211.976 21.5776 211.749 21.5776Z" fill="white"/>
<path d="M220.048 32.3267C218.466 32.3267 216.269 31.1481 215.782 30.0301C215.582 29.5722 215.642 29.1142 215.949 28.7775C216.116 28.6091 216.376 28.434 216.797 28.434C217.257 28.434 217.818 28.6563 218.312 29.0267C218.733 29.3701 219.26 29.552 219.828 29.552C220.589 29.552 221.417 29.195 221.524 28.5148C221.557 28.1983 221.53 28.104 221.524 28.0905C221.41 28.0097 220.836 27.9558 219.848 27.9558C217.531 27.9558 216.683 27.4777 215.902 25.7401C214.841 23.6052 215.648 20.0426 217.478 18.8371C218.085 18.4397 218.893 18.2107 219.694 18.2107C220.689 18.2107 221.463 18.5407 221.844 19.1267C221.957 19.1267 222.198 19.0863 222.645 18.8236C223.152 18.5003 223.753 18.305 224.274 18.305C224.688 18.305 225.029 18.4263 225.256 18.662L225.302 18.7158C225.563 19.0458 225.649 19.4567 225.543 19.8338C225.436 20.2042 225.155 20.4938 224.775 20.6352C224.668 20.7699 224.314 21.4838 224.314 24.932C224.321 29.4914 223.606 32.3267 220.048 32.3267ZM219.447 20.9585C218.933 20.9585 218.673 21.0528 218.332 21.9283C217.925 23.0126 218.072 24.3124 218.706 25.235C219.087 25.7873 219.574 26.1038 220.041 26.1038C220.328 26.1038 220.609 25.9826 220.889 25.7469C221.43 25.2956 221.637 24.4067 221.524 23.0193C221.343 21.1673 221.25 21.1605 220.035 21.0056C219.794 20.972 219.607 20.9585 219.447 20.9585Z" fill="white"/>
<path d="M196.615 27.4777C196.707 27.4777 196.782 27.538 196.782 27.6124C196.782 27.6868 196.707 27.7471 196.615 27.7471C196.522 27.7471 196.448 27.6868 196.448 27.6124C196.448 27.538 196.522 27.4777 196.615 27.4777Z" fill="white"/>
</svg>
