<svg width="52" height="64" viewBox="0 0 52 64" fill="none" xmlns="http://www.w3.org/2000/svg">
<path d="M25.1806 64C17.0782 64 11.6045 61.7735 6.87954 56.5672C0.25788 49.219 0 47.9746 0 23.3143C0 2.08254 0.415932 0.829628 1.6055 0.347092C1.78019 0.253967 2.27932 3.8147e-06 11.9955 3.8147e-06C13.8423 3.8147e-06 15.8387 0.00846863 17.9018 0.0338669C31.7856 0.203178 33.4327 0.397888 37.5422 2.31112C42.7413 4.65609 47.4663 9.55767 50.1782 15.4159C51.7671 19.0053 52 21.164 52 31.9492C52 42.7429 51.8669 44.7661 50.0118 48.8127C45.5697 58.5312 38.4156 63.3397 27.4932 63.9492C26.6946 63.9831 25.9293 64 25.1806 64ZM26.3203 12.0635C21.9363 12.0635 17.8103 13.4603 15.5559 15.7037C12.295 19.1069 11.4132 23.509 11.8125 34.5397C12.0621 43.8011 12.2451 44.3005 14.1417 46.8402C16.5625 50.0571 21.6868 52.2159 26.9109 52.2159C29.889 52.2159 32.5094 51.4794 34.2812 50.1418C38.557 46.9164 39.9379 43.8095 39.9379 37.3587V31.9407H34.5308C31.794 31.9407 30.0803 31.9577 29.3899 32.1862C29.1403 32.2709 29.1237 32.2709 29.1237 33.1259C29.1237 34.3365 29.1237 34.4296 31.5278 34.6497C34.9467 34.9376 35.3294 35.3693 35.6122 39.2381C35.8285 41.9217 35.2545 44.0381 33.9069 45.528C32.4095 47.1873 29.9555 48.0254 26.6364 48.0254C24.1907 48.0254 21.4039 47.5767 20.2726 47.0011C17.2196 45.418 15.8055 40.7111 15.8055 32.2032C15.8055 20.9185 18.7503 16.1016 25.6548 16.1016C26.2454 16.1016 26.8776 16.1355 27.5431 16.2116C30.5961 16.4825 32.2099 17.2868 33.9235 19.3947C35.0882 20.7407 35.5706 21.1132 36.1446 21.1132C36.4441 21.1132 36.8268 21.0286 37.4257 20.8254C38.3491 20.5122 38.9397 20.055 39.0977 19.8434C38.948 18.6751 36.0198 14.8656 33.8986 13.7397C31.8272 12.6561 29.1403 12.0635 26.3203 12.0635Z" fill="white"/>
</svg>
