<svg width="93" height="68" viewBox="0 0 93 68" fill="none" xmlns="http://www.w3.org/2000/svg">
<path d="M52.0651 67.1436C48.6327 67.1436 44.9623 67.1264 41.037 67.1093L1.47844 66.5782L0.951677 40.9133C0.441902 14.3746 1.69935 8.01833 8.44537 3.18689C11.0112 1.35368 16.4998 0.856827 33.9851 0.856827C38.845 0.856827 44.6394 0.89109 51.6063 0.976753L91.5217 1.50787L92.0485 27.5154C92.5583 54.6709 91.029 61.4555 83.4503 65.6359C82.2438 66.3383 77.5879 67.1436 52.0651 67.1436C52.0821 67.1436 52.0821 67.1436 52.0651 67.1436ZM79.4401 64.0254L83.2634 59.9992C86.6449 56.7611 87.2736 54.551 87.2736 46.036V36.6129H5.70958V64.0254H79.4401ZM87.2736 33.1864V4.06066H13.5431L9.71981 8.08686C6.20236 11.4791 5.70958 13.2781 5.70958 22.9067V33.1864H87.2736Z" fill="white"/>
<path d="M26.9502 29.7598C21.1388 29.7598 12.5066 22.8895 12.5066 18.2808C12.5066 16.6875 13.747 13.8091 15.3953 11.599C17.3325 8.78924 22.0224 7.29869 25.6588 7.29869C29.0743 7.29869 31.1984 8.61792 31.1984 10.7424C31.1984 11.8046 30.7396 12.6441 29.8729 13.1752C29.1253 13.6207 28.1057 13.8434 26.7463 13.8434C26.4744 13.8434 26.1856 13.8434 25.8797 13.8091C25.5908 13.792 25.3359 13.7749 25.081 13.7749C22.7191 13.7749 20.765 14.8028 19.9833 16.4647C19.3716 17.7497 19.6265 19.206 20.646 20.4567C21.8355 21.8102 24.1635 22.8895 25.9307 22.8895C26.2026 22.8724 26.6783 22.8553 27.1032 22.821C26.7633 22.5469 26.3555 22.2385 26.1006 22.0329C23.5347 20.1654 22.5831 18.8633 22.957 17.6812C23.3308 16.5333 24.7752 16.0364 27.7998 16.0364C32.3029 16.0364 32.8976 17.407 32.8976 22.8895C32.8976 28.629 32.4218 29.7598 26.9502 29.7598Z" fill="white"/>
<path d="M38.675 29.7769C38.1312 29.7769 37.6385 29.5199 37.3156 29.0573C35.9732 27.2069 37.3496 21.6559 38.726 17.3213C40.6971 10.9308 42.8212 7.82976 45.2001 7.82976C47.2732 7.82976 49.0744 10.1427 50.7057 14.9056C54.3761 25.4594 55.0218 27.6524 54.1042 28.9374C53.5434 29.7426 52.5069 29.7426 51.7592 29.7426C49.7881 29.7426 48.1908 28.5947 48.1908 27.1727C48.1908 26.5902 47.1543 26.3332 46.1857 26.3332C44.7243 26.3332 42.7192 26.8814 41.4958 28.115C40.3743 29.2629 39.4906 29.7769 38.675 29.7769Z" fill="white"/>
<path d="M75.8547 29.8628C74.6653 29.8628 73.8326 28.4065 73.1869 25.1341L73.068 24.466L72.7791 25.2541C71.9465 27.9782 70.2642 29.6229 68.2931 29.6229C66.4069 29.6229 64.6907 28.0467 63.7051 25.4254L63.3313 24.3803L63.1274 25.3055C62.4477 27.3957 61.0713 29.7429 59.406 29.7429C59.0322 29.7429 58.4714 29.6229 57.9786 29.0233C56.1944 26.8646 56.5682 19.6688 57.7067 13.4839C58.7263 8.70381 60.4765 7.69298 61.768 7.69298C63.7391 7.69298 65.5403 10.0059 67.0017 14.3919L68.2761 18.4352L69.4826 14.9059C70.4511 11.822 72.7281 8.30976 74.8522 7.83004C75.192 7.76151 75.4809 7.72724 75.7528 7.72724C78.5056 7.72724 78.7775 10.8283 78.7775 18.4352C78.7775 21.8789 78.4886 29.8628 75.8547 29.8628Z" fill="white"/>
<path d="M17.5874 60.3418C14.3419 60.3418 11.1133 58.6799 10.2467 56.5555C9.80488 55.459 10.0258 54.3453 10.8924 53.4716C11.5891 52.7691 12.3707 52.4093 13.2204 52.4093C14.172 52.4093 15.1575 52.8376 16.279 53.7457C17.2646 54.5338 17.7744 54.7051 18.0123 54.7051C18.0972 54.7051 18.3011 54.7051 18.624 54.2597C18.709 54.0541 17.9443 52.7177 15.7013 51.5869C13.2713 50.5076 11.4022 48.1261 10.8414 45.3677C10.3826 43.1405 10.8924 41.0332 12.2348 39.6111C13.2204 38.6346 15.4804 38.5318 16.415 38.5318C17.0777 38.5318 17.7574 38.5832 18.4201 38.6688C21.7166 39.08 24.1126 40.8276 23.9936 42.7464C23.9596 43.3118 23.5518 45.1793 19.8305 45.1793H18.3861L20.3572 46.7384C23.4159 49.1198 24.8942 52.8376 24.0446 55.9558C23.3989 58.3373 21.4787 59.9477 18.9299 60.2561C18.4711 60.3075 18.0293 60.3418 17.5874 60.3418Z" fill="white"/>
<path d="M34.5968 60.5986C31.4532 60.5986 31.1983 56.5382 31.1983 52.0322C31.1983 47.7319 30.5526 45.5903 30.1957 45.1791C28.9043 45.0763 27.7998 43.5173 27.7998 41.7526C27.7998 38.326 32.9146 38.326 34.5968 38.326C36.2791 38.326 41.3938 38.326 41.3938 41.7526C41.3938 43.6029 40.4082 45.0421 39.0488 45.162C38.641 45.7445 37.9953 48.3144 37.9953 52.0322C37.9953 56.5382 37.7404 60.5986 34.5968 60.5986Z" fill="white"/>
<path d="M53.3736 60.5815C50.5019 60.5815 47.9021 59.5193 46.0499 57.6004C43.9598 55.5788 42.9063 52.4777 43.1442 49.1197C43.399 45.7617 44.9624 42.7463 47.3583 41.0502C49.1935 39.7138 51.3855 39.0114 53.6625 39.0114C59.2021 39.0114 65.1834 43.2603 65.1834 50.1477C65.1834 53.0431 63.841 55.7158 61.4111 57.7204C59.1851 59.5364 56.2624 60.5815 53.3736 60.5815ZM54.2573 45.2477C52.558 45.2477 50.9267 46.0015 49.8562 47.2865C48.6497 48.7257 49.0236 50.9358 49.7033 52.3921C50.4849 54.0882 51.7764 55.2018 52.9828 55.2018C53.1358 55.2018 53.2887 55.1847 53.4416 55.1505C55.0219 54.8592 56.5003 53.6942 57.4179 52.0323C58.2845 50.4561 58.4714 48.7257 57.9446 47.3893C57.4009 46.0358 56.0245 45.2477 54.2573 45.2477Z" fill="white"/>
<path d="M70.7059 60.2734C70.0262 60.2734 68.5818 60.2734 68.5818 49.634C68.5818 41.77 68.9216 38.3263 72.1502 38.3263C78.4205 38.3263 82.1758 42.1127 82.1758 48.4347C82.1758 54.3798 81.4621 55.1507 71.1647 60.1706L70.9947 60.2563L70.7059 60.2734ZM74.1893 45.4022C74.0704 45.4022 74.0534 45.4365 74.0364 45.4536C74.0024 45.505 73.6795 45.9504 74.0194 47.7665C74.2403 49.8224 75.0389 50.6448 75.4128 50.6448C75.7017 50.6448 76.2454 49.9424 76.2454 48.2634C76.2454 46.9784 75.3618 45.8134 74.5462 45.4536C74.3932 45.4022 74.2573 45.4022 74.1893 45.4022Z" fill="white"/>
</svg>
